/* XPM */
static char *_5646_3b03b3f36d79b2b126763fd2b812a81460bf14917b5ab6bb2864793ad41ab54c[] = {
/* columns rows colors chars-per-pixel */
"60 60 128 2 ",
"   c #1D2B16",
".  c #3E3E3E",
"X  c #2A2A2A",
"o  c #4A904B",
"O  c #223E26",
"+  c #33613E",
"@  c #152518",
"#  c #400E0E",
"$  c gray37",
"%  c gray26",
"&  c #8E8E8E",
"*  c #CA1D1C",
"=  c #891C1A",
"-  c #621412",
";  c #3B3E3A",
":  c #190807",
">  c #477C52",
",  c #818181",
"<  c gray33",
"1  c #62A363",
"2  c #447A52",
"3  c #1C2E1F",
"4  c #2D4E33",
"5  c gray23",
"6  c #447951",
"7  c #1D2F20",
"8  c #F1F2F1",
"9  c #1D2C17",
"0  c #1F3423",
"q  c #2A4830",
"w  c #61A162",
"e  c #61A262",
"r  c #3E6F4A",
"t  c #2C4C32",
"y  c #41734D",
"u  c #1E3021",
"i  c #CFD3D0",
"p  c #437851",
"a  c #2C4D32",
"s  c #314E36",
"d  c #E4E6E5",
"f  c #203123",
"g  c #243326",
"h  c #5F9D5F",
"j  c #4A7E57",
"k  c #1D3020",
"l  c #2A482E",
"z  c #233326",
"x  c #273E2B",
"c  c #1D3121",
"v  c #29462D",
"b  c #233726",
"n  c #2E4E34",
"m  c #2F4E34",
"M  c #1E2F21",
"N  c #223225",
"B  c #5F9E60",
"V  c #1E3122",
"C  c #2B4A31",
"Z  c #66A667",
"A  c #2F4E35",
"S  c #1E2D17",
"D  c #20321B",
"F  c #467C54",
"G  c #37563D",
"H  c #F2F3F2",
"J  c #457A52",
"K  c None",
"L  c black",
"P  c black",
"I  c black",
"U  c black",
"Y  c black",
"T  c black",
"R  c black",
"E  c black",
"W  c black",
"Q  c black",
"!  c black",
"~  c black",
"^  c black",
"/  c black",
"(  c black",
")  c black",
"_  c black",
"`  c black",
"'  c black",
"]  c black",
"[  c black",
"{  c black",
"}  c black",
"|  c black",
" . c black",
".. c black",
"X. c black",
"o. c black",
"O. c black",
"+. c black",
"@. c black",
"#. c black",
"$. c black",
"%. c black",
"&. c black",
"*. c black",
"=. c black",
"-. c black",
";. c black",
":. c black",
">. c black",
",. c black",
"<. c black",
"1. c black",
"2. c black",
"3. c black",
"4. c black",
"5. c black",
"6. c black",
"7. c black",
"8. c black",
"9. c black",
"0. c black",
"q. c black",
"w. c black",
"e. c black",
"r. c black",
"t. c black",
"y. c black",
"u. c black",
/* pixels */
"K K K K K K K K K K K K K K K K K K K K K K K K K K K K K K K K K K K K K K K K K K K K K K K K K K K K K K K K K K K K ",
"K K K K K K K K K K K K K K K K K K K K K K K K K K K K K K K K K K K K K K K K K K K K K K K K K K K K K K K K K K K K ",
"K K K K K K K K K K K K K K K K K K K K K K K K K K K K K K K K K K K K K K K K K K K K K K K K K K K K K K K K K K K K ",
"K K K K K K K K K K K K K K K K K K K K K K O v 4 4 4 a A G G G G 4 t O K K K K K K K K K K K K K K K K K K K K K K K K ",
"K K K K K K K K K K K K K K K K K K K K K O O C + r + + y j j > p r + O O K K K K K K K K K K K K K K K K K K K K K K K ",
"K K K K K K K K K K K K K K K K K K K 7 b O 4 + 2 j > o o e h o o y r + O O K K K K K K K K K K K K K K K K K K K K K K ",
"K K K K K K K K K K K K K K K K K K 0 x v + p y y w w w w 1 h o o o > y + x l K K K K K K K K K K K K K K K K K K K K K ",
"K K K K K K K K K K K K K K K K K K x 4 G p r + o 1 1 1 1 1 1 o o o h o 2 + 4 b K K K K K K K K K K K K K K K K K K K K ",
"K K K K K K K K K K K K K K K K K 0 C l n y 6 o e 1 1 1 1 1 1 e h w e e p y + C 3 K K K K K K K K K K K K K K K K K K K ",
"K K K K K K K K K K K K K K K K K O 4 v G r o 1 1 h w 1 1 1 1 1 1 1 1 h o r y 4 O 3 K K K K K K K K K K K K K K K K K K ",
"K K K K K K K K K K K K K K K K @ O C v + p h 1 e o B 1 1 1 1 1 1 1 1 w o + p + C c K K K K K K K K K K K K K K K K K K ",
"K K K K K K K K K K K K K K K K @ 0 l a y 6 h 1 1 1 1 1 1 1 1 h h 1 1 h h o 6 + C b K K K K K K K K K K K K K K K K K K ",
"K K K K K K 1 h h h h 1 K K K 4 @ O C G y r h e 1 1 1 1 1 1 1 h h 1 w o o h J 4 l 0 b K K K K 1 1 1 1 K K K K K K K K K ",
"K K K K 1 h j j 2 2 F j o K K O 9 O a r 6 y j w 1 1 1 1 1 1 1 1 1 1 h o o e j + t O @ K K K h o j j o h e K K K K K K K ",
"K K K K h J y G s s s + y 2 r 0 c a 4 r r r w o o h h 1 1 1 1 1 1 1 h o o h F 4 v O @ G 2 F 6 r r r r p j h K K K K K K ",
"K K K B j r n v c 3 O v 4 G + 3 k x O A + o h o > h 1 h h o 2 F h 1 w h o r r l n O @ + y r n a v v t G 6 2 1 K K K K K ",
"K K K j r 4 x < % X % . b x b 0 3 0 4 r + y r j w B j j o o o o F j h 1 1 r G + G 0 @ O 4 q b b ; M ; x C y j K K K K K ",
"K K K y s ; < < % X < $ j s 0 0 3 0 A r G + 2 o h o h h o o o o o h j o w o + + x k 3 3 3 G < < < X < < x C 2 o K K K K ",
"K K K + x < $ , % y h o j p A O 3 b a G + p r o j h j r G + + G + y o j J + r + x b c v + o o h $ X < , < ; + 2 K K K K ",
"K K K v x < , , j > r + + G t x V v x G + r n j j + + > j + + j > s + j j + + G b O b 4 + y y j j + $ , $ % v K K K K K ",
"K K K K 5 $ $ $ J G q v b b 0 O x O v A + v + y + > j j y j j j p j r + j r t t x v O O v x b v + > < $ , % 0 K K K K K ",
"K K K + g . + y G O ; . 5 q + c b O t C O + + + + > + y l G G 4 r r r s r 2 q q v v b v x X . < x G r G % 5 O K K K K K ",
"K K 6 j + y y C b x % % < G a O k 0 l x b + v + G y o o o > > o h o 6 s r y q v 0 b b s r % < % ; b G p r % m 1 K K K K ",
"K K G r r G q c 5 5 5 % % x v O b 7 b x 7 q + + + y A G r o o j + s r r + G x b 3 3 x v v < < . 5 % b G y j > o K K K K ",
"K K 4 v O 7 < X 5 5 . $ < g b 3 b b 7 x 0 O x b + % < % - - - - % < % s C x v 3 b 3 b O k < $ % 5 % X x x v + t K K K K ",
"K K K K < $ $ 5 . . . $ , % 3 3 3 0 O x b b 0 0 ; $ % = * - - * = % < ; k V b V O 3 3 3 3 , $ % 5 % X $ % ; 3 K K K K K ",
"K K K K h j G 5 . . . $ , < 3 K K k x 0 c b 0 0 G < 5 = * # : * = 5 < G 0 b O x O 3 3 3 c , $ % 5 % X $ $ , K K K K K K ",
"K K K K j C $ 5 5 5 . $ $ r K K K 3 O x b r G x G r y j $ G G $ j 6 r + x b A x x 3 K K K $ $ % 5 % X % G o K K K K K K ",
"K K K K s < $ 5 < < . $ $ r K K K K 3 x + B h > G + y r r p p y A r j a + h o x v 3 K K r $ $ . % < 5 $ < G j K K K K K ",
"K K K K K , $ . % % % , $ A K K K K 3 b r o r + j j 6 o h > p o o > G r o o h x O 3 K K G j , % % % . $ , < K K K K K K ",
"K K K K K , , % < < % , $ K K K K K K 3 G + v 4 O 6 o J r j h r r y + G 0 O r x 3 K K K K ; , % < < . $ , $ K K K K K K ",
"K K K K K $ $ % < < % , $ K K K K K K b q + x x M v + j h j j o j + b b O G s x 3 K K K K $ $ % < < . $ $ $ K K K K K K ",
"K K K K K , $ % < < % , , K K K K K K K b s + x g M $ s + + + n x < M g G r A b K K K K K , $ % < < . $ , , K K K K K K ",
"K K K K K , , % % % % , , K K K K K K K 3 C G x     $ ; $ x   , % ,     + + x K K K K K K , , % % % . $ , , K K K K K K ",
"K K K K K $ $ % < < % , $ K K K K K K K K x 4 G         $ g   $ b ;   9 + 4 $ K K K K K K , $ % < < . $ $ , K K K K K K ",
"K K K K K $ $ % < < % $ $ K K K K K K K K 3 q G D                   M q r l K K K K K K K , $ % K < . $ < , K K K K K K ",
"K K K K K $ $ % K K % $ $ K K K K K K K K K 0 + +   b ;             M + + i K K K K K K K , $ % K K . $ < , K K K K K K ",
"K K K K K , , % K K % , , K K K K K K K K K K G 2 j G $ % $ % f . < + y A K K K K K K K K , , % K K . $ , , K K K K K K ",
"K K K K K , , K K K K , , K K K K K K K K K K , y y j s % $ $ < x y j + & K K K K K K K K , , < K K K $ , , K K K K K K ",
"K K K K K K K K K K K K K K K K K K K K K K K K A r + p j 6 6 j > + + 4 K K K K K K K K K K K K K K K K K K K K K K K K ",
"K K K K K K K K K K K K K K K K K K K K K K K K 4 4 + + + y y r + + 4 K K K K K K K K K K K K K K K K K K K K K K K K K ",
"K K K K K K K K K K K K K K K K K K K K K K K K K 4 4 G G r r + G 4 K K K K K K K K K K K K K K K K K K K K K K K K K K ",
"K K K K K K K K K K K K K K K K K K K K K K K K K K K K 4 4 4 4 K K K K K K K K K K K K K K K K K K K K K K K K K K K K ",
"K K K K K K K K K K K K K K K K K K K K K K K K K K K K K K K K K K K K K K K K K K K K K K K K K K K K K K K K K K K K ",
"K K K K K K K K K K K K K K K K K K K K K K K K K K K K K K K K K K K K K K K K K K K K K K K K K K K K K K K K K K K K ",
"K K K K K K K K K K K K K K K K K K K K K K K K K K K K K K K K K K K K K K K K K K K K K K K K K K K K K K K K K K K K ",
"K K K K K K K K K K K K K K K K K K K K K K K K K K K K K K K K K K K K K K K K K K K K K K K K K K K K K K K K K K K K ",
"K K K K K K K K K K K K K K K K K K K K K K K K K K K K K K K K K K K K K K K K K K K K K K K K K K K K K K K K K K K K ",
"K K K K K K K K K K K K K K K K K K K K K K K K K K K K K K K K K K K K K K K K K K K K K K K K K K K K K K K K K K K K ",
"K K K K K K K K K K K K K K K K K K K K K K K K K K K K K K K K K K K K K K K K K K K K K K K K K K K K K K K K K K K K ",
"K K K K K K K K K K K K K K K K K K K K K K K K K K K K K K K K K K K K K K K K K K K K K K K K K K K K K K K K K K K K ",
"K K K K K K K K K K K K K K K K K K K K K K K K K K K K K K K K K K K K K K K K K K K K K K K K K K K K K K K K K K K K ",
"K K K K K K K K K K K K K K K K K K K K K K K K K K K K K K K K K K K K K K K K K K K K K K K K K K K K K K K K K K K K ",
"K K K K K K K K K K K K K K K K K K K K K K K K K K K K K K K K K K K K K K K K K K K K K K K K K K K K K K K K K K K K ",
"K K K K K K K K K K K K K K K K K K K K K K K K K K K K K K K K K K K K K K K K K K K K K K K K K K K K K K K K K K K K ",
"K K K K K K K K K K K K K K K K K K K K K K K K K K K K K K K K K K K K K K K K K K K K K K K K K K K K K K K K K K K K ",
"K K K K K K K K K K K K K K K K K K K K K K K K K K K K K K K K K K K K K K K K K K K K K K K K K K K K K K K K K K K K ",
"K K K K K K K K K K K K K K K K K K K K K K K K K K K K K K K K K K K K K K K K K K K K K K K K K K K K K K K K K K K K ",
"K K K K K K K K K K K K K K K K K K K K K K K K K K K K K K K K K K K K K K K K K K K K K K K K K K K K K K K K K K K K ",
"K K K K K K K K K K K K K K K K K K K K K K K K K K K K K K K K K K K K K K K K K K K K K K K K K K K K K K K K K K K K "
};
