/* XPM */
static char *_472_c44e01fb73719b3acb68c8441fbbb25a86d462f38612c1ba011fd0a606a0b726[] = {
/* columns rows colors chars-per-pixel */
"60 60 32 1 ",
"  c #1D2B16",
". c #3E3E3E",
"X c #2A2A2A",
"o c #4A904B",
"O c #223E26",
"+ c #33613E",
"@ c #152518",
"# c #400E0E",
"$ c gray37",
"% c gray26",
"& c #8E8E8E",
"* c #CA1D1C",
"= c #891C1A",
"- c #621412",
"; c #3B3E3A",
": c #190807",
"> c #477C52",
", c #818181",
"< c gray33",
"1 c #62A363",
"2 c #447A52",
"3 c #1C2E1F",
"4 c #2D4E33",
"5 c gray23",
"6 c None",
"7 c black",
"8 c black",
"9 c black",
"0 c black",
"q c black",
"w c black",
"e c black",
/* pixels */
"666666666666666666666666666666666666666666666666666666666666",
"666666666666666666666666666666666666666666666666666666666666",
"666666666666666666666666666666666666666666666666666666666666",
"666666666666666666666666666666666666666666666666666666666666",
"666666666666666666666666666666666666666666666666666666666666",
"666666666666666666666664444444444446666666666666666666666666",
"666666666666666666666OO4+++++2222+4OO66666666666666666666666",
"666666666666666666663OO+222oo11o>+24OO6666666666666666666666",
"66666666666666666663OO+2211o111ooo2+4OO666666666666666666666",
"666666666666666666O4422+o111111oooo>2+4366666666666666666666",
"66666666666666666344422>11111111o111>24436666666666666666666",
"66666666666666666O4O++o1111111111111>++4O6666666666666666666",
"66666666666666663O4O+2o11o1111111111o+24O3666666666666666666",
"6666666666666666@344+2111111111111111>2+4O666666666666666666",
"6666666666666666@O4+221111111111o11ooo244O 66666666666666666",
"6666666666666666@O4+2+>111111111111oo1>+4O@66666666666666666",
"6666666666666666344+2211111111o111ooo1>+4O@66666666666666666",
"6666666666666666344++>1o>o1o>ooo>11oo>244O@66666666666666666",
"6666611oooo116643O4++>>>oooo11111oo11+++43@66611oo1166666666",
"66661o>22222>2633342+++ooo>2+++++ooo1>4+43@66oo>22>o11666666",
"6661o2+4444++2+3334+4222o+4++oo>+42o22++O33+222++++22o166666",
"666o>+O;5XOO44433OO4+2+>++>o2++2>>+2>4++OO34+44O33O4+2166666",
"666>+O%<%X<<;33O3OO424+++2+2>>>>>++42+44OOO3OO;%%X%;O+>16666",
"66624%<$%X>>1+O33O444444+4o>+++++>2++24O4OO33>$$<X<$;42>6666",
"6664O<$,<>o>224O334OO+4++2;;%%%%%;++++OOOO342>o1>X$,$%+26666",
"666OX$,,>++444OOO3OO3O4O4;%<$<<$<%;444OO33O44+++2>$,,%O66666",
"66665$<2+4OO33OO433O3333.<$<----<$%;33O333O3O53X42+%$%366666",
"666+X%2+43.%%4+3OOOOOO33%$<-====-<<%33O3O3344X%<;42+%5466666",
"66+>2++OO5.%<44O33OO333O+$5=*#:*=#$+OOOOO3O4+<%.5X422++16666",
"66444O33...$%OOOO3OO344O422$=##=>>2+4OOOO3OOO%$%5<3O++226666",
"666O33$555.$$;33333O41o+4+++oooo++2+O2>OO33O3$$%X%X%3OOO6666",
"66666$$555.$,%33333O+1oo>+>24444+>++o11OO3333,$%5%X$<<366666",
"6666o+%5...$$$666633+2OO+oo>o>>>>+++++>O3333O,$%5%X<$1666666",
"66662;$5...$<+6666634+OO342o>>>o>2OOO4+O3366+$$%5%X$O2o66666",
"6666;$$5<<%$$+66666OO44OXX%+>>>>4;3X4+4O3666+$$.<<.<$4666666",
"66666,,%<<%,$466666634++3 ,.<O3<;,33++43666642,%<<.$,$666666",
"66666,$%%%%,$666666664++O ; ,O ,;<3O+4O666666<,%%%.$,$666666",
"66666$$%%%%,$6666666634+2+.$3< 3O%O2+O6666666$$%%%.$$,666666",
"66666,$%<<%,,666666666O+2>2<<$$<;<>+O66666666,,%<<.$,,666666",
"66666,$%%%%,,6666666666O+222+<<+2224666666666,,%%%.$,,666666",
"66666$$%<<%$$666666666664+++2>>>++46666666666,$%<<.$<,666666",
"66666$$%66%$$66666666666644++>o>+446666666666,$%66.$<,666666",
"66666$$%66%,$66666666666666444444666666666666,$%66.$<,666666",
"66666,,%66%,,66666666666666666666666666666666,,%666$,,666666",
"666666,6666,6666666666666666666666666666666666,6666$,6666666",
"666666666666666666666666666666666666666666666666666666666666",
"666666666666666666666666666666666666666666666666666666666666",
"666666666666666666666666666666666666666666666666666666666666",
"666666666666666666666666666666666666666666666666666666666666",
"666666666666666666666666666666666666666666666666666666666666",
"666666666666666666666666666666666666666666666666666666666666",
"666666666666666666666666666666666666666666666666666666666666",
"666666666666666666666666666666666666666666666666666666666666",
"666666666666666666666666666666666666666666666666666666666666",
"666666666666666666666666666666666666666666666666666666666666",
"666666666666666666666666666666666666666666666666666666666666",
"666666666666666666666666666666666666666666666666666666666666",
"666666666666666666666666666666666666666666666666666666666666",
"666666666666666666666666666666666666666666666666666666666666",
"666666666666666666666666666666666666666666666666666666666666"
};
