/* XPM */
static char *_3194_e24dd73dcfd94672afde7124d4c7bc8fa99540272ff616f3f9c9c8beafb32d41[] = {
/* columns rows colors chars-per-pixel */
"60 60 64 1 ",
"  c #1D2B16",
". c #3E3E3E",
"X c #4A904B",
"o c #223E26",
"O c #2A2A2A",
"+ c #2EB8C7",
"@ c #33613E",
"# c #BDF3F4",
"$ c #152518",
"% c #400E0E",
"& c gray37",
"* c #8E8E8E",
"= c gray26",
"- c #CA1D1C",
"; c #2C4C32",
": c #891C1A",
"> c #621412",
", c #3B3E3A",
"< c #190807",
"1 c #477C52",
"2 c #D7F2F2",
"3 c #447951",
"4 c #1F3423",
"5 c #203123",
"6 c #41734D",
"7 c #61A162",
"8 c #2A4830",
"9 c #243326",
"0 c gray23",
"q c #437851",
"w c #5F9D5F",
"e c #1D2F20",
"r c #2C4D32",
"t c None",
"y c #1D2C17",
"u c #5F9E60",
"i c #3E6F4A",
"p c #2E4E34",
"a c #2F4E34",
"s c #233726",
"d c #1D3121",
"f c #29462D",
"g c #1D3020",
"h c #2F4E35",
"j c #314E36",
"k c #1E3021",
"l c #273E2B",
"z c #2A482E",
"x c #20321B",
"c c #233326",
"v c #1E2F21",
"b c #1E3122",
"n c #2B4A31",
"m c #223225",
"M c #41744E",
"N c #437951",
"B c #1E2C17",
"V c #818181",
"C c gray33",
"Z c #62A363",
"A c #447A52",
"S c #1C2E1F",
"D c #2D4E33",
"F c black",
/* pixels */
"tttttttttttttttttttttttttttttttttttttttttttttttttttttttttttt",
"tttttttttttttttttttttttttttttttttttttttttttttttttttttttttttt",
"ttttttttttttttttttttttttDD;n;DDDDDrttttttttttttttttttttttttt",
"tttttttttttttttttttttoofj@@j@iiii@poottttttttttttttttttttttt",
"tttttttttttttttttttt4oohMM@N1wwX1iinootttttttttttttttttttttt",
"ttttttttttttttttttt4of@MMXXXwZwXX1iizofttttttttttttttttttttt",
"ttttttttttttttttttsn;iM@1ZZZZZuXXXX1ij;Stttttttttttttttttttt",
"tttttttttttttttttSfrhqM3uZZZZZZwXwuw1ihfSttttttttttttttttttt",
"ttttttttttttttttt4rfji1uZZZZZZZZ7ZZ7qi@r4ttttttttttttttttttt",
"ttttttZ7wwutttttSf;f@6XZZXuZZZZZZZZuX@qhfStttttttttttttttttt",
"tttttwX1AA1XXttt$4zziNuZZu7ZZZZ77ZZ7wNq@;4ttttwXXXXwZttttttt",
"ttttw1q@@@@iqAid$4nj6MwZZZZZZZZwXZZXwXAhzsStt1AMMMM31utttttt",
"tttu16@zosf8@@@4$on@MiX7ZZZZZZZ77ZwXXw1hns$@Mi@rzz;@A1Zttttt",
"tttX6hlC.&=,sfo4SfDiq6Xw7ZwZZZZZZZXXXZ1@no$fjnos0v,ljqXttttt",
"tttqjlCC=*CC1fSsdn8@@1uXXX7ZZwXXZZuXXXMn;o$gbl=CC*C=sh1Xtttt",
"tttilC&V=@wwXAjsSolj@1XNXZw1AAAA1wZZw@iphs$sjww1CVCV=,iAtttt",
"tttflCVV&1q@@@DfS4hi@@iXZw1wuuuuX1XuZ1j@jb4Di31XXj&V&=zttttt",
"ttttl&&&1j;8oosoS4h@hiqw1Xw1MMMM3Xw1X1i@l4blnllp@1C&V=sttttt",
"ttt@O=@M@ll00lj4Slfj@M@1X1@@@nz@@@qXqji@lsSosO0=l@i=C0sttttt",
"tttMn@Mjf9=CC@@selljijj16@1XX11wXi@qX@j;sfb@i.C=,l@MC=;ttttt",
"tt@q6@h@++A=Clfoslnphr@ijXMi@ii@i16h1Mnnfflf;CCC+*C@M1qwtttt",
"ttDfl4=V+#*&C9sdss8fs@@r@i1X@ff@X1@@i38;ofsl4C&&#++58hijtttt",
"tttt.VV+++1V*=SSSdfl4@hiaX11XXXX11Xji@fseeSeSV&&+*+&ledttttt",
"ttttt*&+##V**=StSSglSs@nMih8jii@88@6@hfsSSSSSV*V#++&*Vtttttt",
"ttttXpC+##*&&Cttts4lolSs;l0>:>>:>09lsssSlSSStV*V#++=@Xtttttt",
"tttt@=&*++A&Cittt4ls4bs5j=%:-%<-:0=,gssssSStiC&&+V+&=@Xttttt",
"tttttV&+##*&1@tttSlognsl@X@>-%<:>@X@lslllStt@1V&#++&VCtttttt",
"tttttVV*++VV&ttttS4l8X1hh@i1111X1i@@f@6llStttjV&+*#&V&tttttt",
"ttttt*V*++V**tttttSliwwX6i1X6jh@i1qjXw7llSttt&*&+*#&*&tttttt",
"tttttV&*##*VVtttttSg@qf8@X1qXXwX1@@i@@1lsttttVV&#++&VVtttttt",
"tttttVV*##*VVttttttSh@zfs@1w3@i@1XpdsD@lSttttVVV#++&VVtttttt",
"ttttt*VV++VV*ttttttlljpf9s8@XXX1@l5lf@poSttttV*V#*+&*Vtttttt",
"ttttt***++V**ttttttt4j@l5 V==lo=,VBB@inStttttV+&+V+&*Vtttttt",
"ttttt***##1**tttttttt8rn  = Vl V,&  @jottttttV+&##+&*Vtttttt",
"tttttVVV##*VVtttttttt4;j    =  =  B4@f4ttttttV*&##+&*Vtttttt",
"tttttVV+##+VVtttttttttl@z         5jilttttt+tVV*##+&V*tttttt",
"tttttt++##++t+ttttttttS@M@,& =  s,si@tttttt++t+++#++++tttttt",
"tttt++++##++++tttttttttpA13CC&&Cl@1@Dttttttt++++##+#++tttttt",
"ttttt++###+++ttttttttttt@i1i@C=@iA6jtttttttt++++####+ttttttt",
"ttttttt++#++ttttttttttttD@@@1XX1@@jtttttttttt+++###+tttttttt",
"ttttttt++#++tttttttttttttDhi@116@jDtttttttttttt++#++tttttttt",
"ttttttt++#+++tttttttttttttDDDDDDDtttttttttttttt++++ttttttttt",
"ttttttt+++++tttttttttttttttttttttttttttttttttttt++++tttttttt",
"ttttttt++++tttttttttttttttttttttttttttttttttttt+++++tttttttt",
"ttttttt+++tttttttttttttttttttttttttttttttttttttt++++tttttttt",
"ttttttt+++tttttttttttttttttttttttttttttttttttttt#++ttttttttt",
"ttttttttt#+ttttttttttttttttttttttttttttttttttttt++++tttttttt",
"ttttttt++#+ttttttttttttttttttttttttttttttttttttt++++tttttttt",
"ttttttt++#ttttttttttttttttttttttttttttttttttttt+#++ttttttttt",
"tttttttt+#ttttttttttttttttttttttttttttttttttttt+##+ttttttttt",
"ttttttttt++ttttttttttttttttttttttttttttttttttttt+++ttttttttt",
"ttttttttt++t+ttttttttttttttttttttttttttttttttttt+++ttttttttt",
"tttttttt++ttttttttttttttttttttttttttttttttttttt+++++tttttttt",
"ttttttt++##tttttttttttttttttttttttttttttttttttt+++++tttttttt",
"ttttttt+#++++tttttttttttttttttttttttttttttttttt+#+++tttttttt",
"tttttttt+#+t+tttttttttttttttttttttttttttttttttttt++ttttttttt",
"ttttttttt+tttttttttttttttttttttttttttttttttttttttttttttttttt",
"tttttttttttttttttttttttttttttttttttttttttttttttttttttttttttt",
"tttttttttttttttttttttttttttttttttttttttttttttttttttttttttttt",
"tttttttttttttttttttttttttttttttttttttttttttttttttttttttttttt"
};
