/* XPM */
static char *_7500_10c22678c13a9c6dbf775f518042b72276bfdaa612d938f716be18336f29abbd[] = {
/* columns rows colors chars-per-pixel */
"60 60 64 1 ",
"  c #1D2B16",
". c #3E3E3E",
"X c #4A904B",
"o c #223E26",
"O c #2A2A2A",
"+ c #2EB8C7",
"@ c #33613E",
"# c #BDF3F4",
"$ c #152518",
"% c #400E0E",
"& c gray37",
"* c #8E8E8E",
"= c gray26",
"- c #CA1D1C",
"; c #2C4C32",
": c #891C1A",
"> c #621412",
", c #3B3E3A",
"< c #190807",
"1 c #477C52",
"2 c #D7F2F2",
"3 c #447951",
"4 c #1F3423",
"5 c #203123",
"6 c #41734D",
"7 c #61A162",
"8 c #2A4830",
"9 c #243326",
"0 c gray23",
"q c #437851",
"w c #5F9D5F",
"e c #1D2F20",
"r c #2C4D32",
"t c None",
"y c #1D2C17",
"u c #5F9E60",
"i c #3E6F4A",
"p c #2E4E34",
"a c #2F4E34",
"s c #233726",
"d c #1D3121",
"f c #29462D",
"g c #1D3020",
"h c #2F4E35",
"j c #314E36",
"k c #1E3021",
"l c #273E2B",
"z c #2A482E",
"x c #20321B",
"c c #233326",
"v c #1E2F21",
"b c #1E3122",
"n c #2B4A31",
"m c #223225",
"M c #41744E",
"N c #437951",
"B c #1E2C17",
"V c #818181",
"C c gray33",
"Z c #62A363",
"A c #447A52",
"S c #1C2E1F",
"D c #2D4E33",
"F c black",
/* pixels */
"tttttttttttttttttttttttttttttttttttttttttttttttttttttttttttt",
"tttttttttttttttttttttttttttttttttttttttttttttttttttttttttttt",
"tttttttttttttttttttttttfDD;nDjjjjD;otttttttttttttttttttttttt",
"tttttttttttttttttttttoon@i@i6111qi@oottttttttttttttttttttttt",
"ttttttttttttttttttttso;@A11XX7uXXii@ootttttttttttttttttttttt",
"tttttttttttttttttt4of@MM67uu7ZwXXXN6@ofttttttttttttttttttttt",
"ttttttttttttttttttlDjqi@XZZZZZ7XXXXXN@Dstttttttttttttttttttt",
"ttttttZwXXwZttttt4nzp63wZZZZZZZZw7ZZq6@nSttttttZZZZZtttttttt",
"ttttZw11AAA1XttttoDf@iXZZw7ZZZZZZZZu1iiDstttttX1111X7ttttttt",
"tttZXAip;;r@6qi4oonf@qwZZXuZZZZZZZZ7X@q@n4t@AAM@@@@MAwtttttt",
"tttw1@889vlonjhSS4zriNwZZZZZZZZwwZZwwXN@nssji@rzoofj63uttttt",
"ttt1@8,C=*C=ss4s$on@6iwZZZZZZZZwwZ7XXXADzsSsnfsl=C=lf61Ztttt",
"tttMj,C&=*&1X@s4$or@q617ZZZZZZZZZZwXXZ1@;o$Sv@C&C*CClnqXtttt",
"ttt@lC&V=1XX1Mhle;DiiiuXwwwZZZZZZZwXXw1hfoSfiXXwqC&VC.@Atttt",
"tttll&VV16@jjh8ldflj@XwX1wZwXX11wZ7wXii;podD@ii316&VV=lttttt",
"tttt0&CC6DzlSSSog4Di@Mi1Z711XXXXA1uZZi@@@4$sfsv5j1@CV=Sttttt",
"ttt@9,iihs,=.j@gy4h6@@qXwXXwXXXXXw1XZX@@feSn,O=Clj6@=0lttttt",
"tt61iiif&&==Cj;ogsDj@qiX1wXi@@@@@3X11@i@lsSp@CC=&&pM6@@Ztttt",
"tth@@;oA++VC=lfs4fl@@@p11@@11i@X1j@11@@jsosll=&&+*V8@q11tttt",
"ttDfsvC*##*&&l4S4oljif@M@1X13XX1A1i@Xi;;lf4og&&&#++,ll@8tttt",
"ttttC*V+#+1V*=SSel;;l@@@@1@i8@@hiiihiA88ffSSSVV&#*+&&=Sttttt",
"ttttw1C+++*V*CttS4zls@8@@6XwX66XwX1ji688soSSsV+V#*#C*Vtttttt",
"tttt1l&+##V&&ittSSslef@@iXi@i116i@36@jlsSSStt&&&#++Cl1tttttt",
"ttttjC&*++A&&itttsSl4ofoi8sOl88l%9l@pffgsSSti&&C+V+CCjtttttt",
"tttttVV+##*V&nttt4olosb4m=0>-:>-:.=ldgsgoSSth1V&++#&V&tttttt",
"tttttVV*##VVVttttdl4bs44@C0:-%<-:0C@4solsSttt=*&++#&*&tttttt",
"ttttt*V+++V**ttttSolsijl@i1X&,,&X1i@l4nllSttt&*&+*#&*Vtttttt",
"tttttV&*+#*VVtttttSl@uwqj@ii3111@i1p@XXlfStttVV&#*+&VVtttttt",
"tttttVV*##VVVtttttSsiX66111XX6i1X1@iXXwloStttVVV#++&VVtttttt",
"ttttt*VV++V**ttttttS@@f;f3X1i1Xii3@jl8ilgttttV*V#V+&*Vtttttt",
"ttttt***++***ttttttsz@loSliX713XX@sssjjlSttttV+&+V#&*Vtttttt",
"ttttt***##1**tttttttsj@l95C;iii@lC59jihstttttV+&##+&*Vtttttt",
"tttttVVV##*VVtttttttSnjl  &,&s &=V  @@ltttt+tVV&##+&VVtttttt",
"ttttt*V+##+**++ttttttlrj    &9 &9, y@84ttttt+*V++#+V*+t+tttt",
"tt++t+++##++++tttttttSnhx         vf@ltttttt++++###+++++tttt",
"ttt++++###+##+tttttttt4@@ 9,      v@@tttttt+++#+#22###+ttttt",
"ttt+++2#######++ttttttt@31j&.&=x,C@6htttt++++#2#2222#+++tttt",
"ttt++##22222#+++tttttttD661j=&&ClM1@tttttt++++222222##++tttt",
"tt+++##2222##+t++tttttttjii313311i@htttttt++#+##2222##+++ttt",
"t+++++##222##++t+tttttttDD@@@iii@@Dttttttt++++++#22###++tttt",
"ttt+++##22###++t+ttttttttDD@@66ijDttttttt+++++++#2##++#++ttt",
"tt++++###2###+++ttttttttttttDDDDtttttttttttt++++#2#+++++tttt",
"ttt+++###2#+++++tttttttttttttttttttttttttttt++++#2#+++++tttt",
"ttt++++++##+++t+ttttttttttttttttttttttttttt+++++#2#+++++tttt",
"ttt++++++##+++t+ttttttttttttttttttttttttttt+++t++2#++t+ttttt",
"ttt++tt+###+++t+ttttttttttttttttttttttttttt+t+t++##++t+ttttt",
"ttttt++++##++tttttttttttttttttttttttttttttt+t++++##++ttttttt",
"tttttt+++#+t+ttttttttttttttttttttttttttttttttt+++#+++ttttttt",
"ttttt++++#+t+ttttttttttttttttttttttttttttttttt+++#++tttttttt",
"ttttt++++#+t+tttttttttttttttttttttttttttttttttt+##+t+ttttttt",
"tttttt+++#+t+tttttttttttttttttttttttttttttttttt+++#++ttttttt",
"ttttttt++#+tttttttttttttttttttttttttttttttttttt+++#+tttttttt",
"ttttttt++++ttttttttttttttttttttttttttttttttttttt++++tttttttt",
"ttttttt+++++tttttttttttttttttttttttttttttttttttt++++tttttttt",
"tttttttt++++tttttttttttttttttttttttttttttttttttt+++ttttttttt",
"tttttttt++tttttttttttttttttttttttttttttttttttttt+++ttttttttt",
"ttttttttt++ttttttttttttttttttttttttttttttttttttt+++ttttttttt",
"ttttttttt+ttttttttttttttttttttttttttttttttttttttt+tttttttttt",
"ttttttttt+ttttttttttttttttttttttttttttttttttttttt+tttttttttt",
"tttttttttttttttttttttttttttttttttttttttttttttttttttttttttttt"
};
