/* XPM */
static char *_773c437f2c64784edc9f67e36a93650e8Xk6NofyQ7UGBSn_6[] = {
/* columns rows colors chars-per-pixel */
"30 29 8 1 ",
"  c None",
". c #FD0046",
"X c #DA1555",
"o c #FF8931",
"O c white",
"+ c #FF3100",
"@ c #FB2243",
"# c black",
/* pixels */
"                  o@oo        ",
"          o@    @Xoo+.        ",
"       oooo@.  @X o@ooo       ",
"       oooX @o@  Xo@oo@       ",
"    @ o@oo         oooo@      ",
"  ..oo.Xo  o          o@o     ",
"  .ooXX    oo      o    @oo   ",
"  oooo o X  o           oo+   ",
"   oo OX      o         ooo@  ",
"   @o oo              oo oo@o ",
"  @o    o             o  +oo@o",
" .oo  o     o  oo  oo o   .oo ",
"o+oo                 o    @.o ",
"@o oo   oo    oo  o   o   +.  ",
" @     ooo ooo        X  o@.  ",
".+o o   o   o  o      o Xooo  ",
"+oo   oo        oo      oo+o  ",
"+o+ oo            o   OOooo@  ",
"@o+ @o      o   o   ooOOXo+   ",
"oo+    o             oOo@..   ",
" oooo               OOo  .@   ",
"  @o@          ooOoOOOoo.@    ",
"  .@o oooo        OOOo oo.    ",
"  o@ooooooo  o    oooo@o@o    ",
"     ooo+oo@@oo @ oo+oooo     ",
"           o@oo+@oo +oo+o     ",
"            .+oo Xooooo.o     ",
"            o .ooooo@o        ",
"               ..@o@o         "
};
