/* XPM */
static char *_773c437f2c64784edc9f67e36a93650e8Xk6NofyQ7UGBSn_1[] = {
/* columns rows colors chars-per-pixel */
"51 50 8 1 ",
"  c None",
". c #FD0046",
"X c #DA1555",
"o c #FF8931",
"O c white",
"+ c #FF3100",
"@ c #FB2243",
"# c black",
/* pixels */
"                  ..........                       ",
"                 ..+@@@@@@@.                       ",
"                 .++@@+++@+.....                   ",
"                .@@@oOOOOo@@+++.......             ",
"              ..@++oOOOOOo@++@@++++++.             ",
"          ......@@.oOOOOOo@++@@@@++@++.            ",
"          .+@@@+@@@oOOOOO@@+oOO++++@++.            ",
"         ..@++@@@@@++.OOo+@OOOOooo+oo@..           ",
"        ..+@++ooooo++@@OO@oOOOOOOOoOOO@.@...       ",
"        .+@@@+OOOOOOo@@@o+OOOOOOOOOOOOO+++@+.      ",
"        .+@+oOOOOOOOOo+++@oOOOOOOOOOOOOO++@+..     ",
"       ..@+@oOOOOOOOOOo+@@@oOOOOOOOOO@OOO@+++.     ",
"    .....++oOOOOOOOOOOo@OO@@oOOOOOOOOOOOOo+++.     ",
"   ..+@+..+oOOOOOOOOOOo@OOo+oOOOOOOOOOOOOOo@@.     ",
"  ..++@@+..oOOOOOOOOOO +@o++oOOOOOOOOOOOOOo+@.     ",
"  .+@@@@+++.oOOOOOOOOO +@.@ OOOOOOOOOOOOOOo++.     ",
" .+@@@@@@++..oOOOOOOOO o oo OOOOOOOOOOOOOO@@@.     ",
"..@+@@+Oo..o+++OOOOOO O   O    OOOOOOOOOOo@@@@     ",
".+@@+@OOOOoo+oOOOO OO O   OO OOOOOOOOOOOOo++@.     ",
".++++@OOOOOOOOOOO OO O       O   OOOOOOOO++@@..    ",
".++++OOOOOOOOOOOO.   OOOOO     O   OOOOOOo@@+++.   ",
" .+++OOOOOOOOOOOO. O   OOO          OOOOOOO@@@+.   ",
" .+@+oOOOOOooOOOOO    O            OOOOOOOOO@@@..  ",
" ..++@OOOOOOOOOOOO            O O  OOOOOOOOO@@@+.  ",
"  ..++ooOOOOOOOOO       O          OOOOOOOOOOo@+.. ",
"  ....@@oOOOOOOO       OOO    o O   OOOOOOOOOo+++. ",
"...+@@@.+OOOOOOO         O O       OOOOOOOOOOo+@++.",
".+@@@oOOOoOoOOOOO  O      O          OOOOOOOOo++@+.",
".+@@OOOOOOOOOOOOO                  O OOOOOOO+.+@@+.",
".+@oOOOOOOOOOOOO   O    O        o.  OOOOOOO+@+@@@.",
".+@oOOOOOOOOOOOO   OO O  O O     ..  OOOOOOo@@++@@.",
".@@oOOOOOOOOOOOOO          O    +.. o OOOo+@@@@++..",
".@@@OOOOOOOOOOOOOO  O  OO     O++@+++ oo+.@@@+++.. ",
".@+@oOOOOOOOOOO OOO          ++..+@++ ++++@++@@..  ",
".@+oOOOOOOOOOOO+oOO   OO   OO@++.  O@+@@++@@@@.    ",
".@+@oOOOOOOOOOO+  +O   O   O +@++ OOO@oooo@@@@..   ",
".@@@oOOOOOOOOOo +@@OOOO     o@@@ OOOOOOOOOo++@+.   ",
".@@@@ooOOOOOOo@@+++OOOOOOOOO+++ OOOOOOOOOOO++@+.   ",
"..+++@@oOOOOO+@+ @ oOOOOOOOo.+OOOOOOOOOOOOO++@+.   ",
" ...+@+++++@@@+ooo@oOOOOOo. +@OOOOOOOOOOOOO+@+..   ",
"   ...@@@@++oooOOOoooOOOo+@++@+OOOOOOOOOOOO@@+.    ",
"     ..++@.+oOOOOOOO++++++@@@++OOOOOOOOOOOo@+..    ",
"      .++@.@oOOOOOOO++..+@@@@+@oOOOOO@oooo+@+.     ",
"      ..+.@@oOOOOOOOO@+.++@@@++@++@@+@@++++@@.     ",
"       .+@@@@OOOOOOOOo+@++@+@@+..@@+@@+++++++.     ",
"       .@@@@@oOOOOOoo++@++++@+++++@+.++.+++++.     ",
"       ...+@@+OOOOO++@+.....+@@@++++@+++++++..     ",
"         ...+@++++++@+..   ..@@++@@@++++++...      ",
"           ..@@@+@@@+..     .@@+@@@++......        ",
"            ..........       @........             "
};
