/* XPM */
static char *_773c437f2c64784edc9f67e36a93650e8Xk6NofyQ7UGBSn_4[] = {
/* columns rows colors chars-per-pixel */
"56 55 8 1 ",
"  c None",
". c #FD0046",
"X c #DA1555",
"o c #FF8931",
"O c white",
"+ c #FF3100",
"@ c #FB2243",
"# c black",
/* pixels */
"                 XXXX           @XXXXXX                 ",
"               XXXX XXX       XXXXXX XXX                ",
"              XX@XXX     X@   @  X@XXXX@@   @           ",
"          XXXXXXXX  @ @   @      @@@@X@@@@@ @           ",
"        XXXX@@XX@@@@@@  @ XX  @  @@@@@@@@@@@@ X         ",
"       XXXXX@X@@@@o@@@@@ @@@    @@@@@@@@@@@@@XX@        ",
"       XXXXXXX@@@oo@@  @ @@@  o@ o@@@@@@@@@@@XX@        ",
"      X@XX@@XX+@@+@@   ++ @@o o o oo +o@@+@@@Xoo        ",
"    XXXX@@@@@@ o + +++ ooo @ o +ooooooo@oo @@X          ",
"    XXXX@@@+@@   @@ @@@o+o   oo oooo oo@@o  @XXX oXX    ",
"   XXXX+@@@ @  o  oo @@+o@ o oo OoOooooo @@@@@@XXXXXXX  ",
"    XXX@@@@ +   @@oo  + oooo@  o oOO oooo +@ @@@XX@@X   ",
"    @XX@@@@ o +@oooo+  @ +o   Ooo ooOo  o @@ @@@@@@@@   ",
"    @@XX@   ooo+ooooo  oooooooO  OooOoo   oo    @@@@@   ",
"   XXXX @ o   ooo oo OOO ooOOOOOOOooOOOo  ooo  @@@@@XX  ",
"  XXX@@X@@@@ oooOoooooo  ooOOOOOOOOOOOooo o++@  @@@@XX  ",
" oXXX@@X@@+@ooOOooooooOOOOooooOOOOOO   oooooo   @@@@@X  ",
" X XXoo@@@@@oooOOooooooOOOOOOOOo OOOOOOoooooo@  @@@ @X  ",
" X@XX@@@+@@+oooooooooO  oOOOOO oooOOOOOOO ooooo @@@XXX  ",
" XXX@@@@@@ooo oooo o  @+oOOOOOoOOOOOOoOOooOooo+ @@XXXX  ",
"  XXX@@@@@ooooooOooOOO  ooOOOOOOOOOOOOoOooOo o  @@XXX   ",
"  XXX@@+@@ oooooOOooOO    OOOoOOOOOooOooooOO ooo@@XXX   ",
"  XXX@@@@  ooooooOoOOOO ooOOoOOOOOooooooo Ooo @@@XXX    ",
"  XXXX @@ @ oooOOooOOO  oOOOoooOOOOOOooooOoo @@@XXX     ",
" XXXXXX   @@oooOOOOO@o ooOOOo  OOOOOOOOOOOooooo  XX@    ",
"   X@XX + @@+ o oOOOo  ooOOOOOOOOOOOOOOOO oooo@@@@XX    ",
"  X@X XX  @o@@ oooo@OOOOOOOOOOOOOOOOOoOOO   ooo@@@@ XX  ",
" XXXXX    @ @ @oooOOOOOOOOOOOOOOOOOOOOoOOO  oo++++@  X  ",
"@XXXXXXX     +  O OOOOOOOOOOOOOOOOoooooOOOOOOOoo++o @ X ",
"XXXX@     @@@@oOoOO  OOOOOOOOOOOOOOOOOOOOOOOOOOo+o    XX",
"XXX @  @@@@ @@Ooooo @ OOOOOOOOOOOOOOOOOOOOOOOOoooo    XX",
"XXX  +@o+ooooo ooOoO  OOOOOOOOOOOOOOOOOOOOOOOO Ooo @  XX",
"XXX @+@ o  +    o oo  OOOOOOOOOOOOOOOOOOOOOOOO Oo  @XX  ",
"XXX@ ooo+@ @o @ OoooOOOOOOOOOOOOooOOOOOOOOOOOOoOoo@ XX  ",
" X@@@  @@@oooo ooOoOOOOOOOOOOOOoooooOOOOOOOOO    o@+X   ",
" X    oo@o@+OOooOOOO OOOOOOO ooo  ooOOOOOOOOOoo  +@@@   ",
" X  o o @+ +OOoOOOOO OOOOOOOoo@@@@ooooOOOOOOOO   +@@    ",
"    @   o@o+oOOoOOOOOOOOOOOOoo @@@ +  OOOOOO OOo@@  @   ",
"  @@ o @o@ o+oOoOOOOOOOOOOOOOoooo @oOoOOOOOOooOoo       ",
"  @@  +@o +o+OOOOOOOoOOOOOOOOOooo@oooOOOOOOOooO+ooX  X  ",
"XX@o@  ++ oooooOoooOOOOOOOOOOOOOooOOOOOOOOOOOOoooo@ X   ",
"   o@o    oooooOOOOOOOOOOOOOOOOOoOOOOOOOOOOOOoooo@      ",
"    @ @ @  oOoooOOOOOOoOOOOOOOOOOOOOOOOOOOO oooo+  @    ",
"    @ + @+  OooooOOo++oOOOOOOOOOOoOOOOOOOOoooo  @@+@    ",
"  @@@    @oo OooooooooooOO  OOoooOOOOOOOOO ooo++@+      ",
"   @   @ @ooo OoooOoo Ooo o OOoooooOOOOOOOO o@o@@o      ",
"     @@ +   ooo   O   oooo oo  @     OOoo o+@o@@        ",
"    @@   o    @oo@+ ooo@oo + +@+oooooooo oo@ + @        ",
"     @@@+o+  +o + oooo  + @o   @oo @@   o+  @@@@        ",
"        @@@+@@o @@@o  @+ooo X   @ @o+  +o               ",
"           oo@  @  o   oo@o       @@+@@o    X   @       ",
"              XX+    ++ @@@ X      @ @@    @            ",
"         X          o@  @@ @@    X @ @                  ",
"                        @XXX                            ",
"                         X @X                           "
};
