/* XPM */
static char *_773c437f2c64784edc9f67e36a93650e8Xk6NofyQ7UGBSn_3[] = {
/* columns rows colors chars-per-pixel */
"60 58 8 1 ",
"  c #FEFFFA",
". c None",
"X c #DA1555",
"o c #FF8931",
"O c white",
"+ c #FF3100",
"@ c #FB2243",
"# c black",
/* pixels */
".....................@@XX............oXX....................",
"..................+@@oo@@XX.......+@@@@@@...................",
"................o@ooo.@@@@XX....@@@@@@.@@o..................",
"............X@@o@+ o@@.....@X...X..oo@@oooo...X.............",
"............@@+o+o o..X.X...X......+o++ooooo+.X..X..........",
"..........@@@oooo  ooooo..X.@@..o..+o        oo.@@X.........",
"........X@@ooo        oooo.XXX....o oooooo     oo+@X........",
".........@@oo         o..o.XXX..@o. ooooooo    ooo@X........",
"........@ooo    oooooo...@@.o++.@. .@@.@@ooooo    o@XX......",
"......@@oo    oo.+.@.@@@.XX@.o. .o+@XXXXXXX@.o oo  o@@@.....",
"......@oo    ooo...XX.XXX@XX...  .@XXX.@@XXX..o  o  o@......",
"....X@oo    o.o..@..@@.XX@@X.@.  .@X@@@@@@.XXX+oo@  o@@@....",
"....@@oo   oo.@...XXXX..@.@@@@ .. .@X+.@@@@.XX.  o   o+.....",
"...X.@oo   oo.@.@X@@@@o..X.@@...o  .@XX@..@.XX.oooo  o+.....",
"...o@@o   o...@@X@XXX@@..@@@@@@@o  o@@@@@...@X....o  o+.....",
"..X @+   .o.@...@@@.@X.@@o.@X@@@o+oo@@@o@+..@@@..+o  oo@....",
"..@o@+   ooooo.@XX@@XX@@@..@@XXX@+oo@@+@++@.@@@X..o ooo@.X..",
"..@ @@o  ooooo@@X@@@XX@@@oo@@@@X@+o@@+...@X@X@X...o o+o@....",
"..@ .@o  oo oo@@X@@@@X@@@oo@@@@X@+.@X+ooo@X@XXXo..o o.o@....",
"..@ ooo  oo o@@@X@+@@@@o..+@o@@X.@@XX@@oo@@.XX@XX.o o@@@.X..",
"..X@  oo o o+@@.@@@@.+..oo@@+@@X@@XX@XXX@o@XX@@@@.oo@@@@.X..",
"....o  o ooo@@@X@@@@@ooo..@+@XX@@XXX@@@@XX@@@@.+..oo@o@.X...",
"....oo o ooo.@@X@@@@@+oo....@XX@@XXX@@@@XX@@@+.@@+ o@o+X....",
"....@@o   o..@@XX@@@@@@@@.@@XX@@XXX@@@@@@+@.@@@.ooo@@@......",
"....@@o .  .o.@@XXXX@@@@..@XX@@X@@++++++@@@o@@.oooo@@XXX..X.",
"..X@oo o@...oo@@@@XXXXX@.@@@@XX..o++++++oo@@@@@++..@@o@XXX..",
".X@o  o@@.@.ooo.@.@@@@@..@@oXoooo@@@@@@@@oo.@@@XXXXX@@@@XXo.",
".X@   +.@@..o+oo.@@@@++@@+o  oo@@@XXXXXXX@o...@@@XXXX.@oXXX.",
"@X@   o@....+.o.++++++@@+oo ooo@@XXXXXXXX@@o..@@@XXXX..+.XX.",
"@@oo+oo@@@.....@..o.ooooo  oo+@@XXXX@XXXXX@o oo@@@X@@.X.ooX.",
"@@ o@@o.....X+oo@@@@@.    oo@@@XX@@oo@@XXX@oooo@@@X@....ooX.",
"@@oo@.+..XXXX.oo@@@@@.    oo@@@XX@@ooo@XXX@oooo@@@X@....ooX.",
"@@oo@..@XXXXX@@@.@@@@@.  ooo@@@X@@o@@@o@XXX@oo o.@@X.o..ooX.",
"X@@oo.XXX.@..o....@.@@.  oooo@@@@@@@XXX@XXX@ooo .@@..o@o....",
"X.@o o.X@@@o.  .o.o@@@oooooo@o@@X@XXXXXX@XX@ooo  o@@o.oo.X.X",
".X.@ooo..+oo +@@.+@@@+ooo@@oooo@X@@X@XXo@XX@@@o  ..@o  .....",
".X.@....@+o o@@@@@Xoo+.oo@@@@o.@XX..XXX@@XX@ooo  ..o oX.....",
".X.@..@.@.  .@@@X@X@+o.o@@@@@++@XXXXXX@@@XX@+@oo...ooX......",
"......+...     oXXX@@oo@@@@@XX@@.XXX.@..@X@@XX.@@@oo..X.....",
"....XX.@.  o.@@ @XXXX@o@@@@XXXXXX@@.o@@@X@@XXX@@@@@.........",
"....XX..o  .@@@@@@XXX@@+@@@@X@XXXXXX@@XX@@XXX@@@@X@@@..@....",
"..@@XXX..o .@@@@@@XXXX@oo@@@XXX@XXXXXX@X@@X@@@@@@XX@X.o.....",
".....@XX....@@@@@+@XXX@oo@@@@XXX@@@@@@XXXX@@@@@@@@@ ........",
"......X.o. ..@@@@@@XXX@@@+@@@@XXXX@@@@@@@@@@o  @@@o..X......",
"......X.o.  ..+@@@@@@X@@@@@@XX@@XXXX@@@@@@oo    .. o@o......",
"....XXX....o   o+@@@@@@++@@o..oo@@@@@@@@+oo .    oo@........",
".....X...o.o   .o@@@@@@.o@@. .oo@@@@@@@@@o  o.   o+X........",
".......oX.@...   ...o...@@@@.  ..o.....oo  .@@o  o..........",
"......XX...@....o  oo.@@@+++.@.o          .@XX.o.o..........",
".......XXXXXo..@+.@.@@@+..o.+@...+++.oo...@X..XXXX..........",
"..........XXXXXoX.XXXX..o@@@@.@...o.o@@..X@.................",
".............XXX..X..@...@XXX.......XX@XXX....o...o.........",
"................@@X....@o.XXX.@......X.XX....X..............",
"...........o..........@X..Xo.XX....@.X.X....................",
"..........................Xo o..............................",
"...........................o o@.............................",
"...........................XoXo.X....................X......",
"..........................X..o.oX...X......................."
};
