/* XPM */
static char *_773c437f2c64784edc9f67e36a93650e8Xk6NofyQ7UGBSn_0[] = {
/* columns rows colors chars-per-pixel */
"30 29 8 1 ",
"  c None",
". c #FD0046",
"X c #DA1555",
"o c #FF8931",
"O c white",
"+ c #FF3100",
"@ c #FB2243",
"# c black",
/* pixels */
"           .                  ",
"       @+..o+..  ....         ",
"     ..oo@oXo+@...o...        ",
"    .ooooooOOooo@ooooo        ",
"   .@oooooOOoOOOoooX@.        ",
"  .@oooooOoOOOoOOOOX@Xo..     ",
"....@@OooOoOOOooOXXooooo.     ",
"..oooOooOoOOOOOOOoOOOooo@.    ",
" .oooOOOOoooooOOOOOXOOOo@.    ",
" ooooOOoOOOoooOOOOOOOOOO@.    ",
".@ooooOOOOoOOOOOOOOOOOOo@.    ",
"  .oooOOOOOOOOOOOOoOXOOX+.    ",
"  .@oOOOOOOOoOOOOOOOOOOo@.    ",
"   @OOOOOOOoooOOOOOOoOOOo@@   ",
"  .oOOOOOOOOOoOoOOOOOOOoooX.  ",
" .@@oOOoOOOOOOoOOOOOOOOOOXoX@.",
" .oo+OOOOOOOOOOOOOOOOOOoOooo+ ",
" +ooOOOoOOOOoOOOOOOOOOoOOooo. ",
".@o@OOOooOoOOoOoOOOOOOOOOooo..",
".oo@@OOOOOOOOOOoOOOOOOOOOo@o..",
".o@oooOOoOOooOOOOOoOOOOOo+..  ",
".ooooooOOOOOOOOOoOOooOOO@@    ",
".ooo+ooOOOooOOOooOoOOoOo..    ",
" .oo++ooOOOoOOOoOOOOOOoo+.    ",
" ..@o+o@+ooOOOOOOOOO+oo+.     ",
"    @oooooooXoooooooooo.      ",
"    @o@@o@@@ooo@@@.@o+@       ",
"    ..  .. .@@o........       ",
"           .... .  .          "
};
