/* XPM */
static char *_773c437f2c64784edc9f67e36a93650e8Xk6NofyQ7UGBSn_5[] = {
/* columns rows colors chars-per-pixel */
"51 50 8 1 ",
"  c None",
". c #FD0046",
"X c #DA1555",
"o c #FF8931",
"O c white",
"+ c #FF3100",
"@ c #FB2243",
"# c black",
/* pixels */
"                   ........                        ",
"                  .+  @@@  .                       ",
"                 .++  +++ +.....                   ",
"                  @@oOOOOo @+++.......             ",
"                 ++oOOOOO  ++@@+++ ++.@            ",
"           +@...@@.oOOOOO @+ @@@@++@+++            ",
"          .+   +   oOOOOO@@+ OO++++@++.            ",
"         .. ++ @@  + .OO +@OO Oo  +   ..           ",
"        @.+ ++o  oo +@@OO  OOOO  O OOO . ..        ",
"         + @ +OOOOOOo @@ +O OOOOO OOOOO+++ .       ",
"         +@+oOOOOOOOO +++@  OO OO OOOOOO++ +.      ",
"       ..@+@ OOOOO   O +@@@o   OO   O@OOO@+++.     ",
"      ...++ O OOOOOOOO @  @@o      OOOOOOo+++.     ",
"   ..+  ..+o OOOOOO   o@OO +o    OOOOOOOOOo@ .     ",
"  @.++  +..   OOOOOO  o+@o++ O      OOOOOOo+ .     ",
"   + @   ++. OOOOO OOOo+@.@oOOO       OOOO ++.     ",
"  +    @@++.. OOOOOOOO ooooO      O  OO OO@@ .     ",
"@. +  +O .. +++O   OOOO            O OO O @        ",
"@+    OOOO  +o OO  OOOO   O     OO OOOO   ++@      ",
" ++++ OOOOOOOO O    OOO  O     OOOOOOOO O++  ..    ",
" ++++OOOOOOO  OO . OOO   OOO      OOOO OO   +++@   ",
" @+++OOOOOOO     .OOOO   OOO           OOOO@  +@   ",
"  +@+oOOOOO  O   OOOOO                OOOOOO   .@  ",
" @.++ OOOOOOOOOOO                 O   OOOOOO   +   ",
"  @.++ooOOOOOOO                    O   OOOOOOo@+.. ",
"  @...@ oOOOO O               oOOOOO       OOo ++. ",
"  .+@@@.+OOO O  OO                          Oo+ ++.",
" +   oOOOoOoOOOOOOO                        OO ++ +.",
".+@ OOOOOOOOOO O OO                        O+.+  +.",
".+@oOOOOOOOOOOOOOOO              o.        O+@+  @.",
".+@ OOOOOOOOO OOO            OO  ..         @@++@@.",
".  oOOOOOOOOOO O            OOOO+.. oo   o+@@ @+ .@",
".@ @OOOOO  OO    O       OOOOOO++@++++oo+.@@@+ +.. ",
".@+@ OOOO  O   o O       OOOo++..+@++@++++@++@@..  ",
". + OOOOOO  O  +o        OOOO ++. O @+@@++@@@ .    ",
"  +@oOOOOOO O  ++++       OOO+ ++ O  @ooo @@@@..   ",
"   @oOOOOO    o@+@@        O @ @+O       O + @+@   ",
"@   @o OOOOO  @@+++         +++o           ++@+.   ",
"@.+++@@ OOOO +@+@@@o       o.+            O++@+.   ",
"  ..+ +++++@@@+ooo@      o..+@          OOO+@ .    ",
"   @..@@@@++  o OOo o   o+@++@+        OOOO@@+.    ",
"     @.++@.+ OOOOOOO++++++@@@++        OOO @ .     ",
"       ++@.@ OO OOO ++..+@@@@+@      @oo  +@+.     ",
"      @.+.@@ OO OOOOO@+.++@@ ++@++@@+@@+ ++  .     ",
"       .+@@ @OOOOOOOO +  +@+@@+..@@+@@++++ ++.     ",
"       .  @@@oOOOOO   + ++++ +++++@+.+ .+++++.     ",
"        ..+@ +OOOOO+ @+.....+   + ++@+++++++..     ",
"         @ .+ ++++++@+.@    .@@++@  ++++++.        ",
"           @.@  + @@+..     .@@+   ++..  @@        ",
"            ..........        @.....               "
};
