/* XPM */
static char *_773c437f2c64784edc9f67e36a93650e8Xk6NofyQ7UGBSn_2[] = {
/* columns rows colors chars-per-pixel */
"58 58 8 1 ",
"  c None",
". c #FD0046",
"X c #DA1555",
"o c #FF8931",
"O c white",
"+ c #FF3100",
"@ c #FB2243",
"# c black",
/* pixels */
"                            XXXXXXXX   XXXXXX             ",
"                  XXXX     XXXXXX@XXX XXXXXXXXX           ",
"                XXXX@XXX   XXXXXXXXXX@XXXXXXXXXX          ",
"               XX@XXXXXXXXX@X@@@@@X@XXXX@@@@@@XX          ",
"         XXXXXXXXXX@@@X@XXX@X@@@@@@@@@X@@@@@@@XX          ",
"        XXXXX@@XX@@@@@@@  XXX  @@@@@@@@@@@@@@@@X          ",
"        XXXXX@X@@@@o@@@@  @@@ @@@@@@@@@@@@@@@@XXX         ",
"       XXXXXXXX@@@oo@ oo@@@@@@ o@oo@@@@@@@@@@@XXX         ",
"      XX@XX@@XX+@@+@ @@@+++@@  oooooo@ o@@+@@@XX@         ",
"     XXXX@@@@@@oo@+@+++@ooo@@ oo ooooooo@oo+@@XX          ",
"    XXXXX@@@+@@@   @   @o+o@@ooo oooo@oo@@o@@@XXXXXXXX    ",
"    XXXX+@@@o@@ o@ oo  @ o@@ oooo oO  o   @@@@@@XXXXXXX   ",
"     XXX@@@@o+@ @@@  @@ @oooo  oooo  o ooo + @@@@XX@@XX   ",
"   @  XX@@@@@o + oooo+o@@ +o oo ooooo oooo@@@@ @@@@@@@X   ",
"     X@XX@oo@ooo+oooooooo oooo     oo oooo@oo@ @@@@@@@X   ",
"    XXXXo@oooooo o@oo@   o oOOOO   oo   oooooo@@@@@@@XX   ",
"   XXX@@X@@@@oo o oooooooo o  OOO      ooooo++@@@@@@@XXX  ",
"  XXXX@@X@  @ooO oooooo   Oooo OO    ooooooooo@+ @@@@@XXX ",
"  X@XXoo@@  @oo   oooooo  OOOOOO o      oooooo@o @@@@@XXX ",
"  X@XX@@ +   ooo ooooo oooOOOOO@ooo       oooo o@@@@XXXX  ",
"  XXX@@    ooo@oo o@ooo@+o OOOOo      o  oo ooo+ @@XXXXX  ",
"  XXXX @  @o oo oOoo   o@oo            o oo o o   @XXXX   ",
"  XXXX    @@oo  oO oo  o@@o   o     oo oooo   ooo@@XXX    ",
"  XXXX@@@ oooooooo o    @oo  o     oooooooo ooo  @XXXX    ",
"  XXXXX@@@o@@ooo  oo O @@o   ooo      oooo oo   @XXX      ",
"  XXXXXX@oo@@ooo     @o@oo   o@o           ooooo  XXX     ",
"   XX@XXo+@@@+@  o   ooooo                ooooo@   XXX    ",
"   X@X@XX @@o@@@oooo@                 o   oooooo   @@XX   ",
"  XXXXX@@@@@@@o@ooo                    o   oooo++++@@@XX  ",
" XXXXXXXXXX @@+oo o               Oooooo       oo+ o@@@X  ",
" XXXX@@@XXX@@@@o o  o                           o+o @@@XX ",
" XXX@@   @@@@@@Oooooo@                         oo o@ @@XX ",
"XXXX@@+ o+ooooo@oo o o                         oOoo  @@XX ",
"XXXX@@+@@o@@+ooooo@ooo               OO        oOo@  XXXX ",
"XXXX@@o o+@o@oo@@ ooo            oo  OO         Ooo@oXXX  ",
" XX@@  @@@@oooo@oo o            oooooOO OO   OOOo o@ XXX  ",
" XX@@o oo@o@+  oo    o       oooo@@ooOOOOOOOOOoooo @@@XXX ",
" XX@@o@o @+o+  o   O o       oo@@@@ooooOOOOOOOOooo+@@@XXX ",
" XX@@ @ oo@o+o  o  OO        ooo@ @@+ o OOOOOoOOo @@@@XXXX",
"XXX@@ oo@o@oo+o o  OOOO       oooo @o o  OOOO oOoo@@@XXXXX",
"XXX@@  +@oo+o+    OOOoO        o o ooo       o O ooXXXXXXX",
" XX@o   ++ ooooo  ooOOO         OooO           oooo@@XXXXX",
" X@@o@o@ooo oooo OOOOOOO       OOo            oooo@@@@XXX ",
" X@@@@@@o oooOoooOOOOOO      OOOOO           oooo @@@@XXX ",
"XXX@@@@+o@+ooOoo  O o++ O   OOOOOOo        oooooo@@+@@XX  ",
" XX@@@@ooo@ooOOo ooooooooOOooOOoooO        ooo + @+@@XX   ",
" XXX@@@@@o@ooooO oo ooo oooooOOoooo      OOO  @o@@o@XXX   ",
"  XXXX@@@+oooooo oo oooooooooooo oooooOOoooo @o  @@@XXXX  ",
"  XXX@@@@+o@ooo oo@+oooo@ o  @+@+ooooooooooo@@ o@o@XXXXX  ",
"   XXX@@@+o+  +o++@oooo   o o@@@ ooo@@oooo @@@@@@@@XXXX   ",
"   XXX@@@@@@+@@o @@@o@o@ ooooXXX@   o @@+o@@@@@@@@@XXXX   ",
" XX  XX@@@o@oo@@@ @@o@oooo@o@@X@XXX@@+  oo@@@XX@@@@XXX    ",
" XX   XXXXoXXXXXX+  @ ++@@@@@XXXXXXX   @@@@@@XXX@@XXX     ",
"  X     XXXXXX@@@@@@@o@@@@@@@@@XX XX@X@@@XXXXXXXXXXX      ",
"            X@@@XX@.@@@X@@XXXXXXXXXXXXXXXXXXXXXXXXX       ",
"            XX@@XX@@XXXXXXX XXX  XXXXXXXXXXXXXXXXX        ",
"             XXXXX@@XXXXXX        XXXXXXXX   X            ",
"              XX      XXX           XXXX                  "
};
