/* XPM */
static char *_7973_9c10282a95aa6f21e3c53d8bb3bdd0e2737c9b0846c5073b6cf2fee7b3267b5f_3[] = {
/* columns rows colors chars-per-pixel */
"60 60 32 1 ",
"  c black",
". c #12173D",
"X c #721C2F",
"o c #1D1A59",
"O c #A52639",
"+ c #C43547",
"@ c #DD3745",
"# c #FF695A",
"$ c #FF6675",
"% c #FFAA6E",
"& c #464B8C",
"* c #6B74B2",
"= c #50B9EB",
"- c #FFE091",
"; c #909EDD",
": c #8CDAFF",
"> c white",
", c None",
"< c black",
"1 c black",
"2 c black",
"3 c black",
"4 c black",
"5 c black",
"6 c black",
"7 c black",
"8 c black",
"9 c black",
"0 c black",
"q c black",
"w c black",
"e c black",
/* pixels */
",,,,,,,,,,,,,,,,,,,,,,,,,,,,,,,,,,,,,,,,,,,,,,,,,,,,,,,,,,,,",
",,,,,,,,,,,,,,,,,,,,,,,,,,,,,,,,,,,,,,,,,,,,,,,,,,,,,,,,,,,,",
",,,,,,,,,,,,,,,,,,,,,,,,,,,,,,,,,,,,,,,,,,,,,,,,,,,,,,,,,,,,",
",,,,,,,,,,,,,,,,,,,,,,,,,,,,,,,,,,,,,,,,,,,,,,,,,,,,,,,,,,,,",
",,,,,,,,,,,,,,,,,,,,,,,,,,,,,,,,,,,,,,,,,,,,,,,,,,,,,,,,,,,,",
",,,,,,,,,,,,,,,,,,,,,,,,,,,,,,,,,,,,,,,,,,,,,,,,,,,,,,,,,,,,",
",,,,,,,,,,,,,,,,,,,,,,,,,,,,,,,,,,,,,,,,,,,,,,,,,,,,,,,,,,,,",
",,,,,,,,,,,,,,,,,,,,,,,,,,,,,,,,,,,,,,,,,,,,,,,,,,,,,,,,,,,,",
",,,,,,,,,,,,,,,,,,,,,,,,,,,,,,,,,,,,,,,,,,,,,,,,,,,,,,,,,,,,",
",,,,,,,,,,,,,,,,,,,,,,,,,,,,,,,,,,,,,,,,,,,,,,,,,,,,,,,,,,,,",
",,,,,,,,,,,,,,,,,,,,,,,,,,,,,,,,,,,,,,,,,,,,,,,,,,,,,,,,,,,,",
",,,,,,,,,,,,,,,,,,,,,,,,,,,,,,,,,,,,,,,,,,,,,,,,,,,,,,,,,,,,",
",,,,,,,,,,,,,,,,,, &XOOOOX,,,,,,,,,,,,,,,,,,,,,,,,,,,,,,,,,,",
",,,,,,,,,,,,,,,,,, **OOO++O,,,,,,,,,,,,,,,,,,,,,,,,,,,,,,,,,",
",,,,,,,,,,,,,,,,,,,&*X+OX@$O,,,,,,,,,,,,,,,,,,,,,,,,,,,,,,,,",
",,,,,,,,,,,,,,,,,,, *&@@+X+#O,,,,,,,,,,,,,,,,,,,,,,,,,,,,,,,",
",,,,,,,,,,,,,,XXXX,,**O@@OO+@O,,,,,,,,,,,,,,,,,,,,,,,,,,,,,,",
",,,,,,,,,,,,, O@@@OX =X+@@OX@@O,,,,,,,,,,,,,,,,,,,,,,,,,,,,,",
",,,,,,,,,,,,, &O++++O =O@@@OX+#O,,,,,,,,,,,,,,,,,,,,,,,,,,,,",
",,,,,,,,,,,,,,**.XO+O *&+@+OOO+@O,,,,,,,,,,,,,,,,,,,,,,,,,,,",
",,,,,,,,,,,,,,,&*XX@+X&*O+O@@OX@@O,,,,,,,,,,,,,,,,,,,,,,,,,,",
",,,,,,,,,,,,,,. *OOX++XXXO@@@@OX+@O,,,,,,,,,,,,,,,,,,,,,,,,,",
",,,,,,,,,,,,,&;;**oXX+O*&@@@@OOOXO@O,,....,,,,,,,,,,,,,,,,,,",
",,,,,,,,,,,,,&******&+O*&@+XXXXX..O@O,o&*&,,,,,,,,,,,,,,,,,,",
",,,,,,,,,,,,,%%,  &&&oO&&+O*;:>;**.O+OOo&*&&,,,,,,,,,,,,,,,,",
",,,,,,,,###%%%%%, oo&&oooXo&****&ooXX++OX&&*.     ,,,,,,,,,,",
",,,,,,###%%%--%%@oO ....XO+O.....XOOO@@@+X..XO++++XX,,,,,,,,",
",,,,###%%------%o&.%OXXO+O+OXOO++++++@@OOOOO++++++@$OOO,,,,,",
",,##%%%--->>>--%o*.--OOOXOOOXXXXXX+++OOXOOO+&**&;;*O+#@+X,,,",
"###%%%--->>>>>>%&*XXXXOXXXXX@@@@@@---@XO++O&===*;::=;O@@+,,,",
"###%%%--->>>>>>%&*XXXXOXXXXX@@@@@@---@XO+OOO::=*====;O@@+,,,",
",,##%%%--->>>--%o*.--OOOXOOOXXXXXX+++OOXOOO+*;*&***O+#@+X,,,",
",,,,###%%------%o&.%OXXO+O+OXOO++++++@@OOOOO++++++@$OOO,,,,,",
",,,,,,###%%%--%%@oO ....XO+O.....XOOO@@@+X..XO++++XX,,,,,,,,",
",,,,,,,,###%%%%%, oo&&oooXo&****&ooXX++OX&&*.     ,,,,,,,,,,",
",,,,,,,,,,,,,%%,  &&&oO&&+O*;:>;**.O+OOo&*&&,,,,,,,,,,,,,,,,",
",,,,,,,,,,,,,&******&+O*&@+XXXXX..O@O,o&*&,,,,,,,,,,,,,,,,,,",
",,,,,,,,,,,,,&;;**oXX+O*&@@@@OOOXO@O,,....,,,,,,,,,,,,,,,,,,",
",,,,,,,,,,,,,,. *OOX++XXXO@@@@OX+@O,,,,,,,,,,,,,,,,,,,,,,,,,",
",,,,,,,,,,,,,,,&*XX@+X&*O+O@@OX@@O,,,,,,,,,,,,,,,,,,,,,,,,,,",
",,,,,,,,,,,,,,**.XO+Oo*&+@+OOO+@O,,,,,,,,,,,,,,,,,,,,,,,,,,,",
",,,,,,,,,,,,, &O++++O =O@@@OX+#O,,,,,,,,,,,,,,,,,,,,,,,,,,,,",
",,,,,,,,,,,,, O@@@OX =X+@@OX@@O,,,,,,,,,,,,,,,,,,,,,,,,,,,,,",
",,,,,,,,,,,,,,XXXX,,**O@@OO+@O,,,,,,,,,,,,,,,,,,,,,,,,,,,,,,",
",,,,,,,,,,,,,,,,,,, *&@@+X+#O,,,,,,,,,,,,,,,,,,,,,,,,,,,,,,,",
",,,,,,,,,,,,,,,,,,,&*X+OX@$O,,,,,,,,,,,,,,,,,,,,,,,,,,,,,,,,",
",,,,,,,,,,,,,,,,,, **OOO++O,,,,,,,,,,,,,,,,,,,,,,,,,,,,,,,,,",
",,,,,,,,,,,,,,,,,, &XOOOOX,,,,,,,,,,,,,,,,,,,,,,,,,,,,,,,,,,",
",,,,,,,,,,,,,,,,,,,,,,,,,,,,,,,,,,,,,,,,,,,,,,,,,,,,,,,,,,,,",
",,,,,,,,,,,,,,,,,,,,,,,,,,,,,,,,,,,,,,,,,,,,,,,,,,,,,,,,,,,,",
",,,,,,,,,,,,,,,,,,,,,,,,,,,,,,,,,,,,,,,,,,,,,,,,,,,,,,,,,,,,",
",,,,,,,,,,,,,,,,,,,,,,,,,,,,,,,,,,,,,,,,,,,,,,,,,,,,,,,,,,,,",
",,,,,,,,,,,,,,,,,,,,,,,,,,,,,,,,,,,,,,,,,,,,,,,,,,,,,,,,,,,,",
",,,,,,,,,,,,,,,,,,,,,,,,,,,,,,,,,,,,,,,,,,,,,,,,,,,,,,,,,,,,",
",,,,,,,,,,,,,,,,,,,,,,,,,,,,,,,,,,,,,,,,,,,,,,,,,,,,,,,,,,,,",
",,,,,,,,,,,,,,,,,,,,,,,,,,,,,,,,,,,,,,,,,,,,,,,,,,,,,,,,,,,,",
",,,,,,,,,,,,,,,,,,,,,,,,,,,,,,,,,,,,,,,,,,,,,,,,,,,,,,,,,,,,",
",,,,,,,,,,,,,,,,,,,,,,,,,,,,,,,,,,,,,,,,,,,,,,,,,,,,,,,,,,,,",
",,,,,,,,,,,,,,,,,,,,,,,,,,,,,,,,,,,,,,,,,,,,,,,,,,,,,,,,,,,,",
",,,,,,,,,,,,,,,,,,,,,,,,,,,,,,,,,,,,,,,,,,,,,,,,,,,,,,,,,,,,"
};
