/* XPM */
static char *_207_c4e047bd9ba991f0d108d6cbdd3463284d1346bb82b9f72a717b72f665a5ff1a_2[] = {
/* columns rows colors chars-per-pixel */
"60 60 32 1 ",
"  c black",
". c #12173D",
"X c #721C2F",
"o c #1D1A59",
"O c #A52639",
"+ c #C43547",
"@ c #DD3745",
"# c #FF695A",
"$ c #FF6675",
"% c #FFAA6E",
"& c #464B8C",
"* c #6B74B2",
"= c #50B9EB",
"- c #FFE091",
"; c #909EDD",
": c #8CDAFF",
"> c white",
", c None",
"< c black",
"1 c black",
"2 c black",
"3 c black",
"4 c black",
"5 c black",
"6 c black",
"7 c black",
"8 c black",
"9 c black",
"0 c black",
"q c black",
"w c black",
"e c black",
/* pixels */
",,,,,,,,,,,,,,,,,,,,,,,,,,,,,,,,,,,,,,,,,,,,,,,,,,,,,,,,,,,,",
",,,,,,,,,,,,,,,,,,,,,,,,,,,,,,,,,,,,,,,,,,,,,,,,,,,,,,,,,,,,",
",,,,,,,,,,,,,,,,,,,,,,,,,,,,,##,,,,,,,,,,,,,,,,,,,,,,,,,,,,,",
",,,,,,,,,,,,,,,,,,,,,,,,,,,,####,,,,,,,,,,,,,,,,,,,,,,,,,,,,",
",,,,,,,,,,,,,,,,,,,,,,,,,,,,####,,,,,,,,,,,,,,,,,,,,,,,,,,,,",
",,,,,,,,,,,,,,,,,,,,,,,,,,,##%%##,,,,,,,,,,,,,,,,,,,,,,,,,,,",
",,,,,,,,,,,,,,,,,,,,,,,,,,,#%--%#,,,,,,,,,,,,,,,,,,,,,,,,,,,",
",,,,,,,,,,,,,,,,,,,,,,,,,,##----##,,,,,,,,,,,,,,,,,,,,,,,,,,",
",,,,,,,,,,,,,,,,,,,,,,,,,,#%----%#,,,,,,,,,,,,,,,,,,,,,,,,,,",
",,,,,,,,,,,,,,,,,,,,,,,,,#%%->>-%%#,,,,,,,,,,,,,,,,,,,,,,,,,",
",,,,,,,,,,,,,,,,,,,,,,,,,#%->>>>-%#,,,,,,,,,,,,,,,,,,,,,,,,,",
",,,,,,,,,,,,,,,,,,,,,,,,,%%->>>>-%%,,,,,,,,,,,,,,,,,,,,,,,,,",
",,,,,,,,,,,,,,,,,,,,,,,,,%%->>>>-%%,,,,,,,,,,,,,,,,,,,,,,,,,",
",,,,,,,,,,,,,,,,,  ,,,&&%%--->>---%%&&,,,  ,,,,,,,,,,,,,,,,,",
",,,,,,,,,,,,,,,,XO&*,.;*%%%-->>--%%%*;.,*&OX,,,,,,,,,,,,,,,,",
",,,,,,,,,,,,,,,,X@O*& ;*,%%%%%%%%%%,*; &*O@X,,,,,,,,,,,,,,,,",
",,,,,,,,,,,,,,,,X@+.**** ,@oo&&oo@, ****.+@X,,,,,,,,,,,,,,,,",
",,,,,,,,,,,,,,,,X@+XXO**  o&****&o  **OXX+@X,,,,,,,,,,,,,,,,",
",,,,,,,,,,,,  ,,,O+OXOo*&oO..XX..Oo&*oOXO+O,,,  ,,,,,,,,,,,,",
",,,,,,,,,,,,&*& ,X++@XX*&o %-XX-% o&*XX@++X, &*&,,,,,,,,,,,,",
",,,,,,,,,,,,X**** OO++X&&&.O-XX-O.&&&X++OO ****X,,,,,,,,,,,,",
",,,,,,,,,,,,OOX&*= oX+++o&.XOXXOX.&o+++X  =*&XOO,,,,,,,,,,,,",
",,,,,,,,,,,,OO+@OX=*&XOOOo.XOOOOX.oOOOX&*=XO@+OO,,,,,,,,,,,,",
",,,,,,,,,,,,OOO@@+O&*X**&o.OOXXOO.o&**X*&O+@@OOO,,,,,,,,,,,,",
",,,,,,,,,,,,O+X+@@@+OX&&&oX+XXXX+Xo&&&XO+@@@+X+O,,,,,,,,,,,,",
",,,,,,,,,,,,X+@XO@@@+O@@+XOOOXXOOOX+@@O+@@@OX@+X,,,,,,,,,,,,",
",,,,,,,,,,,,,O$+OO@+O@@+Oo++OXXO++oO+@@O+@OO+$O,,,,,,,,,,,,,",
",,,,,,,,,,,,,,O#+XOO@@@X*&OOOXXOOO&*X@@@OOX+#O,,,,,,,,,,,,,,",
",,,,,,,,,,,,,,,O@@XO@@@X;*.XX@@XX.*;X@@@OX@@O,,,,,,,,,,,,,,,",
",,,,,,,,,,,,,,,,O@+OO@OX:*.OX@@XO.*:XO@OO+@O,,,,,,,,,,,,,,,,",
",,,,,,,,,,,,,,,,,O#+XOOX>*.OX@@XO.*>XOOX+#O,,,,,,,,,,,,,,,,,",
",,,,,,,,,,,,,,,,,,O@@XOX;*.+X@@X+.*;XOX@@O,,,,,,,,,,,,,,,,,,",
",,,,,,,,,,,,,,,,,,,O@+X.*&.+X@@X+.&*.X+@O,,,,,,,,,,,,,,,,,,,",
",,,,,,,,,,,,,,,,,,,,O@O.*oX+X@@X+Xo*.O@O,,,,,,,,,,,,,,,,,,,,",
",,,,,,,,,,,,,,,,,,,,,O@O.oO++--++Oo.O@O,,,,,,,,,,,,,,,,,,,,,",
",,,,,,,,,,,,,,,,,,,,,,O@OXO++--++OXO@O,,,,,,,,,,,,,,,,,,,,,,",
",,,,,,,,,,,,,,,,,,,,,,,O+XO++--++OX+O,,,,,,,,,,,,,,,,,,,,,,,",
",,,,,,,,,,,,,,,,,,,,,,,,O+@@O@@O@@+O,,,,,,,,,,,,,,,,,,,,,,,,",
",,,,,,,,,,,,,,,,,,,,,,.oO+@@OXXO@@+Oo.,,,,,,,,,,,,,,,,,,,,,,",
",,,,,,,,,,,,,,,,,,,,,,.&oO@OXOOXO@Oo&.,,,,,,,,,,,,,,,,,,,,,,",
",,,,,,,,,,,,,,,,,,,,,,.*&X+OO++OO+X&*.,,,,,,,,,,,,,,,,,,,,,,",
",,,,,,,,,,,,,,,,,,,,,,.&*&XOOO+OOX&*&.,,,,,,,,,,,,,,,,,,,,,,",
",,,,,,,,,,,,,,,,,,,,,,,,&&.OOOOOO.&&,,,,,,,,,,,,,,,,,,,,,,,,",
",,,,,,,,,,,,,,,,,,,,,,,,&*.O+O&+O.*&,,,,,,,,,,,,,,,,,,,,,,,,",
",,,,,,,,,,,,,,,,,,,,,,,,,.X+*:=&+X.,,,,,,,,,,,,,,,,,,,,,,,,,",
",,,,,,,,,,,,,,,,,,,,,,,,, O+;:=*+O ,,,,,,,,,,,,,,,,,,,,,,,,,",
",,,,,,,,,,,,,,,,,,,,,,,,, ++*==*++ ,,,,,,,,,,,,,,,,,,,,,,,,,",
",,,,,,,,,,,,,,,,,,,,,,,,, ++&**&++ ,,,,,,,,,,,,,,,,,,,,,,,,,",
",,,,,,,,,,,,,,,,,,,,,,,,, ++*=;;++ ,,,,,,,,,,,,,,,,,,,,,,,,,",
",,,,,,,,,,,,,,,,,,,,,,,,, ++*=:;++ ,,,,,,,,,,,,,,,,,,,,,,,,,",
",,,,,,,,,,,,,,,,,,,,,,,,,,X@*=:*@X,,,,,,,,,,,,,,,,,,,,,,,,,,",
",,,,,,,,,,,,,,,,,,,,,,,,,,X$O==O$X,,,,,,,,,,,,,,,,,,,,,,,,,,",
",,,,,,,,,,,,,,,,,,,,,,,,,,,O+;;+O,,,,,,,,,,,,,,,,,,,,,,,,,,,",
",,,,,,,,,,,,,,,,,,,,,,,,,,,O#OO#O,,,,,,,,,,,,,,,,,,,,,,,,,,,",
",,,,,,,,,,,,,,,,,,,,,,,,,,,O@@@@O,,,,,,,,,,,,,,,,,,,,,,,,,,,",
",,,,,,,,,,,,,,,,,,,,,,,,,,,,+@@+,,,,,,,,,,,,,,,,,,,,,,,,,,,,",
",,,,,,,,,,,,,,,,,,,,,,,,,,,,X++X,,,,,,,,,,,,,,,,,,,,,,,,,,,,",
",,,,,,,,,,,,,,,,,,,,,,,,,,,,,,,,,,,,,,,,,,,,,,,,,,,,,,,,,,,,",
",,,,,,,,,,,,,,,,,,,,,,,,,,,,,,,,,,,,,,,,,,,,,,,,,,,,,,,,,,,,",
",,,,,,,,,,,,,,,,,,,,,,,,,,,,,,,,,,,,,,,,,,,,,,,,,,,,,,,,,,,,"
};
