/* XPM */
static char *_5061_2d78909ef18b678ad7108fc84193cc3d4754336babde16ea54472db8ee56217a_2[] = {
/* columns rows colors chars-per-pixel */
"60 60 32 1 ",
"  c black",
". c #12173D",
"X c #721C2F",
"o c #1D1A59",
"O c #A52639",
"+ c #C43547",
"@ c #DD3745",
"# c #FF695A",
"$ c #FF6675",
"% c #FFAA6E",
"& c #464B8C",
"* c #6B74B2",
"= c #50B9EB",
"- c #FFE091",
"; c #909EDD",
": c #8CDAFF",
"> c white",
", c None",
"< c black",
"1 c black",
"2 c black",
"3 c black",
"4 c black",
"5 c black",
"6 c black",
"7 c black",
"8 c black",
"9 c black",
"0 c black",
"q c black",
"w c black",
"e c black",
/* pixels */
",,,,,,,,,,,,,,,,,,,,,,,,,,,,,,,,,,,,,,,,,,,,,,,,,,,,,,,,,,,,",
",,,,,,,,,,,,,,,,,,,,,,,,,,,,,,,,,,,,,,,,,,,,,,,,,,,,,,,,,,,,",
",,,,,,,,,,,,,,,,,,,,,,,,,,,,,,,,,,,,,,,,,,,,,,,,,,,,,,,,,,,,",
",,,,,,,,,,,,,,,,,,,,,,,,,,,,,,,,,,,,,,,,,,,,,,,,,,,,,,,,,,,,",
",,,,,,,,,,,,,,,,,,,,,,,,,,,,,,,,,,,,,,,,,,,,,,,,,,,,,,,,,,,,",
",,,,,,,,,,,,,,,,,,,,,,,,,,,,,,,,,,,,,,,,,,,,,,,,,,,,,,,,,,,,",
",,,,,,,,,,,,,,,,,,,,,,,,,,,,,,,,,,,,,,,,,,,,,,,,,,,,,,,,,,,,",
",,,,,,,,,,,,,,,,,,,,,,,,,,,,,,,,,,,,,,,,,,,,,,,,,,,,,,,,,,,,",
",,,,,,,,,,,,,,,,,,,,,,,,,,,,,,,,,,,,,,,,,,,,,,,,,,,,,,,,,,,,",
",,,,,,,,,,,,,,,,,,,,,,,,,,,,,,,,,,,,,,,,,,,,,,,,,,,,,,,,,,,,",
",,,,,,,,,,,,,,,,,,,,,,,,,,,,,,,,,,,,,,,,,,,,,,,,,,,,,,,,,,,,",
",,,,,,,,,,,,,,,,,,,,,,,,,,,,,,,,,,,,,,,,,,,,,,,,,,,,,,,,,,,,",
",,,,,,,,,,,,,,,,,,,,,,,,,,,,,,,,,,XOOOOX& ,,,,,,,,,,,,,,,,,,",
",,,,,,,,,,,,,,,,,,,,,,,,,,,,,,,,,O++OOO** ,,,,,,,,,,,,,,,,,,",
",,,,,,,,,,,,,,,,,,,,,,,,,,,,,,,,O$@XO+X*&,,,,,,,,,,,,,,,,,,,",
",,,,,,,,,,,,,,,,,,,,,,,,,,,,,,,O#+X+@@&* ,,,,,,,,,,,,,,,,,,,",
",,,,,,,,,,,,,,,,,,,,,,,,,,,,,,O@+OO@@O**,,XXXX,,,,,,,,,,,,,,",
",,,,,,,,,,,,,,,,,,,,,,,,,,,,,O@@XO@@+X= XO@@@O ,,,,,,,,,,,,,",
",,,,,,,,,,,,,,,,,,,,,,,,,,,,O#+XO@@@O= O++++O& ,,,,,,,,,,,,,",
",,,,,,,,,,,,,,,,,,,,,,,,,,,O@+OOO+@+&*oO+OX.**,,,,,,,,,,,,,,",
",,,,,,,,,,,,,,,,,,,,,,,,,,O@@XO@@O+O*&X+@XX*&,,,,,,,,,,,,,,,",
",,,,,,,,,,,,,,,,,,,,,,,,,O@+XO@@@@OXXX++XOO* .,,,,,,,,,,,,,,",
",,,,,,,,,,,,,,,,,,....,,O@OXOOO@@@@&*O+XXo**;;&,,,,,,,,,,,,,",
",,,,,,,,,,,,,,,,,,&*&o,O@O..XXXXX+@&*O+&******&,,,,,,,,,,,,,",
",,,,,,,,,,,,,,,,&&*&oOO+O.**;>:;*O+&&Oo&&&  ,%%,,,,,,,,,,,,,",
",,,,,,,,,,     .*&&XO++XXoo&****&oXooo&&oo ,%%%%%##,,,,,,,,,",
",,,,,,,,XX++++OX..X+@@@OOOX.....O+OX.... Oo@%%-%%%%##,,,,,,,",
",,,,,OOO$@++++++OOOOO@@++++++OOXO+O+OXXO%.&o%-----%%###,,,,,",
",,,X+@#+O***&*;*+OOOXOO+++XXXXXXOOOXOOO--.*o%-->>>---%###,,,",
",,,+@@O;====*=::OOO+OX@---@@@@@@XXXXXOXXXX*&%>>>>>>---%###,,",
",,,+@@O;=::;*===&O++OX@---@@@@@@XXXXXOXXXX*&%>>>>>>---%###,,",
",,,X+@#+O*;;&**&+OOOXOO+++XXXXXXOOOXOOO--.*o%-->>>---%###,,,",
",,,,,OOO$@++++++OOOOO@@++++++OOXO+O+OXXO%.&o%-----%%###,,,,,",
",,,,,,,,XX++++OX..X+@@@OOOX.....O+OX.... Oo@%%-%%%%##,,,,,,,",
",,,,,,,,,,     .*&&XO++XXoo&****&oXooo&&oo ,%%%%%##,,,,,,,,,",
",,,,,,,,,,,,,,,,&&*&oOO+O.**;>:;*O+&&Oo&&&  ,%%,,,,,,,,,,,,,",
",,,,,,,,,,,,,,,,,,&*&o,O@O..XXXXX+@&*O+&******&,,,,,,,,,,,,,",
",,,,,,,,,,,,,,,,,,....,,O@OXOOO@@@@&*O+XXo**;;&,,,,,,,,,,,,,",
",,,,,,,,,,,,,,,,,,,,,,,,,O@+XO@@@@OXXX++XOO* .,,,,,,,,,,,,,,",
",,,,,,,,,,,,,,,,,,,,,,,,,,O@@XO@@O+O*&X+@XX*&,,,,,,,,,,,,,,,",
",,,,,,,,,,,,,,,,,,,,,,,,,,,O@+OOO+@+&* O+OX.**,,,,,,,,,,,,,,",
",,,,,,,,,,,,,,,,,,,,,,,,,,,,O#+XO@@@O= O++++O& ,,,,,,,,,,,,,",
",,,,,,,,,,,,,,,,,,,,,,,,,,,,,O@@XO@@+X= XO@@@O ,,,,,,,,,,,,,",
",,,,,,,,,,,,,,,,,,,,,,,,,,,,,,O@+OO@@O**,,XXXX,,,,,,,,,,,,,,",
",,,,,,,,,,,,,,,,,,,,,,,,,,,,,,,O#+X+@@&* ,,,,,,,,,,,,,,,,,,,",
",,,,,,,,,,,,,,,,,,,,,,,,,,,,,,,,O$@XO+X*&,,,,,,,,,,,,,,,,,,,",
",,,,,,,,,,,,,,,,,,,,,,,,,,,,,,,,,O++OOO** ,,,,,,,,,,,,,,,,,,",
",,,,,,,,,,,,,,,,,,,,,,,,,,,,,,,,,,XOOOOX& ,,,,,,,,,,,,,,,,,,",
",,,,,,,,,,,,,,,,,,,,,,,,,,,,,,,,,,,,,,,,,,,,,,,,,,,,,,,,,,,,",
",,,,,,,,,,,,,,,,,,,,,,,,,,,,,,,,,,,,,,,,,,,,,,,,,,,,,,,,,,,,",
",,,,,,,,,,,,,,,,,,,,,,,,,,,,,,,,,,,,,,,,,,,,,,,,,,,,,,,,,,,,",
",,,,,,,,,,,,,,,,,,,,,,,,,,,,,,,,,,,,,,,,,,,,,,,,,,,,,,,,,,,,",
",,,,,,,,,,,,,,,,,,,,,,,,,,,,,,,,,,,,,,,,,,,,,,,,,,,,,,,,,,,,",
",,,,,,,,,,,,,,,,,,,,,,,,,,,,,,,,,,,,,,,,,,,,,,,,,,,,,,,,,,,,",
",,,,,,,,,,,,,,,,,,,,,,,,,,,,,,,,,,,,,,,,,,,,,,,,,,,,,,,,,,,,",
",,,,,,,,,,,,,,,,,,,,,,,,,,,,,,,,,,,,,,,,,,,,,,,,,,,,,,,,,,,,",
",,,,,,,,,,,,,,,,,,,,,,,,,,,,,,,,,,,,,,,,,,,,,,,,,,,,,,,,,,,,",
",,,,,,,,,,,,,,,,,,,,,,,,,,,,,,,,,,,,,,,,,,,,,,,,,,,,,,,,,,,,",
",,,,,,,,,,,,,,,,,,,,,,,,,,,,,,,,,,,,,,,,,,,,,,,,,,,,,,,,,,,,",
",,,,,,,,,,,,,,,,,,,,,,,,,,,,,,,,,,,,,,,,,,,,,,,,,,,,,,,,,,,,"
};
