/* XPM */
static char *_6724_0c99b4e24cc5070a46cdf066e82dbb1c9d92ac8303e47605a07fde50f01c1b5c_4[] = {
/* columns rows colors chars-per-pixel */
"60 60 256 2 ",
"   c #7E0026",
".  c #77012B",
"X  c #7A012A",
"o  c #6D013D",
"O  c #730133",
"+  c #7D0031",
"@  c #6A0142",
"#  c #8D001E",
"$  c #9B0116",
"%  c #94011D",
"&  c #9A0119",
"*  c #9C0B1F",
"=  c #A6010F",
"-  c #AC010D",
";  c #A60007",
":  c #B50004",
">  c #BC0203",
",  c #B3030B",
"<  c #B9050A",
"1  c #BE0A0D",
"2  c #A40113",
"3  c #AB0413",
"4  c #A20419",
"5  c #A4081A",
"6  c #B40914",
"7  c #AD101C",
"8  c #B71318",
"9  c #BD171A",
"0  c #840125",
"q  c #8C0122",
"w  c #810128",
"e  c #910221",
"r  c #930926",
"t  c #A50F21",
"y  c #AC1825",
"u  c #B81D24",
"i  c #BA2327",
"p  c #B32833",
"a  c #BF3034",
"s  c #AB2C3C",
"d  c #C20404",
"f  c #CD0A06",
"g  c #C40B0B",
"h  c #CA0D0A",
"j  c #CB0601",
"k  c #DB0D02",
"l  c #D10C05",
"z  c #C9130F",
"x  c #D51107",
"c  c #D3140C",
"v  c #DC1509",
"b  c #DB170B",
"n  c #C31414",
"m  c #CB1514",
"M  c #CC1A15",
"N  c #CC1C19",
"B  c #C41B19",
"V  c #D31C15",
"C  c #D91E13",
"Z  c #E41303",
"A  c #EA1806",
"S  c #E21C0D",
"D  c #F11601",
"F  c #F11903",
"G  c #F11E08",
"H  c #D72319",
"J  c #DE2A1C",
"K  c #E72514",
"L  c #E32C1C",
"P  c #EA2D1A",
"I  c #F12D17",
"U  c #ED321E",
"Y  c #F3341E",
"T  c #C32323",
"R  c #CB2722",
"E  c #CB2A25",
"W  c #C32A29",
"Q  c #CA2C2A",
"!  c #D42D24",
"~  c #DA2E24",
"^  c #D12521",
"/  c #CA332E",
"(  c #D0352C",
")  c #CD3C36",
"_  c #D53C33",
"`  c #DA3D31",
"'  c #E43524",
"]  c #EC3522",
"[  c #ED3A26",
"{  c #E63D2B",
"}  c #F13922",
"|  c #F23F28",
" . c #E03F30",
".. c #CF443D",
"X. c #D84437",
"o. c #D5453B",
"O. c #DA493B",
"+. c #EB412D",
"@. c #E3402F",
"#. c #F1422C",
"$. c #EC4632",
"%. c #EC4A36",
"&. c #ED4D39",
"*. c #E44434",
"=. c #F14D36",
"-. c #EC513E",
";. c #E6523F",
":. c #F0523B",
">. c #AB3446",
",. c #CC4643",
"<. c #D34A42",
"1. c #DB4A40",
"2. c #DF5445",
"3. c #DA5448",
"4. c #CD5856",
"5. c #DA5E54",
"6. c #D75D54",
"7. c #E45342",
"8. c #ED5A45",
"9. c #E65C49",
"0. c #EB5E49",
"q. c #EB5643",
"w. c #F05B44",
"e. c #F15740",
"r. c #E75F50",
"t. c #DE665B",
"y. c #EF624F",
"u. c #E7604C",
"i. c #F1634C",
"p. c #F1684F",
"a. c #ED6351",
"s. c #E66957",
"d. c #EC6B56",
"f. c #E46C5D",
"g. c #ED6E5A",
"h. c #F06E59",
"j. c #F16A53",
"k. c #EC715B",
"l. c #F0735C",
"z. c #DC7166",
"x. c #DF7D71",
"c. c #E57465",
"v. c #EB7C69",
"b. c #E87968",
"n. c #F07661",
"m. c #F17C64",
"M. c #F07E69",
"N. c #E57E70",
"B. c #EE816C",
"V. c #F1826C",
"C. c #EC8471",
"Z. c #ED8C7A",
"A. c #EA8A78",
"S. c #F08671",
"D. c #F18A76",
"F. c #F18E79",
"G. c #ED917E",
"H. c #F0927D",
"J. c #ED9582",
"K. c #E79488",
"L. c #EC9B8C",
"P. c #EE9986",
"I. c #F09682",
"U. c #F19A86",
"Y. c #F19D8A",
"T. c #F1A28E",
"R. c #EEA998",
"E. c #F0A592",
"W. c #F1A996",
"Q. c #F1AD9B",
"!. c #F0B09E",
"~. c #F0B3A3",
"^. c #F1B8A7",
"/. c #F1BBAC",
"(. c #F0BEB1",
"). c #E6B8B6",
"_. c #F1C2B5",
"`. c #F0C7BB",
"'. c #F0CBC2",
"]. c #F0CFC8",
"[. c #F0D0C7",
"{. c #F0D1C8",
"}. c #F0DCD6",
"|. c #F0E2DD",
" X c #F0E5E2",
".X c #F1E9E7",
"XX c #F0EDEC",
"oX c #F0F2F2",
"OX c None",
"+X c black",
"@X c black",
"#X c black",
"$X c black",
"%X c black",
"&X c black",
"*X c black",
"=X c black",
"-X c black",
";X c black",
":X c black",
">X c black",
",X c black",
"<X c black",
"1X c black",
"2X c black",
"3X c black",
"4X c black",
"5X c black",
"6X c black",
"7X c black",
"8X c black",
"9X c black",
"0X c black",
"qX c black",
"wX c black",
"eX c black",
"rX c black",
"tX c black",
"yX c black",
"uX c black",
"iX c black",
"pX c black",
"aX c black",
"sX c black",
"dX c black",
"fX c black",
"gX c black",
"hX c black",
"jX c black",
"kX c black",
"lX c black",
"zX c black",
"xX c black",
"cX c black",
"vX c black",
"bX c black",
"nX c black",
"mX c black",
"MX c black",
"NX c black",
"BX c black",
"VX c black",
"CX c black",
"ZX c black",
"AX c black",
"SX c black",
"DX c black",
"FX c black",
"GX c black",
"HX c black",
"JX c black",
"KX c black",
"LX c black",
"PX c black",
"IX c black",
"UX c black",
/* pixels */
"OXOXOXOXOXOXOXOXOXOXOXOXOXOXOXOXOXOXOXOXOXOXOXOXOXOXOXOXOXOXOXOXOXOXOXOXOXOXOXOXOXOXOXOXOXOXOXOXOXOXOXOXOXOXOXOXOXOXOXOX",
"OXOXOXOXOXOXOXOXOXOXOXOXOXOXOXOXOXOXOXOXOXOXOXOXOXOXOXOXOXOXOXOXOXOXOXOXOXOXOXOXOXOXOXOXOXOXOXOXOXOXOXOXOXOXOXOXOXOXOXOX",
"OXOXOXOXOXOXOXOXOXOXOXOXOXOXOXOXOXOXOXOXOXOXOXOXOXOXOXOXOXOXOXOXOXOXOXOXOXOXOXOXOXOXOXOXOXOXOXOXOXOXOXOXOXOXOXOXOXOXOXOX",
"OXOXOXOXOXOXOXOXOXOXOXOXOXOXOXOXOXOXOXOXOXOXOXOXOXOXOXOXOXOXOXOXOXOXOXOXOXOXOXOXOXOXOXOXOXOXOXOXOXOXOXOXOXOXOXOXOXOXOXOX",
"OXOXOXOXOXOXOXOXOXOXOXOXOXOXOXOXOXOXOXOXOXOXOXOXOXOXOXOXOXOXOXOXOXOXOXOXOXOXOXOXOXOXOXOXOXOXOXOXOXOXOXOXOXOXOXOXOXOXOXOX",
"OXOXOXOXOXOXOXOXOXOXOXOXOXOXOXOXOXOXOXOXOXOXOXOXOXOXOXOXOXOXOXOXOXOXOXOXOXOXOXOXOXOXOXOXOXOXOXOXOXOXOXOXOXOXOXOXOXOXOXOX",
"OXOXOXOXOXOXOXOXOXOXOXOXOXOXOXOXOXOXOXOXOXOXOXOXOXOXOXOXOXOXOXOXOXOXOXOXOXOXOXOXOXOXOXOXOXOXOXOXOXOXOXOXOXOXOXOXOXOXOXOX",
"OXOXOXOXOXOXOXOXOXOXOXOXOXOXOXOXOXOXOXOXOXOXOXOXOXOXOXOXOXOXOXOXOXOXOXOXOXOXOXOXOXOXOXOXOXOXOXOXOXOXOXOXOXOXOXOXOXOXOXOX",
"OXOXOXOXOXOXOXOXOXOXOXOXOXOXOXOXOXOXOXOXOXOXOXOXOXOXOXOXOXOXOXOXOXOXOXOXOXOXOXOXOXOXOXOXOXOXOXOXOXOXOXOXOXOXOXOXOXOXOXOX",
"OXOXOXOXOXOXOXOXOXOXOXOXOXOXOXOXOXOXOXOXOXOXOXOXOXOXOXOXOXOXOXOXOXOXOXOXOXOXOXOXOXOXOXOXOXOXOXOXOXOXOXOXOXOXOXOXOXOXOXOX",
"OXOXOXOXOXOXOXOXOXOXOXOXOXOXOXOXOXOXOXOXOXOXOXOX. X X X X X . . X OXX OXOXOXOXOXOXOXOXOXOXOXOXOXOXOXOXOXOXOXOXOXOXOXOXOX",
"OXOXOXOXOXOXOXOXOXOXOXOXOXOXOXOXOXOXOXOXOXOXq # 3 4 3 d , 4 & 0 . X &   X . OXOXOXOXOXOXOXOXOXOXOXOXOXOXOXOXOXOXOXOXOXOX",
"OXOXOXOXOXOXOXOXOXOXOXOXOXOXOXOXOXOXOXX 0 $ 1 ~ -.y.a.y.y.a.` g & X X X X   0 . OXOXOXOXOXOXOXOXOXOXOXOXOXOXOXOXOXOXOXOX",
"OXOXOXOXOXOXOXOXOXOXOXOXOXOXOXOXOXOX  4 j Z I i.j./.|.|./.'./.Z._ u w   . - q 0 X OXOXOXOXOXOXOXOXOXOXOXOXOXOXOXOXOXOXOX",
"OXOXOXOXOXOXOXOXOXOXOXOXOXOXOXOXOX  % k A #.h.W.'.T.'.'..X~.XXXX/.Y.J.7 q q < 2 % 0 X OXOXOXOXOXOXOXOXOXOXOXOXOXOXOXOXOX",
"OXOXOXOXOXOXOXOXOXOXOXOXOXOXOXOX# % k U n.I.XX_./.C.&.%.Q R E ] ] H.M.I.6.u A k , e 0 X OXOXOXOXOXOXOXOXOXOXOXOXOXOXOXOX",
"OXOXOXOXOXOXOXOXOXOXOXOXOXOXOX# % [ D.~._.E.U.;.M 6 , 2 # # # % 2 , n J 9.d.-.R K d $ 0 . OXOXOXOXOXOXOXOXOXOXOXOXOXOXOX",
"OXOXOXOXOXOXOXOXOXOXOXOXOXOXw x e.~..XoXT.{ g 2 q w 0 0 . . X X X w w 2 d ! g.I.l.x > &   X OXOXOXOXOXOXOXOXOXOXOXOXOXOX",
"OXOXOXOXOXOXOXOXOXOXOXOXOX  g ] M./.(.a.N 0 0 X . . . .   X o @ . O   . . % h 8.!.%.I <   . X OXOXOXOXOXOXOXOXOXOXOXOXOX",
"OXOXOXOXOXOXOXOXOXOXOXOXX q > L /./.8.h & 0 X X   0 X 0 e q . O X q X X . . w g 2.E.i.' % w . OXOXOXOXOXOXOXOXOXOXOXOXOX",
"OXOXOXOXOXOXOXOXOXOXOX    % T f./.8.h & . o . X q % e e % $ 0 X X q X X . X X X % 8.W.6.4 0 . . OXOXOXOXOXOXOXOXOXOXOXOX",
"OXOXOXOXOXOXOXOXOXOXOXX e T ).E.a.g % X O o @ . & , = % % d , X X % q   X   O O   g 8.D.9 $ X X OXOXOXOXOXOXOXOXOXOXOXOX",
"OXOXOXOXOXOXOXOXOXOXX q ~ D.[.T.n 2 0 X X   + X   = x r 0 Q T X 0 $ q   X q % @ O % Z W.r.n X X X OXOXOXOXOXOXOXOXOXOXOX",
"OXOXOXOXOXOXOXOXOXOX# n D.~.{.{ < . X X X % < - X % { V.t / m.q q f 4 % % = X o . $ > ! T.,.  X X . OXOXOXOXOXOXOXOXOXOX",
"OXOXOXOXOXOXOXOXOXX 3 +.U.T.M.g 0 . X X 0 e 6 <   X $ z.C.~.b.6 ! F h c 1 - 0 O   q q 2 y.c.q 0 q w OXOXOXOXOXOXOXOXOXOX",
"OXOXOXOXOXOXOXOXOXq f | l.Q.7.2 . X X q 3 l ` &.8 & $ t.~.'.R.N.C. .C =.1 q 0 0 q   O 2 ~ G.p & % 0 OXOXOXOXOXOXOXOXOXOX",
"OXOXOXOXOXOXOXOXX % k #.D.H.n $ . X X 0 q 2 ( C.9.c K y.H.~.~._.E.B ,...0 0 % e e 0 . e n D.1.d , % X OXOXOXOXOXOXOXOXOX",
"OXOXOXOXOXOXOXOX. % v h.!.U.6 w . q % 3 2 < A v T M %.k.l.V.C.I.C., T e   y @.< %   X w , 0.B.7.h $ . OXOXOXOXOXOXOXOXOX",
"OXOXOXOXOXOXOXOX. 2 ~ m.Q.$.2 X . q 0 : % < ~ &.' +.l.( b 8.3.y.V.w.V.9 >.L.) $ e 0 . 0 , +.!.T.X.-   OXOXOXOXOXOXOXOXOX",
"OXOXOXOXOXOXOXOXq 6 D :.Q.{ % 0   . X w q + e N.^.h.Z.s.o.E.Y.h.8.d.Y.Y.Q.4.q $ 2 q X 0 2 +.oX}.D.8   OXOXOXOXOXOXOXOXOX",
"OXOXOXOXOXOXOXOXq < Z V./.E # O @ O   0 q u 4.R.}.L./ /.]. X}.W.R o.m.I.n.3 7 c , q   X % Q oX}.I.9   OXOXOXOXOXOXOXOXOX",
"OXOXOXOXOXOXOXOX. , F I.Q.R # . O 0 % f Q v.Y.'.C.3.6.'.XXoXXX'.Z._ S.~._.H.&.~ - q   . % R oX|.I.i X OXOXOXOXOXOXOXOXOX",
"OXOXOXOXOXOXOXOXe 4 D } I.Q # .   q , P R y O.m.V.u.&.I. XoXXXQ.-.B './.A.W 7 r 0 X o . % c XX|.l.q . OXOXOXOXOXOXOXOXOX",
"OXOXOXOXOXOXOXOX  2 Z P T.] %   X w 3 6 = Q G.S.F.i.:.V.Y./.I.n.D.n.H.Y.a & 0   . X . w % { oX}.w.q . OXOXOXOXOXOXOXOXOX",
"OXOXOXOXOXOXOXOXX 5 $ Q Q.$.= 0 X   q $ / Z.4.W P i.D.V.] v.0.I i.m.$.d.d.C - % % 0 0 0 - +.}./.` % . OXOXOXOXOXOXOXOXOX",
"OXOXOXOXOXOXOXOXX & e m /.a., 0 . 0 e 2 c y 0 # , ^ c.l.%.<.X.8.w.s.H 7.3.H - % q 0   X h J.`.a.m   . OXOXOXOXOXOXOXOXOX",
"OXOXOXOXOXOXOXOXX   q 1 '.Y.n X X   q % & X .   i 8 : U.Q.E.U.D.h.5.} v.<.$ & 0   X X q u B.V.m &   . OXOXOXOXOXOXOXOXOX",
"OXOXOXOXOXOXOXOXOX.   ] Q./.U 3 X 0 q   . X 0 2 v.o.' T.Q.(./.W.c.5 h L | 6 q X . w   3 7.W.&.2 % X OXOXOXOXOXOXOXOXOXOX",
"OXOXOXOXOXOXOXOXOX  0 Y h.M.x.g O q   O o   & z *.:.9.* <._.Y.~.*.r X $ $ e q   X X % f p.I.#.> 0 . OXOXOXOXOXOXOXOXOXOX",
"OXOXOXOXOXOXOXOXOXX X K #.:.Q.! & . . @ @   e 1 > v N w p W.[ } E.s 0 X     q q X 0 0 { H.F.[ & X X OXOXOXOXOXOXOXOXOXOX",
"OXOXOXOXOXOXOXOXOXOXX , Z v m._.h % . @ @   0 w % , =   % 8.M H $.' $ X O o O . . % N _.{.k.1 q X OXOXOXOXOXOXOXOXOXOXOX",
"OXOXOXOXOXOXOXOXOXOXOX2 d < R H.8.g   o o X X X 0 2 2   & M 1 : , d 2 0 . @ @ O % h a.'.W.! % &   OXOXOXOXOXOXOXOXOXOXOX",
"OXOXOXOXOXOXOXOXOXOXOXq % % % q.W.2.% . . X X X X q $ . # - = & e % % q 0 . e & h 8.!.D.` , % q OXOXOXOXOXOXOXOXOXOXOXOX",
"OXOXOXOXOXOXOXOXOXOXOXX 0 q q ( K.^.8.h % . X X X   0 X X q % 2 0 w 0 0 w q 2 g 8.E.D.L > : & X OXOXOXOXOXOXOXOXOXOXOXOX",
"OXOXOXOXOXOXOXOXOXOXOXOX. X - = f.~.W.8.h % . . X X q   X   0 % q . X q q - ; a.W.H.K j > $ w OXOXOXOXOXOXOXOXOXOXOXOXOX",
"OXOXOXOXOXOXOXOXOXOXOXOXOXX X & z d.V.~.J.! < 2 X # q w w 0 0 0 % 0 % 3 f { I.}./.H.#.D , 0 OXOXOXOXOXOXOXOXOXOXOXOXOXOX",
"OXOXOXOXOXOXOXOXOXOXOXOXOXOXX X % b | n.S.W.0.L S g - 5 % % = , , Z V 7.n. X[.Q.W.B.8.m q OXOXOXOXOXOXOXOXOXOXOXOXOXOXOX",
"OXOXOXOXOXOXOXOXOXOXOXOXOXOXOXX X d Z A K :.M.Q.S.j.P.] E R ' %.&.C.H./.|._.N.b.-.n 5 q OXOXOXOXOXOXOXOXOXOXOXOXOXOXOXOX",
"OXOXOXOXOXOXOXOXOXOXOXOXOXOXOXOXX % $ $ l D A m.F.k.Y.Y.}.!.~.XX'.T.l.7.W 2 4 0 # . X OXOXOXOXOXOXOXOXOXOXOXOXOXOXOXOXOX",
"OXOXOXOXOXOXOXOXOXOXOXOXOXOXOXOXOXOX. X X 4 , Z c 8 G c.U.s.K.L.W.T.=.l : & 0 . . X OXOXOXOXOXOXOXOXOXOXOXOXOXOXOXOXOXOX",
"OXOXOXOXOXOXOXOXOXOXOXOXOXOXOXOXOXOXOXOXX . & % = : e e , 2 2 [ o._ _ V 2 q 0 X OXOXOXOXOXOXOXOXOXOXOXOXOXOXOXOXOXOXOXOX",
"OXOXOXOXOXOXOXOXOXOXOXOXOXOXOXOXOXOXOXOXOXOXOXX w q % w   X w   & $ w   X OXOXOXOXOXOXOXOXOXOXOXOXOXOXOXOXOXOXOXOXOXOXOX",
"OXOXOXOXOXOXOXOXOXOXOXOXOXOXOXOXOXOXOXOXOXOXOXOXOXX X X . . . . . X OXOXOXOXOXOXOXOXOXOXOXOXOXOXOXOXOXOXOXOXOXOXOXOXOXOX",
"OXOXOXOXOXOXOXOXOXOXOXOXOXOXOXOXOXOXOXOXOXOXOXOXOXOXOXOXOXOXOXOXOXOXOXOXOXOXOXOXOXOXOXOXOXOXOXOXOXOXOXOXOXOXOXOXOXOXOXOX",
"OXOXOXOXOXOXOXOXOXOXOXOXOXOXOXOXOXOXOXOXOXOXOXOXOXOXOXOXOXOXOXOXOXOXOXOXOXOXOXOXOXOXOXOXOXOXOXOXOXOXOXOXOXOXOXOXOXOXOXOX",
"OXOXOXOXOXOXOXOXOXOXOXOXOXOXOXOXOXOXOXOXOXOXOXOXOXOXOXOXOXOXOXOXOXOXOXOXOXOXOXOXOXOXOXOXOXOXOXOXOXOXOXOXOXOXOXOXOXOXOXOX",
"OXOXOXOXOXOXOXOXOXOXOXOXOXOXOXOXOXOXOXOXOXOXOXOXOXOXOXOXOXOXOXOXOXOXOXOXOXOXOXOXOXOXOXOXOXOXOXOXOXOXOXOXOXOXOXOXOXOXOXOX",
"OXOXOXOXOXOXOXOXOXOXOXOXOXOXOXOXOXOXOXOXOXOXOXOXOXOXOXOXOXOXOXOXOXOXOXOXOXOXOXOXOXOXOXOXOXOXOXOXOXOXOXOXOXOXOXOXOXOXOXOX",
"OXOXOXOXOXOXOXOXOXOXOXOXOXOXOXOXOXOXOXOXOXOXOXOXOXOXOXOXOXOXOXOXOXOXOXOXOXOXOXOXOXOXOXOXOXOXOXOXOXOXOXOXOXOXOXOXOXOXOXOX",
"OXOXOXOXOXOXOXOXOXOXOXOXOXOXOXOXOXOXOXOXOXOXOXOXOXOXOXOXOXOXOXOXOXOXOXOXOXOXOXOXOXOXOXOXOXOXOXOXOXOXOXOXOXOXOXOXOXOXOXOX"
};
