/* XPM */
static char *_6724_0c99b4e24cc5070a46cdf066e82dbb1c9d92ac8303e47605a07fde50f01c1b5c_5[] = {
/* columns rows colors chars-per-pixel */
"60 60 256 2 ",
"   c #7D0026",
".  c #77012B",
"X  c #7A012A",
"o  c #6C013E",
"O  c #730133",
"+  c #710139",
"@  c #6A0143",
"#  c #8E001E",
"$  c #9D0116",
"%  c #94011D",
"&  c #9B011A",
"*  c #A7000E",
"=  c #AD010C",
"-  c #A60007",
";  c #B50106",
":  c #BA0103",
">  c #B3030B",
",  c #BC070B",
"<  c #BE0B0E",
"1  c #A40113",
"2  c #AB0413",
"3  c #A2041A",
"4  c #AB0B1A",
"5  c #A4081A",
"6  c #B40B15",
"7  c #B20E18",
"8  c #B50711",
"9  c #BD1113",
"0  c #B5141A",
"q  c #840125",
"w  c #8C0122",
"e  c #800128",
"r  c #84092C",
"t  c #910221",
"y  c #9E0A20",
"u  c #9D1B31",
"i  c #A30E20",
"p  c #AC1A2A",
"a  c #B71D25",
"s  c #BD2B2E",
"d  c #B42833",
"f  c #C30504",
"g  c #CA0704",
"h  c #CD0A04",
"j  c #C20708",
"k  c #C40A0B",
"l  c #C90D0A",
"z  c #C70907",
"x  c #D30B02",
"c  c #DA0D02",
"v  c #CC110D",
"b  c #DC1105",
"n  c #D4130A",
"m  c #DC1509",
"M  c #DC190D",
"N  c #C41313",
"B  c #CC1611",
"V  c #C61917",
"C  c #CB1B17",
"Z  c #D51B13",
"A  c #DE1F12",
"S  c #E00B00",
"D  c #E41303",
"F  c #EB1401",
"G  c #E91807",
"H  c #E41B0A",
"J  c #EB1D0A",
"K  c #F21600",
"L  c #F11C06",
"P  c #CD211C",
"I  c #DC2014",
"U  c #D3281F",
"Y  c #DE291C",
"T  c #D3231A",
"R  c #F2240D",
"E  c #E52413",
"W  c #EE2B16",
"Q  c #E62C1B",
"!  c #EF2510",
"~  c #F12F19",
"^  c #F02610",
"/  c #EA311E",
"(  c #F1321C",
")  c #C41F20",
"_  c #CB2A24",
"`  c #CB2C28",
"'  c #C82522",
"]  c #D42D24",
"[  c #DA2D22",
"{  c #D73025",
"}  c #DA3125",
"|  c #DD3B2D",
" . c #D5342B",
".. c #C43638",
"X. c #D33C33",
"o. c #E53523",
"O. c #EB3522",
"+. c #E63D2B",
"@. c #F13B25",
"#. c #F03F29",
"$. c #D3443C",
"%. c #DB4A3D",
"&. c #ED422E",
"*. c #F1422B",
"=. c #ED4431",
"-. c #EC4936",
";. c #E54939",
":. c #ED4E3A",
">. c #F14C35",
",. c #F24F39",
"<. c #EA513E",
"1. c #F0503A",
"2. c #BC3D45",
"3. c #BD444D",
"4. c #D74D42",
"5. c #DE5346",
"6. c #D6544B",
"7. c #D55E57",
"8. c #C54849",
"9. c #E55241",
"0. c #E65846",
"q. c #ED5A45",
"w. c #E35B4A",
"e. c #ED5D49",
"r. c #F05741",
"t. c #F05F49",
"y. c #F15A44",
"u. c #EE624E",
"i. c #F1634C",
"p. c #F1684F",
"a. c #ED6451",
"s. c #EE6B55",
"d. c #E26758",
"f. c #EE6F59",
"g. c #E56A59",
"h. c #F06B54",
"j. c #F06E59",
"k. c #EE735D",
"l. c #F1735D",
"z. c #DD786D",
"x. c #DF7569",
"c. c #DF7D71",
"v. c #D96861",
"b. c #E67768",
"n. c #EC7D69",
"m. c #F07B64",
"M. c #F07E6A",
"N. c #ED816D",
"B. c #F0826C",
"V. c #EB8371",
"C. c #EC8C7A",
"Z. c #E88A7B",
"A. c #F18671",
"S. c #F18A74",
"D. c #F18D79",
"F. c #EE917D",
"G. c #F1927D",
"H. c #DB8D85",
"J. c #EE9582",
"K. c #EE9A87",
"L. c #EA988A",
"P. c #F09582",
"I. c #F09A86",
"U. c #F09D8A",
"Y. c #F0A18E",
"T. c #EDA391",
"R. c #EAA398",
"E. c #F0A592",
"W. c #F1A896",
"Q. c #F0AE9B",
"!. c #F1B09E",
"~. c #F0AEA1",
"^. c #F0B3A3",
"/. c #F1BBAC",
"(. c #F2B8A8",
"). c #F0BDB1",
"_. c #ECB3A8",
"`. c #F1C2B5",
"'. c #F1C7BC",
"]. c #F0CBC1",
"[. c #F0CFC8",
"{. c #F1D0C5",
"}. c #F0DBD6",
"|. c #F0E0DB",
" X c #F0E7E4",
".X c #F1E9E6",
"XX c #F0EDEC",
"oX c #F0F0EF",
"OX c #F0F2F2",
"+X c #F0F7F8",
"@X c None",
"#X c black",
"$X c black",
"%X c black",
"&X c black",
"*X c black",
"=X c black",
"-X c black",
";X c black",
":X c black",
">X c black",
",X c black",
"<X c black",
"1X c black",
"2X c black",
"3X c black",
"4X c black",
"5X c black",
"6X c black",
"7X c black",
"8X c black",
"9X c black",
"0X c black",
"qX c black",
"wX c black",
"eX c black",
"rX c black",
"tX c black",
"yX c black",
"uX c black",
"iX c black",
"pX c black",
"aX c black",
"sX c black",
"dX c black",
"fX c black",
"gX c black",
"hX c black",
"jX c black",
"kX c black",
"lX c black",
"zX c black",
"xX c black",
"cX c black",
"vX c black",
"bX c black",
"nX c black",
"mX c black",
"MX c black",
"NX c black",
"BX c black",
"VX c black",
"CX c black",
"ZX c black",
"AX c black",
"SX c black",
"DX c black",
"FX c black",
"GX c black",
"HX c black",
"JX c black",
"KX c black",
"LX c black",
"PX c black",
"IX c black",
"UX c black",
/* pixels */
"@X@X@X@X@X@X@X@X@X@X@X@X@X@X@X@X@X@X@X@X@X@X@X@X@X@X@X@X@X@X@X@X@X@X@X@X@X@X@X@X@X@X@X@X@X@X@X@X@X@X@X@X@X@X@X@X@X@X@X@X",
"@X@X@X@X@X@X@X@X@X@X@X@X@X@X@X@X@X@X@X@X@X@X@X@X@X@X@X@X@X@X@X@X@X@X@X@X@X@X@X@X@X@X@X@X@X@X@X@X@X@X@X@X@X@X@X@X@X@X@X@X",
"@X@X@X@X@X@X@X@X@X@X@X@X@X@X@X@X@X@X@X@X@X@X@X@X@X@X@X@X@X@X@X@X@X@X@X@X@X@X@X@X@X@X@X@X@X@X@X@X@X@X@X@X@X@X@X@X@X@X@X@X",
"@X@X@X@X@X@X@X@X@X@X@X@X@X@X@X@X@X@X@X@X@X@X@X@X@X@X@X@X@X@X@X@X@X@X@X@X@X@X@X@X@X@X@X@X@X@X@X@X@X@X@X@X@X@X@X@X@X@X@X@X",
"@X@X@X@X@X@X@X@X@X@X@X@X@X@X@X@X@X@X@X@X@X@X@X@X@X@X@X@X@X@X@X@X@X@X@X@X@X@X@X@X@X@X@X@X@X@X@X@X@X@X@X@X@X@X@X@X@X@X@X@X",
"@X@X@X@X@X@X@X@X@X@X@X@X@X@X@X@X@X@X@X@X@X@X@X@X@X@X@X@X@X@X@X@X@X@X@X@X@X@X@X@X@X@X@X@X@X@X@X@X@X@X@X@X@X@X@X@X@X@X@X@X",
"@X@X@X@X@X@X@X@X@X@X@X@X@X@X@X@X@X@X@X@X@X@X@X@X@X@X@X@X@X@X@X@X@X@X@X@X@X@X@X@X@X@X@X@X@X@X@X@X@X@X@X@X@X@X@X@X@X@X@X@X",
"@X@X@X@X@X@X@X@X@X@X@X@X@X@X@X@X@X@X@X@X@X@X@X@X@X@X@X@X@X@X@X@X@X@X@X@X@X@X@X@X@X@X@X@X@X@X@X@X@X@X@X@X@X@X@X@X@X@X@X@X",
"@X@X@X@X@X@X@X@X@X@X@X@X@X@X@X@X@X@X@X@X@X@X@X@X@X@X@X@X@X@X@X@X@X@X@X@X@X@X@X@X@X@X@X@X@X@X@X@X@X@X@X@X@X@X@X@X@X@X@X@X",
"@X@X@X@X@X@X@X@X@X@X@X@X@X@X@X@X@X@X@X@X@X@X@X@X@X@X@X@X@X@X@X@X@X@X@X@X@X@X@X@X@X@X@X@X@X@X@X@X@X@X@X@X@X@X@X@X@X@X@X@X",
"@X@X@X@X@X@X@X@X@X@X@X@X@X@X@X@X@X@X@X@X@X@X@X@X. X X X X X . X X @XX @X@X@X@X@X@X@X@X@X@X@X@X@X@X@X@X@X@X@X@X@X@X@X@X@X",
"@X@X@X@X@X@X@X@X@X@X@X@X@X@X@X@X@X@X@X@X@X@Xw # 2 f 2 f ..9 > 3 & % X . X . @X@X@X@X@X@X@X@X@X@X@X@X@X@X@X@X@X@X@X@X@X@X",
"@X@X@X@X@X@X@X@X@X@X@X@X@X@X@X@X@X@X@XX X e % < x o.f.m.m.C.=.&.| v 2 q X X X . @X@X@X@X@X@X@X@X@X@X@X@X@X@X@X@X@X@X@X@X",
"@X@X@X@X@X@X@X@X@X@X@X@X@X@X@X@X@X@XX   w & : F @.m.S.Y./.].}.Y.Q.D.=.6 w . X X X @X@X@X@X@X@X@X@X@X@X@X@X@X@X@X@X@X@X@X",
"@X@X@X@X@X@X@X@X@X@X@X@X@X@X@X@X@X  q 2 P 0.<.e.S.U.].]..X^.XXXX/.}./.V.) % X X w e X @X@X@X@X@X@X@X@X@X@X@X@X@X@X@X@X@X",
"@X@X@X@X@X@X@X@X@X@X@X@X@X@X@X@X  % = { A.).Q.Q.G.V.:.-.` ' _ O.O.G.M.P.D.5.y q % : q X @X@X@X@X@X@X@X@X@X@X@X@X@X@X@X@X",
"@X@X@X@X@X@X@X@X@X@X@X@X@X@X@X  % x W E.`.E.m.<.B 6 > 1 # # # % 1 > N Y 0.!.z.d $ f f % . @X@X@X@X@X@X@X@X@X@X@X@X@X@X@X",
"@X@X@X@X@X@X@X@X@X@X@X@X@X@X  w 1 U S.E.Y.+.k 1 w e q q . w w t X e e 1 f ] f.P.| D F c e X @X@X@X@X@X@X@X@X@X@X@X@X@X@X",
"@X@X@X@X@X@X@X@X@X@X@X@X@X  k 4 I n.).a.C q q . . o .     w w w . O   . . % l q.G.i.W c & w X @X@X@X@X@X@X@X@X@X@X@X@X@X",
"@X@X@X@X@X@X@X@X@X@X@X@XX w I d././.q.l & q X X   O . q t w % 1 1 e X X . . e k 5.E.i.o.: & . @X@X@X@X@X@X@X@X@X@X@X@X@X",
"@X@X@X@X@X@X@X@X@X@X@X  & Z h.W./.q.l & . o . w w % t t % $ > : : 2 e X X X X X % q.W.D.E > . . @X@X@X@X@X@X@X@X@X@X@X@X",
"@X@X@X@X@X@X@X@X@X@X@X$ Z t.Q.E.a.k % X O X X q & > : : : f > ; : x w e X   O O $ k q.D.,.c 1 X @X@X@X@X@X@X@X@X@X@X@X@X",
"@X@X@X@X@X@X@X@X@X@Xq k ~ h.!.Y.6 1 1 1 t   X q   e 1 ; f c h c c 2 w w w w % X O % * W.S.A $   X @X@X@X@X@X@X@X@X@X@X@X",
"@X@X@X@X@X@X@X@X@X@X% S @.D.^.+., q % w w % % = , t X $ H J F K F 3 1 % % * q X . w % ] Y.| 1 q X . @X@X@X@X@X@X@X@X@X@X",
"@X@X@X@X@X@X@X@X@XX 1 G i.Y.M.k q . X X q t * 1 b , % w ] d.n W I = 1 : : = t q e w w 1 u.M.) w X e @X@X@X@X@X@X@X@X@X@X",
"@X@X@X@X@X@X@X@X@Xw = | S.Q.9.1 . X X w 2 ; n V 0 E 0 % 0 T.$.f.d $ ; : h w q q 1   . 1 [ F.$.& X X @X@X@X@X@X@X@X@X@X@X",
"@X@X@X@X@X@X@X@XX . D i.!.G.N $ . X X q w f b =.*.>.4.1 P ^.F.U.' P f h g $ % t $ + @ t N S.7.# X X X @X@X@X@X@X@X@X@X@X",
"@X@X@X@X@X@X@X@X. & m j.!.I.6 e X w = : % % % j F J V  .l.I.U.^.G.r.D b ; w e % % O X e > e.N.$ e e X @X@X@X@X@X@X@X@X@X",
"@X@X@X@X@X@X@X@X. 1 [ m.Q.=.1 X e w g f % 4 4 % p B.n.k.m.r.,.E.B.E 2 w % $ 1 ; t q q w > &.T.7 % %   @X@X@X@X@X@X@X@X@X",
"@X@X@X@X@X@X@X@Xw 8 =.m.Q.+.% w w 1 g g x K ( ..6.'.E.m.$.E.U.j.r.~ ' t s I h : 1 w t w 1 &.W.B k 6   @X@X@X@X@X@X@X@X@X",
"@X@X@X@X@X@X@X@Xw & D m./._ # t w $ ; ; f F G 0.Y./.l.l.[. X}.W.h.h.m.Z.K.@.F g > w w w % R W.=.&.p   @X@X@X@X@X@X@X@X@X",
"@X@X@X@X@X@X@X@X. $ x 0.Q.' # t t t > : m *.-._ I.J.} k.XXOXXX].-.>.A.^.s &.L D c : % w % K OXY.m.9 # @X@X@X@X@X@X@X@X@X",
"@X@X@X@X@X@X@X@Xt % ; w.P.` 1 w   w > f G i.n.H.B.@.T 5..XOX+X XB b.].C.{ W F F D f % t = n XX/.G.T % @X@X@X@X@X@X@X@X@X",
"@X@X@X@X@X@X@X@X  1 1 n.}.O.% q   w 2 : D m 7 r 2 G m.n.M./.P.S.e.Y.z.7.g.! x : : 1 w e * +.OX XS.T w @X@X@X@X@X@X@X@X@X",
"@X@X@X@X@X@X@X@XX   1 C.).=.* q X   w f 6 w   w i 9 n.N.} &.*.B.m.I.x.: * 3 $ = : *   q = &.}.|.G.0   @X@X@X@X@X@X@X@X@X",
"@X@X@X@X@X@X@X@XX . b s.E.a.> q . O t 1 e . $ < g.4.N.Q.T.B.m.m.~ r.h.H > & $ ; w q   X l J.OX|.0.2 . @X@X@X@X@X@X@X@X@X",
"@X@X@X@X@X@X@X@XX X v t.D.U.N X @ o = >   w > : / i.;.b.Q.^.Q.5.w.I.1.x f : : $   X X w a N.oX~.[   . @X@X@X@X@X@X@X@X@X",
"@X@X@X@X@X@X@X@X@X. 8 ^ y././ 2 O q w   X w & 1 U Q 2 3.Q.R.(.` 4 P v = 1 : 1 1 1 q   2 9.W.'.w.$ . @X@X@X@X@X@X@X@X@X@X",
"@X@X@X@X@X@X@X@X@X  1 x F M.c.k O X   O X   & 1 z f $ 8.&.X._.2.# 1 : $ $ t w w X X % h p.P.v.4 X . @X@X@X@X@X@X@X@X@X@X",
"@X@X@X@X@X@X@X@X@XX w > f %.Q.] & . . X X   t : : > 4 ;.R F u.$.%   % % % & w w X q q +.G.-.> & X X @X@X@X@X@X@X@X@X@X@X",
"@X@X@X@X@X@X@X@X@X@Xe % * P J.`.l % . X X   q e : > a Q Q D R @.8 e $ X X X O . . % C `.D.E 2 w X @X@X@X@X@X@X@X@X@X@X@X",
"@X@X@X@X@X@X@X@X@X@X@Xe q 2 <.G.q.k   X X   e w q 1 2 f Y D K ; f % 1 q q   X O % l a.E.A.M %     @X@X@X@X@X@X@X@X@X@X@X",
"@X@X@X@X@X@X@X@X@X@X@XX X % _ I.W.5.% . . X X w X w ; : : c g ; t % % w q w t & l q.!./.h.M % X @X@X@X@X@X@X@X@X@X@X@X@X",
"@X@X@X@X@X@X@X@X@X@X@XX X   B s.L.(.q.l % . X X X % = = : ; % 1 q e O . e w 1 k q.E. XP.E % & X @X@X@X@X@X@X@X@X@X@X@X@X",
"@X@X@X@X@X@X@X@X@X@X@X@X. X > m ,.S.W.q.l % . . X X % % $ 1 t % w . . X   = - a.W.{.S.Y % q X @X@X@X@X@X@X@X@X@X@X@X@X@X",
"@X@X@X@X@X@X@X@X@X@X@X@X@XX X j J >.h.^.J.] , 1 X # w w w $ & q % q . 2 h +.P.E.l.| 1 $ q X @X@X@X@X@X@X@X@X@X@X@X@X@X@X",
"@X@X@X@X@X@X@X@X@X@X@X@X@X@XX # , g [ #.A.W.e.Q H k = 5 % , * > > 2 Z 9.B.U.W.A./ : & w w @X@X@X@X@X@X@X@X@X@X@X@X@X@X@X",
"@X@X@X@X@X@X@X@X@X@X@X@X@X@X@XX q w 1 G L M.M.Q.A.h.K.O._ F o.-.:.V.B./.Y.I.B.*.D f & w @X@X@X@X@X@X@X@X@X@X@X@X@X@X@X@X",
"@X@X@X@X@X@X@X@X@X@X@X@X@X@X@X@XX   e $ x K G m.D.k.U.U.}.!.^.Q.Q.Y.C.s.k.>.@.Z k 2 q @X@X@X@X@X@X@X@X@X@X@X@X@X@X@X@X@X",
"@X@X@X@X@X@X@X@X@X@X@X@X@X@X@X@X@X@X. X q 3 > f k E %.4.n.I.W.U.s.E V 0 u y q # e X @X@X@X@X@X@X@X@X@X@X@X@X@X@X@X@X@X@X",
"@X@X@X@X@X@X@X@X@X@X@X@X@X@X@X@X@X@X@X@XX . & % * % 1 t D } X.} F x 1 q X . . X @X@X@X@X@X@X@X@X@X@X@X@X@X@X@X@X@X@X@X@X",
"@X@X@X@X@X@X@X@X@X@X@X@X@X@X@X@X@X@X@X@X@X@X@XX e e   e   w $ 1 & $ t   X @X@X@X@X@X@X@X@X@X@X@X@X@X@X@X@X@X@X@X@X@X@X@X",
"@X@X@X@X@X@X@X@X@X@X@X@X@X@X@X@X@X@X@X@X@X@X@X@X@XX X X . . . . . X @X@X@X@X@X@X@X@X@X@X@X@X@X@X@X@X@X@X@X@X@X@X@X@X@X@X",
"@X@X@X@X@X@X@X@X@X@X@X@X@X@X@X@X@X@X@X@X@X@X@X@X@X@X@X@X@X@X@X@X@X@X@X@X@X@X@X@X@X@X@X@X@X@X@X@X@X@X@X@X@X@X@X@X@X@X@X@X",
"@X@X@X@X@X@X@X@X@X@X@X@X@X@X@X@X@X@X@X@X@X@X@X@X@X@X@X@X@X@X@X@X@X@X@X@X@X@X@X@X@X@X@X@X@X@X@X@X@X@X@X@X@X@X@X@X@X@X@X@X",
"@X@X@X@X@X@X@X@X@X@X@X@X@X@X@X@X@X@X@X@X@X@X@X@X@X@X@X@X@X@X@X@X@X@X@X@X@X@X@X@X@X@X@X@X@X@X@X@X@X@X@X@X@X@X@X@X@X@X@X@X",
"@X@X@X@X@X@X@X@X@X@X@X@X@X@X@X@X@X@X@X@X@X@X@X@X@X@X@X@X@X@X@X@X@X@X@X@X@X@X@X@X@X@X@X@X@X@X@X@X@X@X@X@X@X@X@X@X@X@X@X@X",
"@X@X@X@X@X@X@X@X@X@X@X@X@X@X@X@X@X@X@X@X@X@X@X@X@X@X@X@X@X@X@X@X@X@X@X@X@X@X@X@X@X@X@X@X@X@X@X@X@X@X@X@X@X@X@X@X@X@X@X@X",
"@X@X@X@X@X@X@X@X@X@X@X@X@X@X@X@X@X@X@X@X@X@X@X@X@X@X@X@X@X@X@X@X@X@X@X@X@X@X@X@X@X@X@X@X@X@X@X@X@X@X@X@X@X@X@X@X@X@X@X@X",
"@X@X@X@X@X@X@X@X@X@X@X@X@X@X@X@X@X@X@X@X@X@X@X@X@X@X@X@X@X@X@X@X@X@X@X@X@X@X@X@X@X@X@X@X@X@X@X@X@X@X@X@X@X@X@X@X@X@X@X@X"
};
