/* XPM */
static char *_6724_0c99b4e24cc5070a46cdf066e82dbb1c9d92ac8303e47605a07fde50f01c1b5c_0[] = {
/* columns rows colors chars-per-pixel */
"60 60 256 2 ",
"   c None",
".  c #7E0127",
"X  c #77012B",
"o  c #7A012A",
"O  c #6E013C",
"+  c #730133",
"@  c #780132",
"#  c #71013A",
"$  c #680145",
"%  c #8D001E",
"&  c #9D0116",
"*  c #93011C",
"=  c #9A0119",
"-  c #9C091F",
";  c #A7000E",
":  c #AD010C",
">  c #B60004",
",  c #BD0204",
"<  c #B3030B",
"1  c #BB060B",
"2  c #BF090C",
"3  c #A40113",
"4  c #AB0413",
"5  c #A10419",
"6  c #A4091A",
"7  c #B00511",
"8  c #B30A13",
"9  c #BD0F12",
"0  c #B20E19",
"q  c #BD1114",
"w  c #B4151D",
"e  c #BB1118",
"r  c #B7181E",
"t  c #BA191D",
"y  c #830126",
"u  c #8B0122",
"i  c #800128",
"p  c #910220",
"a  c #810130",
"s  c #9F1C32",
"d  c #AA1624",
"f  c #B01520",
"g  c #BC1E22",
"h  c #BF2123",
"j  c #B12934",
"k  c #C30403",
"l  c #C60704",
"z  c #CF0B05",
"x  c #C40B0B",
"c  c #C90D0A",
"v  c #D30C03",
"b  c #DB0D01",
"n  c #D00D08",
"m  c #DD1206",
"M  c #D21109",
"N  c #D8170C",
"B  c #DC1A0D",
"V  c #C00D10",
"C  c #C41313",
"Z  c #CC1310",
"A  c #CC1814",
"S  c #C51B19",
"D  c #CB1C19",
"F  c #D11C15",
"G  c #D61E17",
"H  c #E50F00",
"J  c #E51303",
"K  c #EC1401",
"L  c #E21C0D",
"P  c #F11803",
"I  c #E21E10",
"U  c #C6211D",
"Y  c #CA211C",
"T  c #DE2315",
"R  c #D5261F",
"E  c #DB261D",
"W  c #DE2A1C",
"Q  c #EA220F",
"!  c #E22313",
"~  c #EF2C16",
"^  c #E12B1C",
"/  c #E92B18",
"(  c #F12A14",
")  c #EB311E",
"_  c #F1321B",
"`  c #C42524",
"'  c #CA2621",
"]  c #CB2A25",
"[  c #C32929",
"{  c #CA2C28",
"}  c #D42D24",
"|  c #DC2E22",
" . c #CD312C",
".. c #DC3224",
"X. c #D3342B",
"o. c #D83529",
"O. c #D3392F",
"+. c #DD3B2D",
"@. c #CC3A36",
"#. c #D43C32",
"$. c #DA3F33",
"%. c #E43423",
"&. c #EB3522",
"*. c #E63D2B",
"=. c #F23B25",
"-. c #CF443D",
";. c #DC4235",
":. c #D94539",
">. c #EC412D",
",. c #F1432C",
"<. c #EC4532",
"1. c #E54837",
"2. c #EB4937",
"3. c #ED4E3A",
"4. c #F24C34",
"5. c #F04E39",
"6. c #E6523F",
"7. c #EF533E",
"8. c #F1543D",
"9. c #CF4943",
"0. c #D24640",
"q. c #D34A42",
"w. c #DB4C40",
"e. c #DF5445",
"r. c #D8544A",
"t. c #DD5F52",
"y. c #E55241",
"u. c #EC5542",
"i. c #ED5A45",
"p. c #E75948",
"a. c #EB5E49",
"s. c #F05C44",
"d. c #DE6355",
"f. c #DC6559",
"g. c #EE614E",
"h. c #F0624C",
"j. c #F1684F",
"k. c #ED6451",
"l. c #EC6956",
"z. c #E36A5B",
"x. c #ED6E5A",
"c. c #F06B54",
"v. c #ED715B",
"b. c #F1745E",
"n. c #DE7164",
"m. c #E77462",
"M. c #ED7A65",
"N. c #E57A6B",
"B. c #F17460",
"V. c #F07B64",
"C. c #F07D68",
"Z. c #F0836D",
"A. c #E38074",
"S. c #EC8471",
"D. c #EF8B77",
"F. c #EC8B7A",
"G. c #F08771",
"H. c #F18973",
"J. c #F18D78",
"K. c #EF927E",
"L. c #F1927D",
"P. c #EF9682",
"I. c #EB998A",
"U. c #F09682",
"Y. c #F19A85",
"T. c #F19D8B",
"R. c #F1A18E",
"E. c #ECA596",
"W. c #EBA69B",
"Q. c #F1A492",
"!. c #F1A996",
"~. c #F0A698",
"^. c #F0AD9B",
"/. c #F1B09E",
"(. c #EFAEA2",
"). c #ECB4A7",
"_. c #F1B3A3",
"`. c #F0B8A7",
"'. c #F1BAAC",
"]. c #F0BEB2",
"[. c #EEC0B6",
"{. c #F1C1B6",
"}. c #F1C5BA",
"|. c #F0C8BD",
" X c #F0CBC2",
".X c #F0D0C6",
"XX c #F0D4CC",
"oX c #F0DAD4",
"OX c #F0E1DD",
"+X c #F0E5E1",
"@X c #F0ECEA",
"#X c #F0F2F2",
"$X c black",
"%X c black",
"&X c black",
"*X c black",
"=X c black",
"-X c black",
";X c black",
":X c black",
">X c black",
",X c black",
"<X c black",
"1X c black",
"2X c black",
"3X c black",
"4X c black",
"5X c black",
"6X c black",
"7X c black",
"8X c black",
"9X c black",
"0X c black",
"qX c black",
"wX c black",
"eX c black",
"rX c black",
"tX c black",
"yX c black",
"uX c black",
"iX c black",
"pX c black",
"aX c black",
"sX c black",
"dX c black",
"fX c black",
"gX c black",
"hX c black",
"jX c black",
"kX c black",
"lX c black",
"zX c black",
"xX c black",
"cX c black",
"vX c black",
"bX c black",
"nX c black",
"mX c black",
"MX c black",
"NX c black",
"BX c black",
"VX c black",
"CX c black",
"ZX c black",
"AX c black",
"SX c black",
"DX c black",
"FX c black",
"GX c black",
"HX c black",
"JX c black",
"KX c black",
"LX c black",
"PX c black",
"IX c black",
"UX c black",
/* pixels */
"                                                                                                                        ",
"                                                                                                                        ",
"                                                                                                                        ",
"                                                                                                                        ",
"                                                                                                                        ",
"                                                                                                                        ",
"                                                                                                                        ",
"                                                                                                                        ",
"                                                                                                                        ",
"                                                                                                                        ",
"                                                X o o o o o o X o                                                       ",
"                                            i % = 5 4 , < 5 * i o o o   o X                                             ",
"                                      o i & 1 o.7.g.k.h.h.g.$.2 % o X X o i i X                                         ",
"                                    . = < m Q j.H.^.oXOX}..X'.F.$.w - . X u 3 y o                                       ",
"                                  . = v K ,.C.~.}.`.{.oX}.{.{.{.Q.T.l.[ u * > > * .                                     ",
"                                u & v _ h.Y.!.{.(.S.3.2.{ ' ] &.&.i.G.v.r.g b b < u y                                   ",
"                              % x &.V.Q. XQ.b.6.A 8 < 3 % % % * 3 < C W p.x.c.=.T 3 * .                                 ",
"                            y x 3._.@XOXR.*.x 3 * i i i o o o o o i i 3 k } x.U.S.Y > = .                               ",
"                          o 4 &.G..X].k.D 5 u . o X X o i o o X o + # i * * c i.!.l.L < i X                             ",
"                        o u , %.'.'.i.c = i o o o o . o * . i . o + $ O + o * x e.Q.J.R = i X                           ",
"                      X . * ` W.'.i.c = y . . . u u u i . . u u o X O $ # o o * x i.!.f.: u o o                         ",
"                      o p ` W.OXk.x * y y y y y 3 k 3 = i i * 3 . o o # X o o y = x i.K.} * . o                         ",
"                    o u } J.OXR.! 3 o + + o . . u x ..m x p * < u i i o o o i u u * c x.C.8 i X o                       ",
"                    u q H.`.'.*.1 * X X o i = 3 y < ) _ ( A 3 Y s = < 4 u * & u . i = } L.9.y o o                       ",
"                  o 4 2.R.!.b.x y + X . u 3 = 4 p 6 ) P 4.#.> k 5 r 4.L : = 3 * . o * k g.d.* y u o                     ",
"                  u z 8.L.Q.y.3 o + O o . 3 , x 0.[ S N | X.; > F k.V.! : p = < u o u 3 | F.j * * .                     ",
"                o * v ,.Y.H.C y # $ $ X o 1 ~ >.#.m.N.z.V.W k k X.P.B.8 1 4 x 4 u * . u C H.w.k 1 y o                   ",
"                o * M c./.M.8 i O # X i = 3 $.Y.Q.Y.'.T.q.<.1 , C F.u.3  .) | 3 < = X i < a.Z.p.} * o                   ",
"                o = W B.Q.<.3 o o y * * * . 6 N.S.n.l.S.@.7.' { i.V.+.F v._ m < 8 i X i < >.!._.$.: .                   ",
"                o 7 P l.Q.*.* o o o o y y d -.%.l M 8.U.Q.J.h.B.v.>.>.W b._ b * o o X i 3 >.{.oXb.q o                   ",
"                o < K c.Y.] % o o . u p * < f : U ! y.R.oX+X{.L.;.o.:.^ i.T 3 . . o o i * {  X+XU.r o                   ",
"                i < J c.Y.' % o o o i u y = : 3 l v +.'.@X#X@X'.K.M.s.L 8 & i u u o o i * ' }.+XL.d o                   ",
"                i 4 K =.U.{ % X o o o . p R %.k , k 0.|.+X#X@XOX).:.u.x 3 4 3 p u i o o * *.|.+Xx.6 X                   ",
"                o * l / U.&.* . X o X y n ( _ k C @.r.!.^.XX^._.R.k.+.9.[ 1 = y y o X . 7 l.oXOXu.5 X                   ",
"                o * ; E R.<.; i X o i = k ~ &.1 1.`.Z.Z.G.c.1.t.U.c.h.J.w.% X o o o . i : >. X'.+.% X                   ",
"                o u * D T.k.< i o o u 3 , :.{ ..T._.S.1.S.5.B v.!.^.V.Z.u.0 . o . % 3 ; c M.}.k.0 . X                   ",
"                o o u r [.T.C = = o u * 3 = 3 } g.H.F.' x.8.B M.F.~.v.Z.P.y.= X @ a . = L H.P.S p . X                   ",
"                  X y R !.Q.) x u X . u i i p ;.,.C.R.m.a.Z o.' ' ' q ;.' t 3 . o @ . 4 y.Q.u.3 u .                     ",
"                    y E b.C.b.x y o o u . o u ] ,.v.0.h ' < ;.1.%.%.4 4 k 3 i o & = * z B.R.=.< y o                     ",
"                    . F ,.8.Y.} = i . y o o y 3 I W u 8 c 8 ..4.P H 3 i u * o o . y 5 *.Q.T.&.= o o                     ",
"                    o < J B P.x.c * u u o o y i u 3 . - q.u & } T L w i X o o o o * D R..Xm.2 u .                       ",
"                      = k > :.L.i.x * y o o . o X & . u g = o u & w #.0 u u y y * c k.OXT.} * u .                       ",
"                      y * 3 4 l.!.e.2 * o o o # . y . y & 3 o o y u 6 V = p p = c i._.~.^ < * .                         ",
"                      o i u = U E.`.i.c * o X # u @ y u p % X o o i . o u * 3 x i.Q.J.^ , < u o                         ",
"                        X . u 3 f._.!.i.c * y . u # u * o o o o o X o i * < F k.!.Y.) l , 3 i                           ",
"                            . u q x.T.Q.x.} 1 3 : u i i i i i i i i * 4 z *.U.{.`.L.,.K 1 y                             ",
"                              . & B =.B.Y.L.a.^ L x : : * * = 3 < 9 G y.B.]. X/.!.S.i.Z u                               ",
"                                i k b m Q 8.C.J.G.i.&.&.] ' %.2.3.S.Q./.!.J.N.d.:.e 6 u                                 ",
"                                  u = & 1 K ~ V.J.D.L.Y.'.{.}.XX.X_.U.p.@.q 4 * % .                                     ",
"                                    o o . = < B N C R w.z.A.I.R./.Y.8.v > = y X X                                       ",
"                                          . y * ; > & = 3 3 4 g @.#.O.e 3 u . o                                         ",
"                                              o i * * i . . . i * % y . .                                               ",
"                                                  o o o X X X o o o                                                     ",
"                                                                                                                        ",
"                                                                                                                        ",
"                                                                                                                        ",
"                                                                                                                        ",
"                                                                                                                        ",
"                                                                                                                        ",
"                                                                                                                        "
};
