/* XPM */
static char *_6724_0c99b4e24cc5070a46cdf066e82dbb1c9d92ac8303e47605a07fde50f01c1b5c_2[] = {
/* columns rows colors chars-per-pixel */
"60 60 256 2 ",
"   c #7E0027",
".  c #77012B",
"X  c #7A012A",
"o  c #730133",
"O  c #8E011E",
"+  c #960015",
"@  c #9D0015",
"#  c #93011D",
"$  c #9A011A",
"%  c #A6000F",
"&  c #AD010D",
"*  c #B40006",
"=  c #BB0204",
"-  c #B4030B",
";  c #BA060B",
":  c #BF090C",
">  c #A30113",
",  c #AA0412",
"<  c #AD0815",
"1  c #A1051A",
"2  c #A80619",
"3  c #A80919",
"4  c #B30511",
"5  c #B40A14",
"6  c #BE0D13",
"7  c #B40E19",
"8  c #B7131A",
"9  c #840126",
"0  c #8C0122",
"q  c #800128",
"w  c #900121",
"e  c #A50D20",
"r  c #BB1E22",
"t  c #A61D30",
"y  c #BC2327",
"u  c #C30503",
"i  c #CC0400",
"p  c #CD0A04",
"a  c #C10608",
"s  c #C40B0A",
"d  c #CA0D0A",
"f  c #D30C04",
"g  c #DA0D01",
"h  c #CC120D",
"j  c #D61006",
"k  c #DC1104",
"l  c #D4130A",
"z  c #DF1B0D",
"x  c #C41313",
"c  c #CE1915",
"v  c #C61E1C",
"b  c #CA1B19",
"n  c #C71915",
"m  c #D51C14",
"M  c #DD1E12",
"N  c #E00D01",
"B  c #E41203",
"V  c #EC1401",
"C  c #EB1906",
"Z  c #E31A0A",
"A  c #EA1D0A",
"S  c #F11501",
"D  c #F11A04",
"F  c #F11E09",
"G  c #E21F10",
"H  c #C4221F",
"J  c #CB201C",
"K  c #D92519",
"L  c #D7261B",
"P  c #EC220F",
"I  c #F0220C",
"U  c #E22415",
"Y  c #E72817",
"T  c #ED2B17",
"R  c #E52B1A",
"E  c #F12B16",
"W  c #EB321F",
"Q  c #F0331D",
"!  c #CB2621",
"~  c #CB2A25",
"^  c #CA2C28",
"/  c #C12727",
"(  c #D42D24",
")  c #DA2D21",
"_  c #CE322C",
"`  c #D93529",
"'  c #D7372C",
"]  c #D83D31",
"[  c #C43636",
"{  c #E43524",
"}  c #EB3522",
"|  c #ED3B26",
" . c #E63D2B",
".. c #EB3D29",
"X. c #F03620",
"o. c #F13922",
"O. c #F13E28",
"+. c #C6403F",
"@. c #D44239",
"#. c #D84438",
"$. c #DB4B3E",
"%. c #D6493F",
"&. c #ED412D",
"*. c #F1432C",
"=. c #E44533",
"-. c #EC4632",
";. c #EC4935",
":. c #ED4E3B",
">. c #E64B3A",
",. c #F14730",
"<. c #F14E3A",
"1. c #F14B34",
"2. c #EF513D",
"3. c #E6523F",
"4. c #F1533C",
"5. c #C94644",
"6. c #D04B45",
"7. c #DF5545",
"8. c #CD5C5A",
"9. c #D95A50",
"0. c #E45343",
"q. c #EE5742",
"w. c #ED5B46",
"e. c #E55C4C",
"r. c #EC5E49",
"t. c #F15C44",
"y. c #DD6559",
"u. c #EC624F",
"i. c #F1634C",
"p. c #E26455",
"a. c #EC6552",
"s. c #ED6B56",
"d. c #E66B5A",
"f. c #ED6E59",
"g. c #F16C54",
"h. c #EE755F",
"j. c #F1735C",
"k. c #DA6E66",
"l. c #DD766C",
"z. c #DF7D71",
"x. c #EA7764",
"c. c #ED7A65",
"v. c #EB7D6A",
"b. c #E2786B",
"n. c #F17C64",
"m. c #F07E69",
"M. c #F17460",
"N. c #F1846D",
"B. c #E38174",
"V. c #EC8572",
"C. c #EE8D79",
"Z. c #E58B7C",
"A. c #F18471",
"S. c #F18A75",
"D. c #F18F79",
"F. c #EF927E",
"G. c #F1927E",
"H. c #EC9887",
"J. c #F19682",
"K. c #F19A85",
"L. c #F19E8A",
"P. c #EA9D90",
"I. c #EFA18F",
"U. c #F1A18E",
"Y. c #EEA392",
"T. c #EAA398",
"R. c #F1A492",
"E. c #F0A896",
"W. c #F0AC9B",
"Q. c #F0B09E",
"!. c #F0B4A2",
"~. c #F1BAAD",
"^. c #F0B8A8",
"/. c #F0BEB2",
"(. c #F1C1B6",
"). c #F1C5BA",
"_. c #F1CABE",
"`. c #F0CCC2",
"'. c #F0D4CB",
"]. c #F0DBD4",
"[. c #F0E2DE",
"{. c #F0E6E2",
"}. c #F0ECEA",
"|. c #F0F2F2",
" X c None",
".X c black",
"XX c black",
"oX c black",
"OX c black",
"+X c black",
"@X c black",
"#X c black",
"$X c black",
"%X c black",
"&X c black",
"*X c black",
"=X c black",
"-X c black",
";X c black",
":X c black",
">X c black",
",X c black",
"<X c black",
"1X c black",
"2X c black",
"3X c black",
"4X c black",
"5X c black",
"6X c black",
"7X c black",
"8X c black",
"9X c black",
"0X c black",
"qX c black",
"wX c black",
"eX c black",
"rX c black",
"tX c black",
"yX c black",
"uX c black",
"iX c black",
"pX c black",
"aX c black",
"sX c black",
"dX c black",
"fX c black",
"gX c black",
"hX c black",
"jX c black",
"kX c black",
"lX c black",
"zX c black",
"xX c black",
"cX c black",
"vX c black",
"bX c black",
"nX c black",
"mX c black",
"MX c black",
"NX c black",
"BX c black",
"VX c black",
"CX c black",
"ZX c black",
"AX c black",
"SX c black",
"DX c black",
"FX c black",
"GX c black",
"HX c black",
"JX c black",
"KX c black",
"LX c black",
"PX c black",
"IX c black",
"UX c black",
/* pixels */
" X X X X X X X X X X X X X X X X X X X X X X X X X X X X X X X X X X X X X X X X X X X X X X X X X X X X X X X X X X X X",
" X X X X X X X X X X X X X X X X X X X X X X X X X X X X X X X X X X X X X X X X X X X X X X X X X X X X X X X X X X X X",
" X X X X X X X X X X X X X X X X X X X X X X X X X X X X X X X X X X X X X X X X X X X X X X X X X X X X X X X X X X X X",
" X X X X X X X X X X X X X X X X X X X X X X X X X X X X X X X X X X X X X X X X X X X X X X X X X X X X X X X X X X X X",
" X X X X X X X X X X X X X X X X X X X X X X X X X X X X X X X X X X X X X X X X X X X X X X X X X X X X X X X X X X X X",
" X X X X X X X X X X X X X X X X X X X X X X X X X X X X X X X X X X X X X X X X X X X X X X X X X X X X X X X X X X X X",
" X X X X X X X X X X X X X X X X X X X X X X X X X X X X X X X X X X X X X X X X X X X X X X X X X X X X X X X X X X X X",
" X X X X X X X X X X X X X X X X X X X X X X X X X X X X X X X X X X X X X X X X X X X X X X X X X X X X X X X X X X X X",
" X X X X X X X X X X X X X X X X X X X X X X X X X X X X X X X X X X X X X X X X X X X X X X X X X X X X X X X X X X X X",
" X X X X X X X X X X X X X X X X X X X X X X X X X X X X X X X X X X X X X X X X X X X X X X X X X X X X X X X X X X X X",
" X X X X X X X X X X X X X X X X X X X X X X X X. X X X X X   X X  XX  X X X X X X X X X X X X X X X X X X X X X X X X X",
" X X X X X X X X X X X X X X X X X X X X X Xq O $ 9 $ 1 [ 6 - u $ O 0 . X .  X X X X X X X X X X X X X X X X X X X X X X",
" X X X X X X X X X X X X X X X X X X XX X X X 9 0 # = B O.t.4.q.X.h > @ 0 0 X .  X X X X X X X X X X X X X X X X X X X X",
" X X X X X X X X X X X X X X X X X XX X X $ = 8 ^ ) B E m.R.U.U.W.D.&.R d & 0 X X  X X X X X X X X X X X X X X X X X X X",
" X X X X X X X X X X X X X X X X X  9 0 > h 2.n.D.U.(.G.E.!.(.(.!.'.).B.i.L ; 0 . X X  X X X X X X X X X X X X X X X X X",
" X X X X X X X X X X X X X X X X  @ & p z a.U.(.D.V.:.;.^ ! ~ } } w.J.!.'.R.;.s X X X X  X X X X X X X X X X X X X X X X",
" X X X X X X X X X X X X X X XO # f T :.L.R.K.3.c 5 - > O O O # > - x K e.[.K.! + 9 9 9 .  X X X X X X X X X X X X X X X",
" X X X X X X X X X X X X X X# a M w.S.Q.U. .s > 0 q q q X X X X X q q > u ( f.J.5 $ 0 $ @ X  X X X X X X X X X X X X X X",
" X X X X X X X X X X X X XX d ;.j.~./.a.b 1 # 0 9 q . X q   X   X o   0 # # d w.Q.+.@ ; p # X  X X X X X X X X X X X X X",
" X X X X X X X X X X X XO a T n.~.~.w.d $ 9 9 9 0 w > 0 0 w 0 0 0 0 X # w $ * s 7.R.@.j V s .  X X X X X X X X X X X X X",
" X X X X X X X X X X X  $ B g.L.~.w.d $ 9 q 0 $ & - * @ , - $ , # X X $ # w w # s w.E.g.t.B $ X  X X X X X X X X X X X X",
" X X X X X X X X X X X@ u R n.[.a.s # 9 9 > 9 = g T Z f , u * > * > X - < 0 0 9 $ s w.W.D.Q ; 9  X X X X X X X X X X X X",
" X X X X X X X X X XX 0 ` S.W.U.g , 9 9 # > p g S q.>.J u B = S S = 9 * 4 w # 0 0 # d E.!.A.J # X  X X X X X X X X X X X",
" X X X X X X X X X X  N n.U.~. .; # 0 > u a * V S i.!.9.R E S S S f % > * - $ 0 w 0 $ ( ].R.| & X  X X X X X X X X X X X",
" X X X X X X X X XX > C i.`.R.s 9 o 0 $ a f p B k ] l.y.K.K.I S o.*.V g k u & > # w 0 > u.N.T - X X  X X X X X X X X X X",
" X X X X X X X X X0 & U ).(.0.>   q # ; k f V -.' @ v & e.;.t.k U g.*.t.*.B g u & w w > ) C.&.- 0 X  X X X X X X X X X X",
" X X X X X X X XX . 6 r._.~.x @ X 9 9 w 0 > f D j & * _ J $.N.{ Z r.#.7.q.*.X.B - w > * x S.&.5 0 X X  X X X X X X X X X",
" X X X X X X X X. $ l g.Q.c.5 q . q X X 0 u } t.{ - > K.B.<.a.H k K > i y.L.n.B # w @ q - r.N.c 9 . X  X X X X X X X X X",
" X X X X X X X X.   k 4.R.-.> X X   9 * p V F ;.) R ' j.U.G...= f U - * y.x.m & # 0 . q - &.Y.S # X    X X X X X X X X X",
" X X X X X X X X. 4 f 4.R. .# X X 0 w = * S S l $.#.K 4.R.[.P.R 1.0.; * 7.7.; @ > w 0 q > &.C.b 0 X X  X X X X X X X X X",
" X X X X X X X X. # = N.~.~ O X 9 w * = * C X.R s.U i ,._.{.).G.Z.p.x Y 4.N.8 # # 0 q X # ^ R.7 0 9 X  X X X X X X X X X",
" X X X X X X X X. 9 f J.{.! O X X w @ * * u n.0.=.^ ] 0.}.|.}.`.p.w.L.V.=.g.Z 4 , w w q # ! W.M $ w O  X X X X X X X X X",
" X X X X X X X XX # ;.A.J.^ O . X 0 = * g O.I._ 5 8.V.J.[.|.}.~.*.T w.Y I T D = * w 0 9 # l R.R = & 0  X X X X X X X X X",
" X X X X X X X XX 1 Z t.J.} #   0 0 @ d a M q.d x F.N.D.W.'.|.!.V g f a V S S = & w X 0 #  .E.:.T - 9  X X X X X X X X X",
" X X X X X X X XX 2 V t.G.-.% X X $ = $ u e.d.@ v v.f.j.m.g._.L.} - - K i.P V * & > 0 9 & &.W.N.4.8 9  X X X X X X X X X",
" X X X X X X X XX $ p ;.S.a.- q X > * g t.D.] @ p < s <.O.S b.n.x.5 - ;.*.j = 0 9 9 X X d c.W.N.4.- 9  X X X X X X X X X",
" X X X X X X X XX $ * g D.L.x $ 0 w & B Q X.g - p s f  .j.h.6 6.C.w.u B D j * & > $ 0 0 Z ~.W.N.| , X  X X X X X X X X X",
" X X X X X X X X XX & = t.R.W , $ w $ - i C Y C V 2.a.} g.Y.5.t h G * f O.u.n * $ # # , 0.'.W.n.' #  X X X X X X X X X X",
" X X X X X X X X X  9 - V m.z.s 0 w w w - P ,.A B *.j.t.1.S.E.B.=.k.v B R @.) B $ % # p L.(.~.a.< X  X X X X X X X X X X",
" X X X X X X X X XX X 9 u A.'.( $ w w 9 w a u u p U w.F D Q f.v.J.U.*.S B u * 0 5 > 1  .|.|.P./ X X  X X X X X X X X X X",
" X X X X X X X X X XX . % i.~.(.d # 0 0 @ # @ * * e  .V B V < l %.P.Q S * * # 0 0 # b U.].T.y 9    X X X X X X X X X X X",
" X X X X X X X X X X XX @ { G.[.w.s # 9 w 0 w @ u 1 * = * 5 # # $ 5.*.B 0 0 9 9 # d a.[.Z.r 0 X    X X X X X X X X X X X",
" X X X X X X X X X X XX X l -.K.E.7.: # 0 0 w 0 > # 9 w # > - & $ 0 h - > 0 w $ d w.Q.j.H + # X  X X X X X X X X X X X X",
" X X X X X X X X X X XX X , B o.i.^.w.d # 0 w 0 , O X X w w w 0 0 0 $ # 0 # > s w.R.S.Q f # X X  X X X X X X X X X X X X",
" X X X X X X X X X X X X. w & g A <.E.w.d # 9 w 0 q -   X X 9 X # 9 w $ # - m a.E.!.N.W i 9 X  X X X X X X X X X X X X X",
" X X X X X X X X X X X X XX 9 $ = Z S D.f.( ; > > O = q q X X 9 & > # , p  .J.].).N.-.f 9 X  X X X X X X X X X X X X X X",
" X X X X X X X X X X X X X XX X # 4 S <.R.].r.R Z s & 3 # # $ > - f m 0.M.].].J.a.U $ 0 .  X X X X X X X X X X X X X X X",
" X X X X X X X X X X X X X X XX X 0 > k t.S.m.D.E.E.H.} ~ ! { ;.:.V.R.Q.E.A.R p 2 0 X .  X X X X X X X X X X X X X X X X",
" X X X X X X X X X X X X X X X XX   X @ ; V T n.D._.G.K.~.^.W.L.W.R.j.4.| l u * # X X  X X X X X X X X X X X X X X X X X",
" X X X X X X X X X X X X X X X X X X. X q $ - u U d.p.J.v.L.S.i.s.G R B f - - $ 9 X  X X X X X X X X X X X X X X X X X X",
" X X X X X X X X X X X X X X X X X X X X X. $ # % # , ` ] -...f - 0 O @ X . . X  X X X X X X X X X X X X X X X X X X X X",
" X X X X X X X X X X X X X X X X X X X X X X XX q q   q @ - * & @ X .   X  X X X X X X X X X X X X X X X X X X X X X X X",
" X X X X X X X X X X X X X X X X X X X X X X X X XX X X . . . X X X  X X X X X X X X X X X X X X X X X X X X X X X X X X",
" X X X X X X X X X X X X X X X X X X X X X X X X X X X X X X X X X X X X X X X X X X X X X X X X X X X X X X X X X X X X",
" X X X X X X X X X X X X X X X X X X X X X X X X X X X X X X X X X X X X X X X X X X X X X X X X X X X X X X X X X X X X",
" X X X X X X X X X X X X X X X X X X X X X X X X X X X X X X X X X X X X X X X X X X X X X X X X X X X X X X X X X X X X",
" X X X X X X X X X X X X X X X X X X X X X X X X X X X X X X X X X X X X X X X X X X X X X X X X X X X X X X X X X X X X",
" X X X X X X X X X X X X X X X X X X X X X X X X X X X X X X X X X X X X X X X X X X X X X X X X X X X X X X X X X X X X",
" X X X X X X X X X X X X X X X X X X X X X X X X X X X X X X X X X X X X X X X X X X X X X X X X X X X X X X X X X X X X",
" X X X X X X X X X X X X X X X X X X X X X X X X X X X X X X X X X X X X X X X X X X X X X X X X X X X X X X X X X X X X"
};
