/* XPM */
static char *_6724_0c99b4e24cc5070a46cdf066e82dbb1c9d92ac8303e47605a07fde50f01c1b5c_3[] = {
/* columns rows colors chars-per-pixel */
"60 60 256 2 ",
"   c #7F0026",
".  c #77012B",
"X  c #7A012A",
"o  c #6D013D",
"O  c #730134",
"+  c #7A0132",
"@  c #700139",
"#  c #670147",
"$  c #690144",
"%  c #8D001F",
"&  c #9D0116",
"*  c #93011D",
"=  c #9A011A",
"-  c #A6000E",
";  c #AC020D",
":  c #A60007",
">  c #B50006",
",  c #BB0204",
"<  c #B3020A",
"1  c #BA060A",
"2  c #BE0B0D",
"3  c #A30113",
"4  c #AA0413",
"5  c #A2051A",
"6  c #A90619",
"7  c #AA0B1B",
"8  c #A4081A",
"9  c #B40A15",
"0  c #BC0D12",
"q  c #B20511",
"w  c #AC121C",
"e  c #BF1112",
"r  c #BB141A",
"t  c #B6131B",
"y  c #840126",
"u  c #8B0122",
"i  c #810129",
"p  c #880129",
"a  c #910221",
"s  c #990824",
"d  c #960629",
"f  c #9A1833",
"g  c #AD1925",
"h  c #A51021",
"j  c #BA1C20",
"k  c #B92328",
"l  c #C30604",
"z  c #CA0401",
"x  c #C50807",
"c  c #CC0A04",
"v  c #C30B0B",
"b  c #CA0D0A",
"n  c #C10608",
"m  c #D40B02",
"M  c #DB0D01",
"N  c #D60F08",
"B  c #CA120C",
"V  c #D41007",
"C  c #D6180D",
"Z  c #D5140A",
"A  c #C41313",
"S  c #CA1412",
"D  c #CC1A15",
"F  c #CB1B19",
"G  c #C41E1D",
"H  c #D61D14",
"J  c #DA1D12",
"K  c #E41303",
"L  c #EB1201",
"P  c #E21508",
"I  c #E41C0C",
"U  c #EF1D08",
"Y  c #F21701",
"T  c #F11904",
"R  c #F11E08",
"E  c #D52319",
"W  c #DB2B1D",
"Q  c #DB261A",
"!  c #ED220D",
"~  c #F0230E",
"^  c #E62817",
"/  c #EE2914",
"(  c #E32818",
")  c #F02E17",
"_  c #EE321E",
"`  c #F1311B",
"'  c #CB2621",
"]  c #CC2A25",
"[  c #CA2D2A",
"{  c #C72727",
"}  c #D32C24",
"|  c #DB2D21",
" . c #D63126",
".. c #DD3326",
"X. c #DB362A",
"o. c #D73229",
"O. c #CC3834",
"+. c #D43D32",
"@. c #E63624",
"#. c #EB3522",
"$. c #EF3C27",
"%. c #E63D2B",
"&. c #EC3E29",
"*. c #F03C26",
"=. c #F13E28",
"-. c #D54439",
";. c #D8453A",
":. c #DE493C",
">. c #DE4336",
",. c #ED412D",
"<. c #F1442D",
"1. c #E54433",
"2. c #EC4A35",
"3. c #E44D3C",
"4. c #ED4F3A",
"5. c #EC4532",
"6. c #F14C35",
"7. c #F14F38",
"8. c #EA533F",
"9. c #E6523F",
"0. c #F1533C",
"q. c #DA4E44",
"w. c #DE5344",
"e. c #DA584D",
"r. c #D9554A",
"t. c #D75D54",
"y. c #DD5E52",
"u. c #E35342",
"i. c #EB5643",
"p. c #ED5A45",
"a. c #E55A4A",
"s. c #EB5E4B",
"d. c #E05748",
"f. c #F15A43",
"g. c #DC675C",
"h. c #ED624D",
"j. c #F1634C",
"k. c #F1684F",
"l. c #E46453",
"z. c #ED6451",
"x. c #E66957",
"c. c #EE6A54",
"v. c #EC6E5A",
"b. c #E36B5C",
"n. c #F16A53",
"m. c #F16F58",
"M. c #ED735D",
"N. c #F27057",
"B. c #F1735C",
"V. c #F2795F",
"C. c #DF7D71",
"Z. c #E67667",
"A. c #EE7662",
"S. c #ED7A65",
"D. c #EE7B69",
"F. c #F07661",
"G. c #F07B63",
"H. c #F07F6A",
"J. c #ED826D",
"K. c #F1826B",
"L. c #EC8673",
"P. c #F18771",
"I. c #F18A74",
"U. c #F08E7A",
"Y. c #ED917E",
"T. c #F0917C",
"R. c #EE9582",
"E. c #EE9986",
"W. c #F09682",
"Q. c #F09A86",
"!. c #F09D8A",
"~. c #F1A18D",
"^. c #F0A492",
"/. c #F1A996",
"(. c #F0AD9B",
"). c #F0B09E",
"_. c #F0B4A3",
"`. c #F1B7AB",
"'. c #F0BAAD",
"]. c #F0B8A7",
"[. c #F0BEB2",
"{. c #F0C2B6",
"}. c #F1C5BA",
"|. c #F0CCC3",
" X c #F0CFC8",
".X c #F1D4CC",
"XX c #F1D7D0",
"oX c #F0DBD5",
"OX c #F0E2DE",
"+X c #F0E6E2",
"@X c #F0EDEB",
"#X c #F1EAE7",
"$X c #F0F2F2",
"%X c None",
"&X c black",
"*X c black",
"=X c black",
"-X c black",
";X c black",
":X c black",
">X c black",
",X c black",
"<X c black",
"1X c black",
"2X c black",
"3X c black",
"4X c black",
"5X c black",
"6X c black",
"7X c black",
"8X c black",
"9X c black",
"0X c black",
"qX c black",
"wX c black",
"eX c black",
"rX c black",
"tX c black",
"yX c black",
"uX c black",
"iX c black",
"pX c black",
"aX c black",
"sX c black",
"dX c black",
"fX c black",
"gX c black",
"hX c black",
"jX c black",
"kX c black",
"lX c black",
"zX c black",
"xX c black",
"cX c black",
"vX c black",
"bX c black",
"nX c black",
"mX c black",
"MX c black",
"NX c black",
"BX c black",
"VX c black",
"CX c black",
"ZX c black",
"AX c black",
"SX c black",
"DX c black",
"FX c black",
"GX c black",
"HX c black",
"JX c black",
"KX c black",
"LX c black",
"PX c black",
"IX c black",
"UX c black",
/* pixels */
"%X%X%X%X%X%X%X%X%X%X%X%X%X%X%X%X%X%X%X%X%X%X%X%X%X%X%X%X%X%X%X%X%X%X%X%X%X%X%X%X%X%X%X%X%X%X%X%X%X%X%X%X%X%X%X%X%X%X%X%X",
"%X%X%X%X%X%X%X%X%X%X%X%X%X%X%X%X%X%X%X%X%X%X%X%X%X%X%X%X%X%X%X%X%X%X%X%X%X%X%X%X%X%X%X%X%X%X%X%X%X%X%X%X%X%X%X%X%X%X%X%X",
"%X%X%X%X%X%X%X%X%X%X%X%X%X%X%X%X%X%X%X%X%X%X%X%X%X%X%X%X%X%X%X%X%X%X%X%X%X%X%X%X%X%X%X%X%X%X%X%X%X%X%X%X%X%X%X%X%X%X%X%X",
"%X%X%X%X%X%X%X%X%X%X%X%X%X%X%X%X%X%X%X%X%X%X%X%X%X%X%X%X%X%X%X%X%X%X%X%X%X%X%X%X%X%X%X%X%X%X%X%X%X%X%X%X%X%X%X%X%X%X%X%X",
"%X%X%X%X%X%X%X%X%X%X%X%X%X%X%X%X%X%X%X%X%X%X%X%X%X%X%X%X%X%X%X%X%X%X%X%X%X%X%X%X%X%X%X%X%X%X%X%X%X%X%X%X%X%X%X%X%X%X%X%X",
"%X%X%X%X%X%X%X%X%X%X%X%X%X%X%X%X%X%X%X%X%X%X%X%X%X%X%X%X%X%X%X%X%X%X%X%X%X%X%X%X%X%X%X%X%X%X%X%X%X%X%X%X%X%X%X%X%X%X%X%X",
"%X%X%X%X%X%X%X%X%X%X%X%X%X%X%X%X%X%X%X%X%X%X%X%X%X%X%X%X%X%X%X%X%X%X%X%X%X%X%X%X%X%X%X%X%X%X%X%X%X%X%X%X%X%X%X%X%X%X%X%X",
"%X%X%X%X%X%X%X%X%X%X%X%X%X%X%X%X%X%X%X%X%X%X%X%X%X%X%X%X%X%X%X%X%X%X%X%X%X%X%X%X%X%X%X%X%X%X%X%X%X%X%X%X%X%X%X%X%X%X%X%X",
"%X%X%X%X%X%X%X%X%X%X%X%X%X%X%X%X%X%X%X%X%X%X%X%X%X%X%X%X%X%X%X%X%X%X%X%X%X%X%X%X%X%X%X%X%X%X%X%X%X%X%X%X%X%X%X%X%X%X%X%X",
"%X%X%X%X%X%X%X%X%X%X%X%X%X%X%X%X%X%X%X%X%X%X%X%X%X%X%X%X%X%X%X%X%X%X%X%X%X%X%X%X%X%X%X%X%X%X%X%X%X%X%X%X%X%X%X%X%X%X%X%X",
"%X%X%X%X%X%X%X%X%X%X%X%X%X%X%X%X%X%X%X%X%X%X%X%X. X . X X . . X X %XX %X%X%X%X%X%X%X%X%X%X%X%X%X%X%X%X%X%X%X%X%X%X%X%X%X",
"%X%X%X%X%X%X%X%X%X%X%X%X%X%X%X%X%X%X%X%X%X%X. % * y . . . . . . . i =   X . %X%X%X%X%X%X%X%X%X%X%X%X%X%X%X%X%X%X%X%X%X%X",
"%X%X%X%X%X%X%X%X%X%X%X%X%X%X%X%X%X%X%XX y u & 0 m  .8.9 & = u i . * ; & u u X . %X%X%X%X%X%X%X%X%X%X%X%X%X%X%X%X%X%X%X%X",
"%X%X%X%X%X%X%X%X%X%X%X%X%X%X%X%X%X%Xu 5 S ..l.c.n.B.H.U.Z.1.Q ' g 7 M L b ; u y X %X%X%X%X%X%X%X%X%X%X%X%X%X%X%X%X%X%X%X",
"%X%X%X%X%X%X%X%X%X%X%X%X%X%X%X%X%X% < L 7.K.~.).).~.{.}.#X_.{.^.R.M.$.*.7.W 1 3 * X X %X%X%X%X%X%X%X%X%X%X%X%X%X%X%X%X%X",
"%X%X%X%X%X%X%X%X%X%X%X%X%X%X%X%X% < M _ F.W.~.{.U.L.4.2.[ ' ] #.#.T.H.W.Q.s.2.M < X X X %X%X%X%X%X%X%X%X%X%X%X%X%X%X%X%X",
"%X%X%X%X%X%X%X%X%X%X%X%X%X%X%X% * m 6.T.{.^.Q.9.D 9 < 3 % % % * 3 < A W a.^.Q.' ^ l y y . %X%X%X%X%X%X%X%X%X%X%X%X%X%X%X",
"%X%X%X%X%X%X%X%X%X%X%X%X%X%Xi 4 J p.`.).~.%.v 3 u i . o $ $ X X X i i 3 l } v.W.B.V , =   X %X%X%X%X%X%X%X%X%X%X%X%X%X%X",
"%X%X%X%X%X%X%X%X%X%X%X%X%XX * b p.'.[.z.F y X O y i   $ # $ X   . O   . . * b p.).2.z 1 u . X %X%X%X%X%X%X%X%X%X%X%X%X%X",
"%X%X%X%X%X%X%X%X%X%X%X%X  n / G.'.'.p.b = . o $ $ . u = @ $ O u u u X   . . i v w.^.j.V * i . %X%X%X%X%X%X%X%X%X%X%X%X%X",
"%X%X%X%X%X%X%X%X%X%X%X  = P B.{.'.p.b = y i u O $ O a , 3 o O 4 * y u = . O . * v p./.t.5 y . . %X%X%X%X%X%X%X%X%X%X%X%X",
"%X%X%X%X%X%X%X%X%X%X%X& l ^ P.^.z.v * u & 3 < , M u 6 ) _ d X 6 > * < a o @ X i = v p.U.r u y y %X%X%X%X%X%X%X%X%X%X%X%X",
"%X%X%X%X%X%X%X%X%X%XX u z ^ (.~.M 4 @ + * i * c U O.r n.P.;.S U b & m s o X * u u * b /.-.4 * *   %X%X%X%X%X%X%X%X%X%X%X",
"%X%X%X%X%X%X%X%X%X%X. % G .X~.%.1 . o # # $ O * { j.M.K.(.!.G.n.O.% 1 * . i = u a . = } ~.o., ; u . %X%X%X%X%X%X%X%X%X%X",
"%X%X%X%X%X%X%X%X%XX   f j.(.H.v y O O @ @ O i * 0 n.G.Q._._.(.U. .y 3 3   u K 3 O @ O 3 h.Z.K < 3 i %X%X%X%X%X%X%X%X%X%X",
"%X%X%X%X%X%X%X%X%X. a ( }.(.u.3 . i . u * 3 ; , W N.H.I./.|.oXT.s.s < < % 4 ! 5 $ $ O 3 | P.K.! l y %X%X%X%X%X%X%X%X%X%X",
"%X%X%X%X%X%X%X%XX . 0 s.!.T.A & . y ; l m b ; l K X.h.(.k.W.U.i.f.h./ V -.<.3.i $ O u a A I.^.0.Q u X %X%X%X%X%X%X%X%X%X",
"%X%X%X%X%X%X%X%X. = <.G.U.Q.9 i .   * 4 7 = y h l.u.2.b.H ! *.H.B.G.6.f.G.N.D a * a & i < s.XX^.2.5 X %X%X%X%X%X%X%X%X%X",
"%X%X%X%X%X%X%X%X. 1 R 0.^.5.3 X .   y > * u % A h.B.| x ] T.G.G.7.f.K.!.G.G.4.K c 3 O O < ,.@X|.s.5   %X%X%X%X%X%X%X%X%X",
"%X%X%X%X%X%X%X%Xu < m 0.~.%.* X   u > , P h.G.6.` /.v.I m.OX!.f.8.{ !.(.Q.W.n./ v X $ $ 3 ,.$XoX:.3 X %X%X%X%X%X%X%X%X%X",
"%X%X%X%X%X%X%X%Xu * 7.K.'.] % i . X p p I n.^.^.2.l.c.K. X+X}.^.A.:.s.`._.K.i.v   $ $ o * [ $XXX+.y X %X%X%X%X%X%X%X%X%X",
"%X%X%X%X%X%X%X%X. 7 T W.+X' % . O o # @ [ K.{.|.L.l v. X@X$X@X|.K.C e.oX{.T.3.& O @ O . * ' $X`.E * . %X%X%X%X%X%X%X%X%X",
"%X%X%X%X%X%X%X%X  ; 2.P.W.[ % . $ $ + r p.K._.(.d.I Q.{.OX$X@X(.K.A.J.U.(.Q.7.N & a u . * Z @XG.v u . %X%X%X%X%X%X%X%X%X",
"%X%X%X%X%X%X%X%X  3 K 0.W.#.* $ # p < ` n.K.Q.W.c.&.` j.!.'.$Xn.3.D.m.) G.0.R Y ; a X . * %./.>.& u . %X%X%X%X%X%X%X%X%X",
"%X%X%X%X%X%X%X%X. 6 z *.T.5.- O O = < K @.A.G.T.z.c.1.y.I.P./.q.e p.n.1.3 5 5 u * y . y ; ,.J.0 * u . %X%X%X%X%X%X%X%X%X",
"%X%X%X%X%X%X%X%XX = c m I.z.< i X 3 = a 0 c.H.~.u.l.R.Y.^.Y :...u.x.M.D , 3 9 c ; u X X b R.P.2 3   . %X%X%X%X%X%X%X%X%X",
"%X%X%X%X%X%X%X%XX   > e U.!.A = u O $ i S N.4.i.+.x.Q.%.B.F.e.w.i.y.v.E T < v ; & u u u j J.K.D =   . %X%X%X%X%X%X%X%X%X",
"%X%X%X%X%X%X%X%X%X. ; , f.^._ 4 X $ @ * z F * 3 e | t.B.s.}.`./././.!.x.=.3 . o O     4 u./.M.e * * %X%X%X%X%X%X%X%X%X%X",
"%X%X%X%X%X%X%X%X%X  y < L H.C.v O @ X < 3 i O % k g = f.T.^._._.).T.M.7 & * . o O . * c k.{.Q , 3 X %X%X%X%X%X%X%X%X%X%X",
"%X%X%X%X%X%X%X%X%XX X y w.K.(.} = . a y y o @ u u ( = W V.W.(./.T.N.M.t u o o $ o . y %.T.S.B < = X %X%X%X%X%X%X%X%X%X%X",
"%X%X%X%X%X%X%X%X%X%XX . w.k.G.{.b * u u $ $ $ i v x = N 2.y.S.H.M.J u.~ b u o o . * F ~.Q.1.l ; u %X%X%X%X%X%X%X%X%X%X%X",
"%X%X%X%X%X%X%X%X%X%X%XX E ! #.T.p.v * i o # $ @ M x * , l a } 8.v.w % v u u y y * b z.T.6.Y c =   %X%X%X%X%X%X%X%X%X%X%X",
"%X%X%X%X%X%X%X%X%X%X%XX 4 , c i./.w.2 i O o O . 3 ; y a * @ + ; C ; O @ O u a = b p.).B.R Y x u %X%X%X%X%X%X%X%X%X%X%X%X",
"%X%X%X%X%X%X%X%X%X%X%XX X 4 < l K ].p.b * . . . 4 * < X a @ # o u u X O O X 3 v p.^.I.G.0.Z = X %X%X%X%X%X%X%X%X%X%X%X%X",
"%X%X%X%X%X%X%X%X%X%X%X%X. a ; & A H./.p.b * . . u i u   X @ # $ O y a   . % : z./..X^.M.&.4 X %X%X%X%X%X%X%X%X%X%X%X%X%X",
"%X%X%X%X%X%X%X%X%X%X%X%X%XX y = 5 $.K.~.R.} 1 3 3 % u i i X X o . y * 4 c %.W.oX}.K.g.;.y X %X%X%X%X%X%X%X%X%X%X%X%X%X%X",
"%X%X%X%X%X%X%X%X%X%X%X%X%X%XX X * q *.I.`./.s.( I v ; 8 * * = 3 < ; H u.F.W.R.x.X.- = u . %X%X%X%X%X%X%X%X%X%X%X%X%X%X%X",
"%X%X%X%X%X%X%X%X%X%X%X%X%X%X%XX X u 3 *.6.!.H.(.P.n.E.#.] ' @.2.4.L.^.)./.c.H 0 6 u X . %X%X%X%X%X%X%X%X%X%X%X%X%X%X%X%X",
"%X%X%X%X%X%X%X%X%X%X%X%X%X%X%X%XX   X & m S 8.G.U._.!.!.(.)._.!.(.XX'.Q.0.L l > * X X %X%X%X%X%X%X%X%X%X%X%X%X%X%X%X%X%X",
"%X%X%X%X%X%X%X%X%X%X%X%X%X%X%X%X%X%X. X & = < K ,.0.R ^ a.x.r.j.c.T.P.v.J K < y . X %X%X%X%X%X%X%X%X%X%X%X%X%X%X%X%X%X%X",
"%X%X%X%X%X%X%X%X%X%X%X%X%X%X%X%X%X%X%X%Xy . = * - m m z < 3 3 3 < u a a u . . X %X%X%X%X%X%X%X%X%X%X%X%X%X%X%X%X%X%X%X%X",
"%X%X%X%X%X%X%X%X%X%X%X%X%X%X%X%X%X%X%X%X%X%X%XX i u * u & u i   . . i   X %X%X%X%X%X%X%X%X%X%X%X%X%X%X%X%X%X%X%X%X%X%X%X",
"%X%X%X%X%X%X%X%X%X%X%X%X%X%X%X%X%X%X%X%X%X%X%X%X%XX X . . . . . . X %X%X%X%X%X%X%X%X%X%X%X%X%X%X%X%X%X%X%X%X%X%X%X%X%X%X",
"%X%X%X%X%X%X%X%X%X%X%X%X%X%X%X%X%X%X%X%X%X%X%X%X%X%X%X%X%X%X%X%X%X%X%X%X%X%X%X%X%X%X%X%X%X%X%X%X%X%X%X%X%X%X%X%X%X%X%X%X",
"%X%X%X%X%X%X%X%X%X%X%X%X%X%X%X%X%X%X%X%X%X%X%X%X%X%X%X%X%X%X%X%X%X%X%X%X%X%X%X%X%X%X%X%X%X%X%X%X%X%X%X%X%X%X%X%X%X%X%X%X",
"%X%X%X%X%X%X%X%X%X%X%X%X%X%X%X%X%X%X%X%X%X%X%X%X%X%X%X%X%X%X%X%X%X%X%X%X%X%X%X%X%X%X%X%X%X%X%X%X%X%X%X%X%X%X%X%X%X%X%X%X",
"%X%X%X%X%X%X%X%X%X%X%X%X%X%X%X%X%X%X%X%X%X%X%X%X%X%X%X%X%X%X%X%X%X%X%X%X%X%X%X%X%X%X%X%X%X%X%X%X%X%X%X%X%X%X%X%X%X%X%X%X",
"%X%X%X%X%X%X%X%X%X%X%X%X%X%X%X%X%X%X%X%X%X%X%X%X%X%X%X%X%X%X%X%X%X%X%X%X%X%X%X%X%X%X%X%X%X%X%X%X%X%X%X%X%X%X%X%X%X%X%X%X",
"%X%X%X%X%X%X%X%X%X%X%X%X%X%X%X%X%X%X%X%X%X%X%X%X%X%X%X%X%X%X%X%X%X%X%X%X%X%X%X%X%X%X%X%X%X%X%X%X%X%X%X%X%X%X%X%X%X%X%X%X",
"%X%X%X%X%X%X%X%X%X%X%X%X%X%X%X%X%X%X%X%X%X%X%X%X%X%X%X%X%X%X%X%X%X%X%X%X%X%X%X%X%X%X%X%X%X%X%X%X%X%X%X%X%X%X%X%X%X%X%X%X"
};
