/* XPM */
static char *_6724_0c99b4e24cc5070a46cdf066e82dbb1c9d92ac8303e47605a07fde50f01c1b5c_1[] = {
/* columns rows colors chars-per-pixel */
"60 60 256 2 ",
"   c #7D0027",
".  c #77012B",
"X  c #7A012A",
"o  c #730133",
"O  c #8E011E",
"+  c #9D0116",
"@  c #94011D",
"#  c #9A0119",
"$  c #A6000F",
"%  c #AC010D",
"&  c #B50106",
"*  c #BA0204",
"=  c #B3030B",
"-  c #BB0609",
";  c #BD0A0D",
":  c #A30113",
">  c #AA0312",
",  c #A20419",
"<  c #A4081A",
"1  c #AA0B19",
"2  c #B40610",
"3  c #B40B15",
"4  c #B90B13",
"5  c #BC1113",
"6  c #B7171D",
"7  c #840126",
"8  c #8C0122",
"9  c #800128",
"0  c #900121",
"q  c #9E0B20",
"w  c #9C0F28",
"e  c #9D1B31",
"r  c #AC1928",
"t  c #B61B22",
"y  c #BA2228",
"u  c #BA323A",
"i  c #C30503",
"p  c #CB0702",
"a  c #C60906",
"s  c #CD0904",
"d  c #C20608",
"f  c #C40B0B",
"g  c #CA0D0A",
"h  c #D40C03",
"j  c #DB0D01",
"k  c #D30E08",
"l  c #CB100E",
"z  c #DD1105",
"x  c #D1120A",
"c  c #DB160B",
"v  c #DD1C0E",
"b  c #C31413",
"n  c #C51C1A",
"m  c #CB1D18",
"M  c #CC1814",
"N  c #D41C13",
"B  c #E00D01",
"V  c #E51202",
"C  c #EB1402",
"Z  c #E31D0E",
"A  c #ED1F0B",
"S  c #E81806",
"D  c #F11601",
"F  c #F01C07",
"G  c #E21F10",
"H  c #CD231C",
"J  c #DC2114",
"K  c #D5251D",
"L  c #DD291C",
"P  c #F0230E",
"I  c #E42414",
"U  c #EE2B15",
"Y  c #E12C1D",
"T  c #F12E18",
"R  c #F12913",
"E  c #EC321E",
"W  c #E5301F",
"Q  c #F1331E",
"!  c #C41F20",
"~  c #CA2621",
"^  c #CC2A24",
"/  c #CA2C28",
"(  c #C32626",
")  c #D52D23",
"_  c #DC2E22",
"`  c #D22E28",
"'  c #D73025",
"]  c #D5342A",
"[  c #D5392E",
"{  c #DE3A2C",
"}  c #DC3124",
"|  c #C43636",
" . c #CB3834",
".. c #D33D34",
"X. c #DA3F32",
"o. c #EA3623",
"O. c #E63D2B",
"+. c #E93B29",
"@. c #E43423",
"#. c #F13C25",
"$. c #D6473C",
"%. c #DF4738",
"&. c #EC422E",
"*. c #F2422B",
"=. c #E44735",
"-. c #EE4531",
";. c #EB4937",
":. c #EC4E3B",
">. c #F24731",
",. c #F34F38",
"<. c #F14C35",
"1. c #EA523F",
"2. c #F0513A",
"3. c #C14347",
"4. c #D04B45",
"5. c #DE5445",
"6. c #DB574B",
"7. c #D35D57",
"8. c #E45343",
"9. c #EC5A45",
"0. c #E65B4B",
"q. c #ED5E48",
"w. c #E95744",
"e. c #F15B44",
"r. c #DD6154",
"t. c #EE624E",
"y. c #F1624B",
"u. c #ED6451",
"i. c #EE6A55",
"p. c #ED6F5A",
"a. c #E36758",
"s. c #F16B54",
"d. c #F06D59",
"f. c #F06550",
"g. c #EC735C",
"h. c #F0755E",
"j. c #D86660",
"k. c #DB7066",
"l. c #E26E61",
"z. c #E3796B",
"x. c #EC7D6B",
"c. c #EA7663",
"v. c #F07660",
"b. c #F17B64",
"n. c #F07E69",
"m. c #EF836E",
"M. c #F1816B",
"N. c #E48072",
"B. c #EC8471",
"V. c #ED8D7A",
"C. c #F18771",
"Z. c #F18974",
"A. c #F18E79",
"S. c #EF927E",
"D. c #F1927C",
"F. c #EE9986",
"G. c #EE9480",
"H. c #F19581",
"J. c #F19A85",
"K. c #F19E8A",
"L. c #E69B91",
"P. c #EDA08F",
"I. c #F0A18E",
"U. c #ECA393",
"Y. c #F1A592",
"T. c #F1A996",
"R. c #F0AD9B",
"E. c #F1B19E",
"W. c #F0ADA1",
"Q. c #F0B4A3",
"!. c #F0B7A9",
"~. c #F1BAAC",
"^. c #F0B8A7",
"/. c #F0BEB1",
"(. c #F1C1B6",
"). c #F1C5BA",
"_. c #F1CABF",
"`. c #F0CAC1",
"'. c #F1D0C6",
"]. c #F0D3CA",
"[. c #F0DAD4",
"{. c #F0E1DD",
"}. c #F0E6E3",
"|. c #F0E8E6",
" X c #F0ECEB",
".X c #F0F1F1",
"XX c None",
"oX c black",
"OX c black",
"+X c black",
"@X c black",
"#X c black",
"$X c black",
"%X c black",
"&X c black",
"*X c black",
"=X c black",
"-X c black",
";X c black",
":X c black",
">X c black",
",X c black",
"<X c black",
"1X c black",
"2X c black",
"3X c black",
"4X c black",
"5X c black",
"6X c black",
"7X c black",
"8X c black",
"9X c black",
"0X c black",
"qX c black",
"wX c black",
"eX c black",
"rX c black",
"tX c black",
"yX c black",
"uX c black",
"iX c black",
"pX c black",
"aX c black",
"sX c black",
"dX c black",
"fX c black",
"gX c black",
"hX c black",
"jX c black",
"kX c black",
"lX c black",
"zX c black",
"xX c black",
"cX c black",
"vX c black",
"bX c black",
"nX c black",
"mX c black",
"MX c black",
"NX c black",
"BX c black",
"VX c black",
"CX c black",
"ZX c black",
"AX c black",
"SX c black",
"DX c black",
"FX c black",
"GX c black",
"HX c black",
"JX c black",
"KX c black",
"LX c black",
"PX c black",
"IX c black",
"UX c black",
/* pixels */
"XXXXXXXXXXXXXXXXXXXXXXXXXXXXXXXXXXXXXXXXXXXXXXXXXXXXXXXXXXXXXXXXXXXXXXXXXXXXXXXXXXXXXXXXXXXXXXXXXXXXXXXXXXXXXXXXXXXXXXXX",
"XXXXXXXXXXXXXXXXXXXXXXXXXXXXXXXXXXXXXXXXXXXXXXXXXXXXXXXXXXXXXXXXXXXXXXXXXXXXXXXXXXXXXXXXXXXXXXXXXXXXXXXXXXXXXXXXXXXXXXXX",
"XXXXXXXXXXXXXXXXXXXXXXXXXXXXXXXXXXXXXXXXXXXXXXXXXXXXXXXXXXXXXXXXXXXXXXXXXXXXXXXXXXXXXXXXXXXXXXXXXXXXXXXXXXXXXXXXXXXXXXXX",
"XXXXXXXXXXXXXXXXXXXXXXXXXXXXXXXXXXXXXXXXXXXXXXXXXXXXXXXXXXXXXXXXXXXXXXXXXXXXXXXXXXXXXXXXXXXXXXXXXXXXXXXXXXXXXXXXXXXXXXXX",
"XXXXXXXXXXXXXXXXXXXXXXXXXXXXXXXXXXXXXXXXXXXXXXXXXXXXXXXXXXXXXXXXXXXXXXXXXXXXXXXXXXXXXXXXXXXXXXXXXXXXXXXXXXXXXXXXXXXXXXXX",
"XXXXXXXXXXXXXXXXXXXXXXXXXXXXXXXXXXXXXXXXXXXXXXXXXXXXXXXXXXXXXXXXXXXXXXXXXXXXXXXXXXXXXXXXXXXXXXXXXXXXXXXXXXXXXXXXXXXXXXXX",
"XXXXXXXXXXXXXXXXXXXXXXXXXXXXXXXXXXXXXXXXXXXXXXXXXXXXXXXXXXXXXXXXXXXXXXXXXXXXXXXXXXXXXXXXXXXXXXXXXXXXXXXXXXXXXXXXXXXXXXXX",
"XXXXXXXXXXXXXXXXXXXXXXXXXXXXXXXXXXXXXXXXXXXXXXXXXXXXXXXXXXXXXXXXXXXXXXXXXXXXXXXXXXXXXXXXXXXXXXXXXXXXXXXXXXXXXXXXXXXXXXXX",
"XXXXXXXXXXXXXXXXXXXXXXXXXXXXXXXXXXXXXXXXXXXXXXXXXXXXXXXXXXXXXXXXXXXXXXXXXXXXXXXXXXXXXXXXXXXXXXXXXXXXXXXXXXXXXXXXXXXXXXXX",
"XXXXXXXXXXXXXXXXXXXXXXXXXXXXXXXXXXXXXXXXXXXXXXXXXXXXXXXXXXXXXXXXXXXXXXXXXXXXXXXXXXXXXXXXXXXXXXXXXXXXXXXXXXXXXXXXXXXXXXXX",
"XXXXXXXXXXXXXXXXXXXXXXXXXXXXXXXXXXXXXXXXXXXXXXXX. X X X X X   X X XXX XXXXXXXXXXXXXXXXXXXXXXXXXXXXXXXXXXXXXXXXXXXXXXXXXX",
"XXXXXXXXXXXXXXXXXXXXXXXXXXXXXXXXXXXXXXXXXXXX9 O # i > * | 5 = , # O X . X . XXXXXXXXXXXXXXXXXXXXXXXXXXXXXXXXXXXXXXXXXXXX",
"XXXXXXXXXXXXXXXXXXXXXXXXXXXXXXXXXXXXXXX X 9 @ ; h o.p.v.v.V.-.&.{ l > 7 X X X . XXXXXXXXXXXXXXXXXXXXXXXXXXXXXXXXXXXXXXXX",
"XXXXXXXXXXXXXXXXXXXXXXXXXXXXXXXXXXXXX   8 # * V #.v.Z.I.).'.[.I.R.A.&.3 8 . X X X XXXXXXXXXXXXXXXXXXXXXXXXXXXXXXXXXXXXXX",
"XXXXXXXXXXXXXXXXXXXXXXXXXXXXXXXXXX  7 > H 8.1.q.Z.Y.(.[.).(.(.(.].].).N.! @ X X @ 7 X XXXXXXXXXXXXXXXXXXXXXXXXXXXXXXXXXX",
"XXXXXXXXXXXXXXXXXXXXXXXXXXXXXXXX  + % ' C._.].(.A.B.:.;./ ~ ^ o.o.9.C.Q.A.6.q 8 @ % 7 X XXXXXXXXXXXXXXXXXXXXXXXXXXXXXXXX",
"XXXXXXXXXXXXXXXXXXXXXXXXXXXXXX  @ h U Y.!.Y.h.1.M 3 = : O O O @ : = b L 0.E.k.# + i i O . XXXXXXXXXXXXXXXXXXXXXXXXXXXXXX",
"XXXXXXXXXXXXXXXXXXXXXXXXXXXX  8 > K Z.E.I.O.f : @ 9 9 9 X X X X X 9 9 : i ) p.H.] V C h 9 X XXXXXXXXXXXXXXXXXXXXXXXXXXXX",
"XXXXXXXXXXXXXXXXXXXXXXXXXXX > 1 J x./.u.m , 8   X . . X 9       X o   9 @ @ g 9.H.y.Z j # 8 XXXXXXXXXXXXXXXXXXXXXXXXXXXX",
"XXXXXXXXXXXXXXXXXXXXXXXX  8 J a.~.~.9.g # 9 X X X X   8 + @ 8 8 8 8 9 @ @ 9 @ f 5.Y.A.K * # . XXXXXXXXXXXXXXXXXXXXXXXXXX",
"XXXXXXXXXXXXXXXXXXXXXX  # N s.R.~.9.g # 8       8 8 & + > 4 % > @ 0 8 # & X 0 @ f 9.T.Z.Z = X X XXXXXXXXXXXXXXXXXXXXXXXX",
"XXXXXXXXXXXXXXXXXXXXXX+ N y.R.{.u.f @ 7 > s 7 7 : - n & s i & : & : @ 8 8 X 8 7 # f 9.S.>.z > X XXXXXXXXXXXXXXXXXXXXXXXX",
"XXXXXXXXXXXXXXXXXXXX7 f T s.R.I.j > 7 7 @ f i * * J D.*.V i * = * * : 8 X   @ 8 8 @ g p.H.v +   X XXXXXXXXXXXXXXXXXXXXXX",
"XXXXXXXXXXXXXXXXXXXX@ B #.K.~.O.- @ + + 8 8 + $ * = E w.P V i % * h $ . . 8 - 8   9 # ) D.{ : 7 X XXXXXXXXXXXXXXXXXXXXXX",
"XXXXXXXXXXXXXXXXXXX : S y.`.Y.f 7 o   8   9 O @ & : $ $.>.#...# * p : X O = h #   X @ : t.M.! 8 X X XXXXXXXXXXXXXXXXXXXX",
"XXXXXXXXXXXXXXXXXX8 % { H.(.8.:   9 + : 7 X 8 f > ( n c v.] N.w N & + 7 = * = @ 8 X X : _ V.$.@ X X XXXXXXXXXXXXXXXXXXXX",
"XXXXXXXXXXXXXXXXX . V q._.~.b + X   8 0 8 7 8 7 4 e.z.2.P e.c.> & = 2 # * & i i 8 X X 8 b Z.7.O X X X XXXXXXXXXXXXXXXXXX",
"XXXXXXXXXXXXXXXX. # x s.E.b.3 9 . 9 @ $ = f % : < 8.b.D.v.q.o.| b l.e.5 * 5 _ s @   . 9 = q.M.+ 9 9 X XXXXXXXXXXXXXXXXXX",
"XXXXXXXXXXXXXXXXX # L v.Y.-.: X X   : & s i * (  .a.i.B.c.r.+./  .F.5.= j %.=.= = 9 . 9 = &.U.t @ @   XXXXXXXXXXXXXXXXXX",
"XXXXXXXXXXXXXXXXX 2 -.b.Y.O.@ X X 8 % * & & * ^ H i } G.(.Y.N.v.p.K.m h #.R Y m : 7 X 9 : &.Y.K d 3 X XXXXXXXXXXXXXXXXXX",
"XXXXXXXXXXXXXXXXX # C v.J.^ O X 7 0 & * & > p v i I Z z._.}.).H.d.Q U B.2.F c ; @ 8 9 9 @ / Y.-.&.r X XXXXXXXXXXXXXXXXXX",
"XXXXXXXXXXXXXXXX9 # h w.J.~ O 9 7 0 + & & i } 8.g p _ ~. X.X X~.f.0.) B.=.s i i > 0 0 9 @ ~ R.I.b.5 O XXXXXXXXXXXXXXXXXX",
"XXXXXXXXXXXXXXXX9 @ = 8.H./ O . X 8 8 > * V T E * N 3.R.[..X X{.j.I i y r # : * & 0 8 X @ x _.~.D.K 8 XXXXXXXXXXXXXXXXXX",
"XXXXXXXXXXXXXXXXX @ : p.H.o.@   8 8 + & k C V g b L.P.Q.R.].R.Q.p.Z - y i > $ * % 0 8   * O.[.|.Z.K 9 XXXXXXXXXXXXXXXXXX",
"XXXXXXXXXXXXXXXXX   : V.(.-.$ X 9 # & # i C s 5 x.~.D.d.C.s.D.D.C.,.u r 2 * * & # 0 : + % &.`.{.D.6   XXXXXXXXXXXXXXXXXX",
"XXXXXXXXXXXXXXXXX . z i.Y.u.= 9 X % 8 : D k : * q.Z.b.h.R D z./.Q.D.b.@ 0 > * & # O @ # g b. X{.0., . XXXXXXXXXXXXXXXXXX",
"XXXXXXXXXXXXXXXXX X l e.A.K.b # 8   8 i s # : ) t.| [ q.N Y H 4...w.m.; # 8 # : # : & * Z ~..XW._   . XXXXXXXXXXXXXXXXXX",
"XXXXXXXXXXXXXXXXXX. 4 P e.Y.E > 8 . 8 8 i & 0 % : : > +.^ g.w.h p G W ; 8   @ # 7 7 @ > 8.]._.0.+ . XXXXXXXXXXXXXXXXXXXX",
"XXXXXXXXXXXXXXXXXX  : h C n.q.f 7 X X # p : 8 7 8 $ $ L H =.s.` > & > > 8 X O $ # $ @ s K.|.j.1 X X XXXXXXXXXXXXXXXXXXXX",
"XXXXXXXXXXXXXXXXXXX 8 = i r.J.) # 9   7 & @ 7 . 9 - h $.b * X.i.6.b * @ @ 8 8 8 8 : , O.J.i.= # X X XXXXXXXXXXXXXXXXXXXX",
"XXXXXXXXXXXXXXXXXXXX9 @ $ n F.p.g @ 8 8 + @ X X 8 h h - a * & x w.t.s & & & > 8 8 @ m I.M.I > 8   XXXXXXXXXXXXXXXXXXXXXX",
"XXXXXXXXXXXXXXXXXXXXXX9 7 > :.D.9.f @ 7 0 8 X   : * & * z * & & a K D i 8 8 7 7 @ g u.{.M.v @     XXXXXXXXXXXXXXXXXXXXXX",
"XXXXXXXXXXXXXXXXXXXXXXX X @ ^ J.T.5.; @ 8   X 7 = % * = = : @ @ # 8 f = 9 . 0 # g 9.|.!.s.c @ X XXXXXXXXXXXXXXXXXXXXXXXX",
"XXXXXXXXXXXXXXXXXXXXXXX X   b i.U.^.9.g @ 9 X   8 @ : @ 0 0 0 8 8     X X   : f 9.Y.|.H.I @ 8 X XXXXXXXXXXXXXXXXXXXXXXXX",
"XXXXXXXXXXXXXXXXXXXXXXXX. X = c ,.Z.T.9.g @ 7   8 9     8 0 7 X X . X 9 @ = N u.T.'.Z.L @ 7 X XXXXXXXXXXXXXXXXXXXXXXXXXX",
"XXXXXXXXXXXXXXXXXXXXXXXXXXXX  d A <.s.A.p.) - : : O   9 9 9 9 9 9 9 @ > s O.H.Q.h.{ : + 7 X XXXXXXXXXXXXXXXXXXXXXXXXXXXX",
"XXXXXXXXXXXXXXXXXXXXXXXXXXXXXX8 - p ) T J.D.q.Y Z f % < @ @ # : = 4 N 8.v.K.T.C.W * # 8 8 XXXXXXXXXXXXXXXXXXXXXXXXXXXXXX",
"XXXXXXXXXXXXXXXXXXXXXXXXXXXXXXX 7 8 : z A n.n.A.C.9.F.o.^ ~ @.;.:.B.Y.E.T.H.M.*.V i # 8 XXXXXXXXXXXXXXXXXXXXXXXXXXXXXXXX",
"XXXXXXXXXXXXXXXXXXXXXXXXXXXXXXXXX   9 + - C U b.A.Y.D.J.~.!.).I.R.Y.V.i.g.,.#.N f > 7 XXXXXXXXXXXXXXXXXXXXXXXXXXXXXXXXXX",
"XXXXXXXXXXXXXXXXXXXXXXXXXXXXXXXXXXXX. X 9 # = i f I K ..x.J.Y.D.i.G m 6 e q 7 O 9 XXXXXXXXXXXXXXXXXXXXXXXXXXXXXXXXXXXXXX",
"XXXXXXXXXXXXXXXXXXXXXXXXXXXXXXXXXXXXXXXXXX. # @ $ @ > # : ' ..' C h [ 7 X . . X XXXXXXXXXXXXXXXXXXXXXXXXXXXXXXXXXXXXXXXX",
"XXXXXXXXXXXXXXXXXXXXXXXXXXXXXXXXXXXXXXXXXXXXXXX 9 9   9   O # > @ O 8   X XXXXXXXXXXXXXXXXXXXXXXXXXXXXXXXXXXXXXXXXXXXXXX",
"XXXXXXXXXXXXXXXXXXXXXXXXXXXXXXXXXXXXXXXXXXXXXXXXXXX X X . . . X X X XXXXXXXXXXXXXXXXXXXXXXXXXXXXXXXXXXXXXXXXXXXXXXXXXXXX",
"XXXXXXXXXXXXXXXXXXXXXXXXXXXXXXXXXXXXXXXXXXXXXXXXXXXXXXXXXXXXXXXXXXXXXXXXXXXXXXXXXXXXXXXXXXXXXXXXXXXXXXXXXXXXXXXXXXXXXXXX",
"XXXXXXXXXXXXXXXXXXXXXXXXXXXXXXXXXXXXXXXXXXXXXXXXXXXXXXXXXXXXXXXXXXXXXXXXXXXXXXXXXXXXXXXXXXXXXXXXXXXXXXXXXXXXXXXXXXXXXXXX",
"XXXXXXXXXXXXXXXXXXXXXXXXXXXXXXXXXXXXXXXXXXXXXXXXXXXXXXXXXXXXXXXXXXXXXXXXXXXXXXXXXXXXXXXXXXXXXXXXXXXXXXXXXXXXXXXXXXXXXXXX",
"XXXXXXXXXXXXXXXXXXXXXXXXXXXXXXXXXXXXXXXXXXXXXXXXXXXXXXXXXXXXXXXXXXXXXXXXXXXXXXXXXXXXXXXXXXXXXXXXXXXXXXXXXXXXXXXXXXXXXXXX",
"XXXXXXXXXXXXXXXXXXXXXXXXXXXXXXXXXXXXXXXXXXXXXXXXXXXXXXXXXXXXXXXXXXXXXXXXXXXXXXXXXXXXXXXXXXXXXXXXXXXXXXXXXXXXXXXXXXXXXXXX",
"XXXXXXXXXXXXXXXXXXXXXXXXXXXXXXXXXXXXXXXXXXXXXXXXXXXXXXXXXXXXXXXXXXXXXXXXXXXXXXXXXXXXXXXXXXXXXXXXXXXXXXXXXXXXXXXXXXXXXXXX",
"XXXXXXXXXXXXXXXXXXXXXXXXXXXXXXXXXXXXXXXXXXXXXXXXXXXXXXXXXXXXXXXXXXXXXXXXXXXXXXXXXXXXXXXXXXXXXXXXXXXXXXXXXXXXXXXXXXXXXXXX"
};
