/* XPM */
static char *_1009_747520a201b36360e9d01e402d4ee632351198edde55ec7fd59a34082e7ae08d[] = {
/* columns rows colors chars-per-pixel */
"60 60 79 1 ",
"  c #000500",
". c #050B01",
"X c #080E04",
"o c #0B0E08",
"O c #0B1106",
"+ c #0D1309",
"@ c #11150D",
"# c #13190E",
"$ c #131612",
"% c #151A12",
"& c #191D15",
"* c #1D1F19",
"= c #1B2117",
"- c #1D221A",
"; c #21231D",
": c #232521",
"> c #262B24",
", c #292F25",
"< c #2A3026",
"1 c #2D322C",
"2 c #313632",
"3 c #363B32",
"4 c #393F35",
"5 c #3B4137",
"6 c #3D4239",
"7 c #42483E",
"8 c #454943",
"9 c #484A47",
"0 c #4D524C",
"q c #50554F",
"w c #535756",
"e c #535852",
"r c #5A5C57",
"t c #5F645E",
"y c #61665D",
"u c #5F6362",
"i c #676C64",
"p c #686E64",
"a c #6F746D",
"s c #767772",
"d c #797A74",
"f c #7D7E7A",
"g c #7D837C",
"h c #878984",
"j c #888A85",
"k c #8A9086",
"l c #8E908B",
"z c #90908E",
"x c #919690",
"c c #979B95",
"v c #9C9E9B",
"b c #9FA19E",
"n c #A3A49F",
"m c #9FA4A0",
"M c #A4A7A5",
"N c #A3A8A4",
"B c #A9ACA6",
"V c #A7ACA8",
"C c #A9AEAA",
"Z c #AFB0AB",
"A c #B2B3AE",
"S c #B6BCB2",
"D c #BBBEB7",
"F c #BEC1BB",
"G c #C1C1BF",
"H c #C6CBC5",
"J c #C9CAC6",
"K c #CBCCCB",
"L c #DCDDDB",
"P c #DBE0DC",
"I c #E0E2DD",
"U c #DFE3E2",
"Y c #EAECE7",
"T c #EAECEC",
"R c #F2F4EF",
"E c #F4F4F3",
"W c #F6FBF7",
"Q c #F8FAF5",
"! c #FDFFFD",
/* pixels */
"........ X. ....................X O+ .. ...O..............X.",
".........X @O X...................X .OOO.. .................",
"........ o .  O ................ XX.X. .+X..............X...",
"........o .o+..o................O.  X.$8#O.... .........XX..",
"........  o  o................... X+.  XO.  ...............O",
"........ooc*;v$.................O X. oXX................ ...",
"........o hLLz o..................X.X. oX..X............O. .",
"........ @n!!B$ ..............O..X  + oi  ..X...........&O..",
"........$dKEEKf*................O.O  gvL7.O.....+ .. .=5B0& ",
"......X. X vvXo ....O............ O  :!!g-. ... ..+OX -S!c+.",
".....XXXXo 99 oo................@ .XorvG4  .@OXX..X %. iFao ",
"....X.... @..@ ................. +. .* *> ++X  ...O  O % @ .",
"........o  X.. X.............O..  X.@ +o+ . ..#OO .+ .+.@7.O",
"..... ....o. oX.................%  o oo ..O X..  X X+ .  % O",
"......... X  X ................. ...o @..X+.. +X +O ..X++ O.",
".......X O .X o ................o XX o. ....O X O ..XX ... .",
"........ O. Xo X...@ .. X ..................O O.............",
"......... ..o % +O. =&O..X.......XX....X .. .+..............",
"........O.X.XX o O.#X  ........... ... .O X. O+.............",
"............ *3o. o .O .........O..X..XXX...O + ......O.....",
".........O+ o:D &uoooX O........X .O.... OX %. O............",
"........O  X  LMTV XX O ......... X+. ... O. %.O............",
"........ ++$iJ!EU$  @  +........O.$-O.+OX ..+.X ............",
"........+  *zKT!!u 9 $X ......... #=. .. 5X+k. O............",
"...X.......   KUpt< X. O................ sAJZ X .OX XXO ....",
"............+ogw .. ++ .................  Q!Lh$@...O ...O...",
"........ X..o.2  .. ...X................ jYEZ9*.O. - O +....",
"............  oXOOO. ......O............$; D6Xo  .+5$$  ....",
"........+. XXX X  ....X.................. .>>. o+..+ ..O....",
"........X....+ O@X.......................o  .O X. .O... ....",
"........ .O  . O...OO.................... $. .X.OX....XX....",
"....O........O ... .. .+................O  .O X .. X.. .....",
".OO.......................OO...X............................",
".O@...X.......XX.............. .............................",
".+O...........................................O.............",
"..O...X. ...................OX..............................",
"...............O...........XOX..............................",
"........X... .+#.O..........O...............................",
"............ .O#...............O............................",
".......X...X............X.....X+............................",
"........ .O @  O...........X %cV3..O.X X....O...............",
"........+  & X. ..........O. 1H!< .X X............. ........",
".X......$1xw  .O..........+. o0u% .O.X......................",
"........&MWPq@ X......... . X   O .. X.............. .....O.",
"........ m!m- o ......... O XOo+..X. .......................",
"........>q<i .$o..........O..   ...................O+O......",
"........o  * .  ........X ...X+O.......O........X...OO......",
"........ oX +..X.......X ..O..+... .O.......................",
"................................ .....X.....................",
".................................XX.....O...................",
"..X.............................XOOX........................",
"............O...................XOO.........................",
".................................X..........................",
".................................X....X.............O.......",
".......................O....................................",
"............................O...............................",
"........O....O.O......O.....................................",
"....................................................O.......",
".............O..............................................",
"..............O............................................."
};
