/* XPM */
static char *_7ed5a71c82d43dab72414a7783c0b51eBMB7Y1l2SrRsNUZ_0[] = {
/* columns rows colors chars-per-pixel */
"60 60 64 1 ",
"  c black",
". c gray13",
"X c #393939",
"o c #4A0000",
"O c #4A2139",
"+ c #080052",
"@ c #29007B",
"# c #313163",
"$ c #5A5A5A",
"% c gray42",
"& c #9C6342",
"* c #3900A5",
"= c #525A8C",
"- c #427BAD",
"; c #737BAD",
": c #4A00D6",
"> c #4A9CAD",
", c #6BA5F7",
"< c #A5A5A5",
"1 c #E7BDA5",
"2 c #A5CEF7",
"3 c #B5D6FF",
"4 c #BDFFFF",
"5 c gray84",
"6 c #CECEFF",
"7 c white",
"8 c #31396B",
"9 c #215A8C",
"0 c #297B8C",
"q c #4A84D6",
"w c #84A5CE",
"e c #84ADDE",
"r c gray87",
"t c black",
"y c black",
"u c black",
"i c black",
"p c black",
"a c black",
"s c black",
"d c black",
"f c black",
"g c black",
"h c black",
"j c black",
"k c black",
"l c black",
"z c black",
"x c black",
"c c black",
"v c black",
"b c black",
"n c black",
"m c black",
"M c black",
"N c black",
"B c black",
"V c black",
"C c black",
"Z c black",
"A c black",
"S c black",
"D c black",
"F c black",
/* pixels */
"                        +w=. ..  X$     .                   ",
"                  X      #                                  ",
"                    X           .      .                    ",
"      .                           X  . .          ..        ",
"                  .    ..                        .<X        ",
"                  .       .     .  .%.           .<X        ",
"                          .         $.  .         .         ",
"                .  .%.  ..               ..                .",
"                    O   =# .                                ",
"  8          .   .. X         .       .     .          =    ",
"  #                                                    #    ",
"                                                          X ",
"                 .           ..        ...                 .",
"                  $     X                                   ",
"  X                   X              .                 X    ",
"   X                     .                            .     ",
"..                   .                  ..@          X      ",
"            X        .                                    8.",
"            O                                          .  8.",
"             X                                         8+   ",
"                                                            ",
" X     X                ..        X.    X                   ",
".    .       X          %$          ..   .     .            ",
".                   . . .                .    .=.           ",
"  .                                    .     .#;#.          ",
"               =     X                         +            ",
"                                          .$                ",
"                                                          . ",
"      X                     ..     X                        ",
"                        X                      X     X      ",
"                          X                                 ",
"           .              .                      .          ",
"  X       X0.                          X              .     ",
"  $        .              .X           $                    ",
"     =.                   .X       .=              X        ",
"     ....                    +   . ..                       ",
"                           .=w+                             ",
"           X                +=                              ",
"                   .   X     .                              ",
"    X                                X                      ",
"      .  X       X ..           X     X          $          ",
"                              ...                        X  ",
"                   ..                                       ",
"                X       =#           .   .                  ",
"                        ..               .              .   ",
"                              $           X            O%   ",
"                      .       .         .      X        .   ",
"    +8          . .    .  .  .              .X              ",
"     .              X  .                 .                  ",
"                                   .  .       .         .   ",
"                    .      .                                ",
".                                                          .",
"                        .  ..                             .=",
"          . ..                                              ",
"                                    .                   .   ",
"               X       X                                    ",
"                            .                         .   ..",
"                     . .X                             .  .$$",
"          X      .            .       .       .     X       ",
"         X       =.   X. X.     X             8#        X  ."
};
