/* XPM */
static char *_8137_fe610f5c8c9952332e09aec12a8cedebc7156538a7a91e229ef83608f346008b[] = {
/* columns rows colors chars-per-pixel */
"60 60 225 2 ",
"   c #000000",
".  c #0A0A0B",
"X  c #1A0201",
"o  c #131313",
"O  c #1C1C1C",
"+  c #250102",
"@  c #2C0102",
"#  c #330202",
"$  c #3B0202",
"%  c #282727",
"&  c #383737",
"*  c #30302F",
"=  c #430202",
"-  c #4C0302",
";  c #4C0A05",
":  c #530302",
">  c #5C0402",
",  c #550A05",
"<  c #5D0A05",
"1  c #5C120A",
"2  c #630402",
"3  c #6B0502",
"4  c #630A03",
"5  c #6B0A03",
"6  c #740402",
"7  c #7A0501",
"8  c #740B02",
"9  c #7B0C02",
"0  c #671408",
"q  c #751205",
"w  c #7C1203",
"e  c #72140A",
"r  c #74190B",
"t  c #79190A",
"y  c #7C220C",
"u  c #464543",
"i  c #595857",
"p  c #52504E",
"a  c #61605F",
"s  c #6B6965",
"d  c #787773",
"f  c #716E69",
"g  c #830501",
"h  c #830C02",
"j  c #8A0C02",
"k  c #920A03",
"l  c #970B04",
"z  c #831303",
"x  c #8B1303",
"c  c #8C1B04",
"v  c #8B1D0A",
"b  c #861809",
"n  c #931303",
"m  c #9A1504",
"M  c #941C04",
"N  c #9B1C04",
"B  c #951C0A",
"V  c #871D10",
"C  c #A21C05",
"Z  c #A41D0A",
"A  c #8D2007",
"S  c #86280D",
"D  c #952306",
"F  c #9C2206",
"G  c #92220B",
"H  c #9A240A",
"J  c #9C2C0B",
"K  c #962A09",
"L  c #8D300F",
"P  c #9E320D",
"I  c #8C2515",
"U  c #852414",
"Y  c #9B2411",
"T  c #982A15",
"R  c #9B3311",
"E  c #A42406",
"W  c #A42C07",
"Q  c #A3240B",
"!  c #A42C0A",
"~  c #AB2C0A",
"^  c #AA2706",
"/  c #AD3505",
"(  c #A4350C",
")  c #AB320C",
"_  c #AB3B0E",
"`  c #A3380B",
"'  c #B43C0D",
"]  c #B6390B",
"[  c #AC3414",
"{  c #A93515",
"}  c #B43413",
"|  c #B53C14",
" . c #B93D16",
".. c #A92D0F",
"X. c #9E4214",
"o. c #B4440C",
"O. c #B9420B",
"+. c #B6480B",
"@. c #BD560F",
"#. c #AD4313",
"$. c #AB4519",
"%. c #A64415",
"&. c #B24312",
"*. c #BC4314",
"=. c #B34A15",
"-. c #BD4C14",
";. c #B5491B",
":. c #BB551B",
">. c #BD5C1E",
",. c #BB5514",
"<. c #AE410F",
"1. c #BE5C22",
"2. c #BE4720",
"3. c #BF6222",
"4. c #C1550E",
"5. c #C34A14",
"6. c #C34B19",
"7. c #C14414",
"8. c #C35216",
"9. c #C35C1B",
"0. c #C65A17",
"q. c #C86B16",
"w. c #C4631D",
"e. c #C8691A",
"r. c #CB781D",
"t. c #C75422",
"y. c #D45D25",
"u. c #C46424",
"i. c #C46925",
"p. c #C76E2A",
"a. c #CA6925",
"s. c #D56727",
"d. c #CC7224",
"f. c #CD742C",
"g. c #CB7929",
"h. c #D27B2C",
"j. c #D3752B",
"k. c #CE7A33",
"l. c #CC7836",
"z. c #D67C35",
"x. c #C26A30",
"c. c #827F7A",
"v. c #D27649",
"b. c #D2832A",
"n. c #D08427",
"m. c #CE8334",
"M. c #D38435",
"N. c #D48B3C",
"B. c #DA873A",
"V. c #D7933C",
"C. c #CF8423",
"Z. c #87857F",
"A. c #D78946",
"S. c #D99244",
"D. c #D5954A",
"F. c #DB934B",
"G. c #DB9D4C",
"H. c #D69645",
"J. c #DC8D56",
"K. c #DD9C54",
"L. c #DE9C5C",
"P. c #DA945A",
"I. c #E19759",
"U. c #E08D48",
"Y. c #DDA354",
"T. c #DBA45D",
"R. c #DE9767",
"E. c #E09663",
"W. c #DCA768",
"Q. c #DEB278",
"!. c #E4A36C",
"~. c #E3AC6C",
"^. c #E1A763",
"/. c #E2B16A",
"(. c #E3AB73",
"). c #E4AA76",
"_. c #E4B373",
"`. c #E7B57B",
"'. c #8B8984",
"]. c #9C988E",
"[. c #9E9B95",
"{. c #A19A8E",
"}. c #A6A296",
"|. c #ABA9A1",
" X c #BBB7AC",
".X c #BBB9B2",
"XX c #E7B484",
"oX c #E9BB83",
"OX c #E9BB8C",
"+X c #E9B683",
"@X c #EBBE91",
"#X c #CBBEAC",
"$X c #EAC18B",
"%X c #ECC295",
"&X c #EDC49C",
"*X c #EECC9C",
"=X c #ECC995",
"-X c #CCC7BB",
";X c #D7C8B1",
":X c #EECCA5",
">X c #EDC7A2",
",X c #F1CDA9",
"<X c #F1D4AB",
"1X c #F1D4A8",
"2X c #EBD9B9",
"3X c #F2D9B3",
"4X c #F4DDBB",
"5X c #F2D5B2",
"6X c #EFD0A3",
"7X c #F4E0BF",
"8X c #D2CDC2",
"9X c #D9D2C5",
"0X c #CDCBC5",
"qX c #E4DCCA",
"wX c #F5DFC1",
"eX c #EDE3CB",
"rX c #F4E3C3",
"tX c #F3E5CB",
"yX c #F7E8CD",
"uX c #E8E1D3",
"iX c #F5E9D3",
"pX c #F8EBD5",
"aX c #F4EAD7",
"sX c #F9F3E8",
"dX c None",
/* pixels */
"dXdXdXdXdXdXdXdXdXdXdXdXdXdXdXdXdXdXdXdXdXdXdXdXdXdXdXdXdXdXdXdXdXdXdXdXdXdXdXdXdXdXdXdXdXdXdXdXdXdXdXdXdXdXdXdXdXdXdXdX",
"dXdXdXdXdXdXdXdXdXdXdXdXdXdXdXdXdXdXdXdXdXdXdXdXdXdXdXdXdXdXdXdXdXdXdXdXdXdXdXdXdXdXdXdXdXdXdXdXdXdXdXdXdXdXdXdXdXdXdXdX",
"dXdXdXdXdXdXdXdXdXdXdXdXdXdXdXdXdXdXdXdXdXdXdXdXdXdXdXdXdXdXdXdXdXdXdXdXdXdXdXdXdXdXdXdXdXdXdXdXdXdXdXdXdXdXdXdXdXdXdXdX",
"dXdXdXdXdXdXdXdXdXdXdXdXdXdXdXdXdXdXdXdXdXdXdXdXdXdXdXdXdXdXdXdXdXdXdXdXdXdXdXdXdXdXdXdXdXdXdXdXdXdXdXdXdXdXdXdXdXdXdXdX",
"dXdXdXdXdXdXdXdXdXdXdXdXdXdXdXdXdXdXdXdXdXdXdXdXdXdXdXdXdXdXdXdXdXdXdXdXdXdXdXdXdXdXdXdXdXdXdXdXdXdXdXdXdXdXdXdXdXdXdXdX",
"dXdXdXdXdXdXdXdXdXdXdXdXdXdXdXdXdXdXdXdXdXdXdXdXdXdXdXdXdXdXdXdXdXdXdXdXdXdXdXdXdXdXdXdXdXdXdXdXdXdXdXdXdXdXdXdXdXdXdXdX",
"dXdXdXdXdXdXdXdXdXdXdXdXdXdXdXdXdXdXdXdXdXdXdXdXdXdXdXdXdXdXdXdXdXdXdXdXdXdXdXdXdXdXdXdXdXdXdXdXdXdXdXdXdXdXdXdXdXdXdXdX",
"dXdXdXdXdXdXdXdXdXdXdXdXdXdXdXdXdXdXdXdXdXdXdXdXdXdXdXdXdXdXdXdXdXdXdXdXdXdXdXdXdXdXdXdXdXdXdXdXdXdXdXdXdXdXdXdXdXdXdXdX",
"dXdXdXdXdXdXdXdXdXdXdXdXdXdXdXdXdXdXdXdXdXdXdXdXdXdX- : $ dXdXdXdXdXdXdXdXdXdXdXdXdXdXdXdXdXdXdXdXdXdXdXdXdXdXdXdXdXdXdX",
"dXdXdXdXdXdXdXdXdXdXdXdXdXdXdXdXdXdXdXdXdXdXdX- = = $ @ dXdXdXdXdXdXdXdXdXdXdXdXdXdXdXdXdXdXdXdXdXdXdXdXdXdXdXdXdXdXdXdX",
"dXdXdXdXdXdXdXdXdXdXdXdXdXdXdXdXdXdXdXdXdX4 : > - # + dXdXdXdXdX> 2 2 - = $ dXdXdXdXdXdXdXdXdXdXdXdXdXdXdXdXdXdXdXdXdXdX",
"dXdXdXdXdXdXdXdXdXdXdXdXdXdXdXdXX + @ > 5 : > : $ # - 8 7 8 e y S S L L S t 0 ; $ + dXdXdXdXdXdXdXdXdXdXdXdXdXdXdXdXdXdX",
"dXdXdXdXdXdXdXdXdXdXdXdXdXdX$ + + @ : 5 > : - = - w x v R $.=.$._ ` J K K K D G b q , dXdXdXdXdXdXdXdXdXdXdXdXdXdXdXdXdX",
"dXdXdXdXdXdXdXdXdXdXdXdXdX; $ + @ - 4 : > : : 5 c K %.1.=.( A b w q q w w w w w q w z w dXdXdXdXdXdXdXdXdXdXdXdXdXdXdXdX",
"dXdXdXdXdXdXdXdXdXdXdXdX1 , # @ = 4 : > 3 2 9 J $.u.,.J c c c M n n x j j h h x c z 9 8 8 dXdXdXdXdXdXdXdXdXdXdXdXdXdXdX",
"dXdXdXdXdXdXdXdXdXdXdXdXe : # # > > 2 9 3 z ( 1.u.#.P W F m n x x x x x j j j g h z M M z dXdXdXdXdXdXdXdXdXdXdXdXdXdXdX",
"dXdXdXdXdXdXdXdXdXdXdXr q - # - 4 2 g 7 9 #.p.i.=.<.~ E W _ =.1.>.>.,.=.` K z w h g g x N dXdXdXdXdXdXdXdXdXdXdXdXdXdXdX",
"dXdXdXdXdXdXdXdXdXdXdXV e - $ 4 6 h 9 8 #.l.p.>.=.) &.p.D.Y.Y.G.G.S.N.M.g.w.+.( c 9 7 g 7 dXdXdXdXdXdXdXdXdXdXdXdXdXdXdX",
"dXdXdXdXdXdXdXdXdXdXdXY 8 - - 5 j h 3 ( k.g.p.=.' p.W._.W.D.k.f.u.t.:.1.i.l.f.>.o.J z 9 7 7 dXdXdXdXdXdXdXdXdXdXdXdXdXdX",
"dXdXdXdXdXdXdXdXdXdXI Y 4 $ > 9 m 6 b f.m.m.3.:.D.`._.K.A.z.A.l.f.p.9.-.| ) &.u.u.&.W D 9 7 6 dXdXdXdXdXdXdXdXdXdXdXdXdX",
"dXdXdXdXdXdXdXdXdXdXI Y > = 3 x x 9 ;.N.m.p.1.P.OX(.L.L.!./._._.^.Y.F.M.d.,.) E =.i.$.W D z 6 dXdXdXdXdXdXdXdXdXdXdXdXdX",
"dXdXdXdXdXdXdXdXdXdXT Y : - 8 N h c l.m.N.3.R.@X(.(.oX=X1X3X3X3X6X$X(.K.S.m.w.o.F W w.$.F D w 3 dXdXdXdXdXdXdXdXdXdXdXdX",
"dXdXdXdXdXdXdXdXdXdXT I : > 9 N h $.A.N.m.A.%XXXXX*X1X2X9X-X8XqXtXrX<X$XT.S.M.r.<.D F >.%.c D q 2 dXdXdXdXdXdXdXdXdXdXdX",
"dXdXdXdXdXdXdXdXdX1 { B > 2 x m j p.N.H.k.XX&XOX1X2X XZ.i u u s ].;X5X:X%X~.A.b.r./ x D :.T x A 5 dXdXdXdXdXdXdXdXdXdXdX",
"dXdXdXdXdXdXdXdX+ 1 { Y > 5 M m M A.H.D.D.:X%X1X2X].u o       . % f #X:XOXXX^.M.C.q./ h K :.b x w 2 dXdXdXdXdXdXdXdXdXdX",
"dXdXdXdXdXdXdXdX$ 1 { Q 2 8 N m H D.H.F.).5X1X4X}.* .             o f 9X>X(.~.Y.n.C.@.F 9 _ %.8 z 8 dXdXdXdXdXdXdXdXdXdX",
"dXdXdXdXdXdXdXdX: , [ ) 6 9 N m ( K.G.F.OX2X4X-Xp .                 % [.uXOXJ.K.V.r.r./ h z =.y 9 w 3 dXdXdXdXdXdXdXdXdX",
"dXdXdXdXdXdXdXdX- ; {  .9 8 F C ( T.Y.P.>XwXrX{.O                     a qXwXR.v.V.C.r.@.N 9 J X.4 z 8 dXdXdXdXdXdXdXdXdX",
"dXdXdXdXdXdXdXdX$ ; K 6.z 8 N C ) T.T.L.:XyXqXd .                     & -XaX@Xv.M.b.q.q.E h z <.r 8 w dXdXdXdXdXdXdXdXdX",
"dXdXdXdXdXdXdXdX= - v 6.F 6 N E ) W.L.W.:XpXqXs .                     % .XaX,Xv.a.h.q.q./ x q ` L 3 9 dXdXdXdXdXdXdXdXdX",
"dXdXdXdXdXdXdXdX- > e 6._ 8 x ^ ( P.W.).%XaXuXs .                     * .XaX5XJ.t.d.q.q.o.k q A R 4 8 9 dXdXdXdXdXdXdXdX",
"dXdXdXdXdXdXdXdX: > 4 | 5.z z E ] l.Q.).OXiXaXZ.o                     u 0XaX,XE.;.0.e.4.@.m w w ` 0 2 9 dXdXdXdXdXdXdXdX",
"dXdXdXdXdXdXdXdXdX, : G s.J h N ] e.Q.(.OX2XsX.X*                   . d uXyX*XE. .6.e.4.@.m z q P 0 > 9 dXdXdXdXdXdXdXdX",
"dXdXdXdXdXdXdXdXdX4 : 5 t.8.z n / 4.D.W.XX:XaXuXd o               . &  XiX7X%XI. .*.0.4.,.m h w H 0 : 9 dXdXdXdXdXdXdXdX",
"dXdXdXdXdXdXdXdXdX5 > > ( j.W j N @.g.W.~.&X5XaX0Xs o           . & [.aXrX<X`.J.} ] 8.+.,.n h w c r : 6 dXdXdXdXdXdXdXdX",
"dXdXdXdXdXdXdXdX+ - 5 : 8 u.w.n n ~ r.V.~.`.:X7XeX8Xd & O o o % i |.uXrX5X@X!.l.~ } -.O.o.x x w z 0 - 6 dXdXdXdXdXdXdXdX",
"dXdXdXdXdXdXdXdX+ @ < > > G j.*.n N | h.G./.`.&XwXiXqX X].Z.'.|.8XaX7X1X=X!.I.t.^ ' ] O._ j h z z 0 = dXdXdXdXdXdXdXdXdX",
"dXdXdXdXdXdXdXdXX + $ 4 2 8 { j.} l E -.M.Y./.`.OX,X7XtXtXeXtXiXyX2X*XOX).I.A.[ Z *./ O.J g x w 9 < $ dXdXdXdXdXdXdXdXdX",
"dXdXdXdXdXdXdXdX+ + @ = 5 6 w $.s.} m ! ,.h.Y./.`.$X=X*X1X3X4X<X*X$X(.!.U.S.9.Z ^ *.E O.c g x z 8 , = dXdXdXdXdXdXdXdXdX",
"dXdXdXdXdXdXdXdXdX+ + # = 5 h x { y.7.C ! -.a.B.K._.`.oXOXoX+X`.~.I.I.A.A.j.^ C ) ~ ^ #.h g c w 5 ; = dXdXdXdXdXdXdXdXdX",
"dXdXdXdXdXdXdXdXdX= $ # # = 8 x n Y t.y.} ~  .0.j.M.S.G.Y.I.G.F.U.I.z.B.h.~ l m } m ] J 7 7 M 8 2 $ dXdXdXdXdXdXdXdXdXdX",
"dXdXdXdXdXdXdXdXdX, , = $ $ = 5 n N B  .y.y.t.7.*.0.w.s.j.j.B.U.A.j.M.d.~ l k ! E N _ z 7 h dX3 , # dXdXdXdXdXdXdXdXdXdX",
"dXdXdXdXdXdXdXdXdXdX0 e 4 : - $ > x N Z Z } t.s.z.z.B.B.B.B.j.s.d.h.u.E k k F W j / J 7 7 dXdXdX= dXdXdXdXdXdXdXdXdXdXdX",
"dXdXdXdXdXdXdXdXdXdXdXe V b 5 : = : 8 n Z Z Z ~ } 7.6.6.6.6.w.s.w.| m k j n E h C ( z 6 dXdXdXdXdXdXdXdXdXdXdXdXdXdXdXdX",
"dXdXdXdXdXdXdXdXdXdXdXdXr I Y B e > > 2 w N ^ ~ ] ] 7.7.5.5.*.~ m k k g x F 9 k ~ c 3 dXdXdXdXdXdXdXdXdXdXdXdXdXdXdXdXdX",
"dXdXdXdXdXdXdXdXdXdXdXdXdXdXI T T T V 9 7 9 x B Z ! ! ^ N m n j l x 9 x m 8 j C D 3 3 dXdXdXdXdXdXdXdXdXdXdXdXdXdXdXdXdX",
"dXdXdXdXdXdXdXdXdXdXdXdXdXdXdXdXI T { [ [ ..) ! J J J J R R T v e 9 n 9 2 7 n D 5 > dXdXdXdXdXdXdXdXdXdXdXdXdXdXdXdXdXdX",
"dXdXdXdXdXdXdXdXdXdXdXdXdXdXdXdXdXdXU T { [  . . . .&.[ K U e 8 j h 2 > 6 x x 8 dXdXdXdXdXdXdXdXdXdXdXdXdXdXdXdXdXdXdXdX",
"dXdXdXdXdXdXdXdXdXdXdXdXdXdXdXdXdXdXdXdXdXdXr t e 0 0 > 2 6 7 8 2 - 2 7 h z 8 dXdXdXdXdXdXdXdXdXdXdXdXdXdXdXdXdXdXdXdXdX",
"dXdXdXdXdXdXdXdXdXdXdXdXdXdXdXdXdXdXdXdXdXdXdXdXdX2 3 3 2 > : : > 7 9 9 z 8 dXdXdXdXdXdXdXdXdXdXdXdXdXdXdXdXdXdXdXdXdXdX",
"dXdXdXdXdXdXdXdXdXdXdXdXdXdXdXdXdXdXdXdXdXdXdXdX: - - $ $ = - 2 6 8 9 9 dXdXdXdXdXdXdXdXdXdXdXdXdXdXdXdXdXdXdXdXdXdXdXdX",
"dXdXdXdXdXdXdXdXdXdXdXdXdXdXdXdXdXdXdXdXdXdX@ @ + + # = : 5 6 6 8 9 dXdXdXdXdXdXdXdXdXdXdXdXdXdXdXdXdXdXdXdXdXdXdXdXdXdX",
"dXdXdXdXdXdXdXdXdXdXdXdXdXdXdXdXdXdXdXdXdXdXdXdX# = : 5 7 8 7 dXdXdXdXdXdXdXdXdXdXdXdXdXdXdXdXdXdXdXdXdXdXdXdXdXdXdXdXdX",
"dXdXdXdXdXdXdXdXdXdXdXdXdXdXdXdXdXdXdXdXdXdXdXdXdXdXdXdXdXdXdXdXdXdXdXdXdXdXdXdXdXdXdXdXdXdXdXdXdXdXdXdXdXdXdXdXdXdXdXdX",
"dXdXdXdXdXdXdXdXdXdXdXdXdXdXdXdXdXdXdXdXdXdXdXdXdXdXdXdXdXdXdXdXdXdXdXdXdXdXdXdXdXdXdXdXdXdXdXdXdXdXdXdXdXdXdXdXdXdXdXdX",
"dXdXdXdXdXdXdXdXdXdXdXdXdXdXdXdXdXdXdXdXdXdXdXdXdXdXdXdXdXdXdXdXdXdXdXdXdXdXdXdXdXdXdXdXdXdXdXdXdXdXdXdXdXdXdXdXdXdXdXdX",
"dXdXdXdXdXdXdXdXdXdXdXdXdXdXdXdXdXdXdXdXdXdXdXdXdXdXdXdXdXdXdXdXdXdXdXdXdXdXdXdXdXdXdXdXdXdXdXdXdXdXdXdXdXdXdXdXdXdXdXdX",
"dXdXdXdXdXdXdXdXdXdXdXdXdXdXdXdXdXdXdXdXdXdXdXdXdXdXdXdXdXdXdXdXdXdXdXdXdXdXdXdXdXdXdXdXdXdXdXdXdXdXdXdXdXdXdXdXdXdXdXdX",
"dXdXdXdXdXdXdXdXdXdXdXdXdXdXdXdXdXdXdXdXdXdXdXdXdXdXdXdXdXdXdXdXdXdXdXdXdXdXdXdXdXdXdXdXdXdXdXdXdXdXdXdXdXdXdXdXdXdXdXdX",
"dXdXdXdXdXdXdXdXdXdXdXdXdXdXdXdXdXdXdXdXdXdXdXdXdXdXdXdXdXdXdXdXdXdXdXdXdXdXdXdXdXdXdXdXdXdXdXdXdXdXdXdXdXdXdXdXdXdXdXdX"
};
