/* XPM */
static char *_e96f0e29cbd469ec0ba280b1f6fdb89cSnDFrQEDZUV1wDW[] = {
/* columns rows colors chars-per-pixel */
"60 60 222 2 ",
"   c None",
".  c black",
"X  c #0B0A0A",
"o  c #081A01",
"O  c #131313",
"+  c gray11",
"@  c #0E2501",
"#  c #102C01",
"$  c #123302",
"%  c #143B02",
"&  c #272827",
"*  c #2F3030",
"=  c #373837",
"-  c #174302",
";  c #174C05",
":  c #194C02",
">  c #1B5302",
",  c #1A5505",
"<  c #1D5C02",
"1  c #1C5D05",
"2  c #1C5C0A",
"3  c #1B6303",
"4  c #1F6302",
"5  c #1D6B03",
"6  c #1A6708",
"7  c #1D7402",
"8  c #1C7505",
"9  c #1F7B02",
"0  c #1B7C03",
"q  c #1F740B",
"w  c #1F790A",
"e  c #1A7C0C",
"r  c #216B02",
"t  c #247402",
"y  c #247A01",
"u  c #21720A",
"i  c #434644",
"p  c #4E524F",
"a  c #575957",
"s  c #5F615F",
"d  c #656B67",
"f  c #69716B",
"g  c #737875",
"h  c #1C8303",
"j  c #1F8B03",
"k  c #198C04",
"l  c #198D07",
"z  c #19860D",
"x  c #168D0F",
"c  c #179506",
"v  c #1A9404",
"b  c #1C9B04",
"n  c #1A9C06",
"m  c #159609",
"M  c #1F920B",
"N  c #169E0D",
"B  c #1E9A0A",
"V  c #189C0B",
"C  c #149E16",
"Z  c #1B9B11",
"A  c #218302",
"S  c #278301",
"D  c #248A02",
"F  c #228609",
"G  c #208B0A",
"H  c #219303",
"J  c #2A9203",
"K  c #2C9704",
"L  c #239A04",
"P  c #24950A",
"I  c #298710",
"U  c #288514",
"Y  c #2B8C15",
"T  c #2A9B11",
"R  c #2A9815",
"E  c #0BAD05",
"W  c #0FA30B",
"Q  c #14A407",
"!  c #1BA406",
"~  c #19AA06",
"^  c #14A40C",
"/  c #19A40A",
"(  c #13AB0E",
")  c #10AE0F",
"_  c #1CAB0A",
"`  c #19AB0C",
"'  c #0CB40E",
"]  c #0CB90B",
"[  c #14B60B",
"{  c #13B40D",
"}  c #15A616",
"|  c #14AD13",
" . c #1CAB19",
".. c #0BB611",
"X. c #0FBD1E",
"o. c #14B212",
"O. c #15B317",
"+. c #14BD16",
"@. c #1BBC14",
"#. c #1EB51B",
"$. c #20A205",
"%. c #23A30B",
"&. c #28A40A",
"*. c #22A90F",
"=. c #24A915",
"-. c #25AC14",
";. c #26B413",
":. c #20B514",
">. c #23B916",
",. c #14BB20",
"<. c #1BBB22",
"1. c #1EBD29",
"2. c #22BE2A",
"3. c #22BF30",
"4. c #0EC11C",
"5. c #16C314",
"6. c #1BC114",
"7. c #16C31B",
"8. c #1DC319",
"9. c #17C622",
"0. c #1BC326",
"q. c #1DC42E",
"w. c #16C832",
"e. c #1AC831",
"r. c #25C722",
"t. c #25D425",
"y. c #27D52F",
"u. c #24C431",
"i. c #25C436",
"p. c #25CA34",
"a. c #2AC73C",
"s. c #24CC3C",
"d. c #2BD33F",
"f. c #1DCB40",
"g. c #2CCD40",
"h. c #29CB45",
"j. c #23CF4D",
"k. c #33CE48",
"l. c #36CC48",
"z. c #2CD246",
"x. c #27D04E",
"c. c #2AD24D",
"v. c #35D648",
"b. c #34CE52",
"n. c #35D351",
"m. c #3ADA54",
"M. c #3CD45A",
"N. c #3CD761",
"B. c #49D24A",
"V. c #46D75B",
"C. c #48E05C",
"Z. c #44D962",
"A. c #4BDB65",
"S. c #45D668",
"D. c #4AD569",
"F. c #4CDB6F",
"G. c #56DC62",
"H. c #5ADA6B",
"J. c #54DD70",
"K. c #54DD77",
"L. c #5CDE72",
"P. c #5DDB7C",
"I. c #67DE71",
"U. c #59E16B",
"Y. c #63E06E",
"T. c #63E17F",
"R. c #6CE47D",
"E. c #7F8782",
"W. c #68DC82",
"Q. c #78DE91",
"!. c #6CE386",
"~. c #6AE28B",
"^. c #73E387",
"/. c #76E487",
"(. c #73E48F",
"). c #7BE792",
"_. c #848B87",
"`. c #8E9C94",
"'. c #959E98",
"]. c #8EA194",
"[. c #96A69D",
"{. c #A1ABA6",
"}. c #ACBBB2",
"|. c #B2BBB6",
" X c #84E794",
".X c #83E995",
"XX c #83E99A",
"oX c #8CE99D",
"OX c #ACCBB4",
"+X c #B1D7BC",
"@X c #8BEAA3",
"#X c #91EBA1",
"$X c #95ECA6",
"%X c #95ECAD",
"&X c #9CEDAA",
"*X c #9CEEB2",
"=X c #A2EDAF",
"-X c #A5EEB5",
";X c #A3EFB8",
":X c #A9F1B6",
">X c #A8F1BD",
",X c #ABF1BE",
"<X c #BBCCC2",
"1X c #B9EBC9",
"2X c #B2F2C1",
"3X c #B3F2C5",
"4X c #BBF4CB",
"5X c #BFF4CF",
"6X c #C5CDC8",
"7X c #C2D2C8",
"8X c #C5D9CC",
"9X c #C1F5CE",
"0X c #CAE4D4",
"qX c #CBEDD8",
"wX c #D3E8DA",
"eX c #C3F4D3",
"rX c #CBF3D8",
"tX c #CDF7DB",
"yX c #D3F5DE",
"uX c #D7F4E1",
"iX c #D5F8E0",
"pX c #E8F9EE",
/* pixels */
"                                                                                                                        ",
"                                                                                                                        ",
"                                                                                                                        ",
"                                                                                                                        ",
"                                                                                                                        ",
"                                                                                                                        ",
"                                                                                                                        ",
"                                                                                                                        ",
"                                                    : > %                                                               ",
"                                              : - - % #                                                                 ",
"                                          3 > < : $ @           < 4 4 : - %                                             ",
"                                o @ # < 5 > < > % $ : 7 y 7 u e z z x x z w 6 ; % @                                     ",
"                            % @ @ # > 5 < > : - : 0 D G Z  .O. .( ^ V m m m c M G 8 ,                                   ",
"                          ; % @ # : 3 > < > > 5 k m } 2.O.^ l F 0 8 8 0 0 0 0 0 8 0 h 0                                 ",
"                        2 , $ # - 3 > < r 4 9 V  .u.X.V k k l v v H j D D h A D k h y 7 7                               ",
"                        u > $ $ < < 4 9 r h ^ 2.u.| N Q n L H j j j j D D D D S h h v v h                               ",
"                      q 8 : $ : 3 4 S y 9 | a.i.O.| _ ! Q ( O.2.1.1.,.O.^ m h 0 A S S D n                               ",
"                      I u : % 3 t A 9 7 | l.a.1.O.` o.a.D.K.K.F.F.Z.M.n.h.q.' ^ l 0 y S y                               ",
"                      T 7 : : 5 D A r ^ k.h.a.O.{ a.W.(.W.D.k.d.u.r.<.2.i.l.d.1.' V h 0 y y                             ",
"                    Y T 3 % < 9 L t F g.b.b.3.<.D.).(.J.V.v.V.l.g.a.0.+.#.` ( u.u.o.Q v y y t                           ",
"                    Y T < - r j j 9 #.M.b.a.2.H.@X^.L.L.R.~.(.(.T.K.A.n.s.,.` ! O.i. .Q c h t                           ",
"                    R T > : 7 n A l l.b.M.2.I.#X^.^.XX%X;X3X3X3X;X@X^.J.Z.b.q.' n Q q. .n c 0 5                         ",
"                    R Y > < y b A  .V.M.b.V.$X X X*X;X1X8X<X7X0XrXeX,X@XP.Z.n.f.( c n 1.} k c 8 4                       ",
"                  2 =.P < 4 j L D a.M.S.k. X&XoX>X1X}._.a i i d `.+X2X-X$X!.V.c.f.E j c <.R j k 5                       ",
"                @ 2 =.T < 5 v L v V.S.D.D.-X$X,X1X`.i O . . . X & f OX-XoX XT.n.j.w.E A m <.F j 0 4                     ",
"                % 2 =.%.r 7 b L B D.S.A.^.2X,X4X[.* X . . . . . . O f 8X=X^.!.K.j.j.X.V 9 ( } 7 h 7                     ",
"                > , -.` t 9 n L ^ J.F.A.oX1X4X<Xp X . . . . . . . . & '.wXoXG.J.N.f.f.) h h O.e 9 0 r                   ",
"                ; ; =.>.t 7 n ! ^ P.K.H.=X9XeX].+ . . . . . . . . . . s 0X9XI.B.N.j.e.X.n y V } 3 h 7                   ",
"                % ; m 8.h 7 b ! ` P.P.L.-XtX0Xg X . . . . . . . . . . = <XuX#XB.n.c.w.w.! A h ( q 7 0                   ",
"                - : M @.b t b ! ` W.L.W.-XyX0Xd X . . . . . . . . . . & |.uX:XB.p.z.w.w.E j 8 W x r 9                   ",
"                : < u 8.( 7 D ~ ^ H.W.^.$XuXwXd X . . . . . . . . . . * |.uX2XG.r.s.w.w.' J 8 l Z 3 7 9                 ",
"                > < 4 :.5.h h ! [ l.Q./.oXyXyX_.O . . . . . . . . . . i 6XuX:XY.#.9.e.4.X.L 0 0 W 6 4 9                 ",
"                  , > M y.V A b [ e.Q.^.oX1XpX|.* . . . . . . . . . X g wXtX*XY.>.8.e.4.X.L h 8 N 6 < 9                 ",
"                  3 > 5 r.7.h H E 4.D.W. X-XuXwXg O . . . . . . . X = }.yX9X$XH.>.@.9.4.X.L A 0 B 6 > 9                 ",
"                  5 < < ^ d.Q D b X.h.W.!.&X2XuX6Xd O . . . . . X = '.uXeX,X).G.;.[ 7...,.H A 0 l q > t                 ",
"                @ : 5 > 7 u.q.H H _ f.N.!.).-X5XqX7Xg = + O O & a {.wXeX2X#XR.l._ ;.+.] ' j D 0 h 6 : t                 ",
"                @ # 1 < < M d.@.H b :.z.F.~.).&X9XyX0X}.`.E._.{.7XuX5X,X%XR.U.r.~ { [ ] ( D A h h 6 -                   ",
"                o @ % 3 4 7 =.d.;.K ! +.n.K.~.).oX:X5XrXrXqXrXyXtX1X*XoX/.U.V.-.&.@.E ] N S D 0 9 1 %                   ",
"                @ @ # - 5 t 0  .y.;.L / ,.z.K.~.).@X%X*X,X3X4X,X*X@X^.R.C.Z.0.&.~ @.! ] k S j h 7 , -                   ",
"                  @ @ $ - 5 A j =.t.6.$./ +.p.m.J.(.).XXoXXX.X).!.U.U.V.V.d.~ ! ` _ ~ | h S k 0 5 ; -                   ",
"                  - % $ $ - 7 j H T r.t.;._ >.9.d.n.Z.F.K.U.F.A.C.U.v.m.z._ K L ;.L [ V y y v 7 4 %                     ",
"                  , , - % % - 5 H b P >.t.t.r.6.@.9.q.y.d.d.m.C.V.d.n.s._ K J / ! b ( h y A   r , $                     ",
"                    6 u 3 > : % < j b &.&.;.r.y.v.v.m.m.m.m.d.y.s.z.u.! J J b Q D E V y y       -                       ",
"                      u I F 5 > - > 7 H &.&.&._ ;.6.8.8.8.8.q.y.q.:.L J D H ! A $.^ h t                                 ",
"                        q Y T P u < < 4 0 b ~ _ [ [ 6.6.5.5.@._ L J J S j n 0 J _ l r                                   ",
"                            Y R R R I 9 y 9 j P &./ / ~ b L H D K D 0 j L 7 D $.v r r                                   ",
"                                Y R =.-.-.*.` / V V V V Z Z R G u 0 H 0 4 y H c 5 <                                     ",
"                                    U R =.-.>.>.>.>.o.-.m U u 7 D y r < t j j 7                                         ",
"                                            q w u 6 6 < 4 t y 7 r : 4 y A h 7                                           ",
"                                                  4 r r 4 < > > < t 9 9 h 7                                             ",
"                                                > : : % % - : 4 t 7 9 9                                                 ",
"                                            # # @ @ $ - > 5 t t 7 y                                                     ",
"                                                $ - > 5 y 7 y                                                           ",
"                                                                                                                        ",
"                                                                                                                        ",
"                                                                                                                        ",
"                                                                                                                        ",
"                                                                                                                        ",
"                                                                                                                        ",
"                                                                                                                        "
};
