/* XPM */
static char *_6263_ac64daf02358f42e391d93005ee4618d31eb4fad12f7da2484a425c7d90cc619[] = {
/* columns rows colors chars-per-pixel */
"60 60 238 2 ",
"   c #060609",
".  c #0C0B0C",
"X  c #070907",
"o  c #100F0E",
"O  c #031501",
"+  c #061903",
"@  c #0D150D",
"#  c #0B1A08",
"$  c #12100F",
"%  c #121B0E",
"&  c #0C0C13",
"*  c #0F1013",
"=  c #0F1813",
"-  c #141313",
";  c #181715",
":  c #151A13",
">  c #1A1B16",
",  c #16151A",
"<  c #171B1C",
"1  c #1C1C1B",
"2  c #211F1C",
"3  c #0B2503",
"4  c #122A0C",
"5  c #153907",
"6  c #1B2315",
"7  c #1A2B14",
"8  c #1C241B",
"9  c #1E2B1B",
"0  c #162812",
"q  c #1C3314",
"w  c #1C3D14",
"e  c #1C361B",
"r  c #0F3606",
"t  c #22231E",
"y  c #222A1C",
"u  c #24321C",
"i  c #233B1B",
"p  c #263A1A",
"a  c #1C1D23",
"s  c #201E20",
"d  c #1E2424",
"f  c #1D2822",
"g  c #242323",
"h  c #292624",
"j  c #242B24",
"k  c #2A2A25",
"l  c #23242D",
"z  c #242B2C",
"x  c #2E2C2A",
"c  c #312E2B",
"v  c #2B3323",
"b  c #2C3C22",
"n  c #2A3726",
"m  c #34342D",
"M  c #343C2C",
"N  c #2A2B34",
"B  c #272834",
"V  c #383531",
"C  c #3A3A33",
"Z  c #373834",
"A  c #303234",
"S  c #413D38",
"D  c #154402",
"F  c #1C450C",
"G  c #1B4A08",
"H  c #1D5B0C",
"J  c #1D5205",
"K  c #1E4710",
"L  c #22450F",
"P  c #205C03",
"I  c #21540D",
"U  c #245C0C",
"Y  c #244D13",
"T  c #254319",
"R  c #2C421D",
"E  c #294B1C",
"W  c #214415",
"Q  c #265415",
"!  c #295C16",
"~  c #2B521C",
"^  c #295914",
"/  c #325C1C",
"(  c #256B0C",
")  c #27690A",
"_  c #2A730E",
"`  c #2C7C0B",
"'  c #277604",
"]  c #34780C",
"[  c #2C6314",
"{  c #2C6C11",
"}  c #2D631B",
"|  c #326C1B",
" . c #34691B",
".. c #2B7513",
"X. c #337314",
"o. c #347C13",
"O. c #35751A",
"+. c #3B7C1D",
"@. c #39781A",
"#. c #2C4A21",
"$. c #294123",
"%. c #324D22",
"&. c #34432B",
"*. c #354C29",
"=. c #394B2C",
"-. c #324524",
";. c #2F5624",
":. c #345423",
">. c #3C5B2A",
",. c #385529",
"<. c #394737",
"1. c #3E5532",
"2. c #366422",
"3. c #336B23",
"4. c #3B6C24",
"5. c #3E6C2C",
"6. c #3A632B",
"7. c #3D7423",
"8. c #3B7C23",
"9. c #3B7826",
"0. c #44433B",
"q. c #494E3D",
"w. c #444C39",
"e. c #465139",
"r. c #465639",
"t. c #426A2B",
"y. c #43742C",
"u. c #447E2B",
"i. c #457B25",
"p. c #446334",
"a. c #4A633B",
"s. c #4A6C36",
"d. c #4C7535",
"f. c #4B7C33",
"g. c #457732",
"h. c #4C4C43",
"j. c #4A4540",
"k. c #514C47",
"l. c #534E49",
"z. c #4F5242",
"x. c #57544A",
"c. c #5D5751",
"v. c #546942",
"b. c #646457",
"n. c #60794B",
"m. c #2C8204",
"M. c #2C8806",
"N. c #348D05",
"B. c #338B0C",
"V. c #348809",
"C. c #359404",
"Z. c #369B04",
"A. c #399B03",
"S. c #34920C",
"D. c #399C0B",
"F. c #36980B",
"G. c #348314",
"H. c #348C13",
"J. c #3B831A",
"K. c #3E8B1D",
"L. c #3A8A15",
"P. c #339314",
"I. c #3B9513",
"U. c #3C9C13",
"Y. c #3A9719",
"T. c #3BA40C",
"R. c #3DA90C",
"E. c #3CA606",
"W. c #3CAA13",
"Q. c #3BA115",
"!. c #3D8324",
"~. c #3E8B22",
"^. c #3E9022",
"/. c #42951C",
"(. c #439B1B",
"). c #439A18",
"_. c #438C1C",
"`. c #41AB0E",
"'. c #42A606",
"]. c #42B40C",
"[. c #45B60A",
"{. c #43A413",
"}. c #46A21C",
"|. c #49AC1C",
" X c #45AA18",
".X c #43B313",
"XX c #49BB13",
"oX c #48B619",
"OX c #50B81D",
"+X c #428526",
"@X c #438D23",
"#X c #45842C",
"$X c #458C2A",
"%X c #498A2A",
"&X c #459323",
"*X c #459B23",
"=X c #4B9C25",
"-X c #4C9B2B",
";X c #47952A",
":X c #4C8733",
">X c #4B9334",
",X c #569D36",
"<X c #539234",
"1X c #4CAD23",
"2X c #4CA32A",
"3X c #4AA828",
"4X c #51A42E",
"5X c #52AC2B",
"6X c #52AE26",
"7X c #4DB125",
"8X c #4FB921",
"9X c #53BD26",
"0X c #53BA2B",
"qX c #56B72A",
"wX c #5BBC33",
"eX c #56B732",
"rX c #55A930",
"tX c #4ACB0C",
"yX c #49C70D",
"uX c #4CC213",
"iX c #4CC716",
"pX c #51C91C",
"aX c #4CD415",
"sX c #52D915",
"dX c #50D60C",
"fX c #5AE21C",
"gX c #55CC23",
"hX c #57C828",
"jX c #56DA25",
"kX c #59C734",
"lX c #52CE27",
"zX c #61CC33",
"xX c #64D334",
"cX c #66EC35",
"vX c #5B8545",
"bX c #5CAB43",
"nX c #67CC49",
"mX c None",
/* pixels */
"mXmXmXmXmXmXmXmXmXmXmXmXmXmXmXmXmXmXmXmXmXmXmXmXmXmXmXmXmXmXmXmXmXmXmXmXmXmXmXmXmXmXmXmXmXmXmXmXmXmXmXmXmXmXmXmXmXmXmXmX",
"mXmXmXmXmXmXmXmXmXmXmXmXmXmXmXmXmXmXmXmXmXmXmXmXmXmXmXmXmXmXmXmXmXmXmXmXmXmXmXmXmXmXmXmXmXmXmXmXmXmXmXmXmXmXmXmXmXmXmXmX",
"mXmXmXmXmXmXmXmXmXmXmXmXmXmXmXmXmXmXmXmXmXmXmXmXmXmXmXmXmXmXmXmXmXmXmXmXmXmXmXmXmXmXmXmXmXmXmXmXmXmXmXmXmXmXmXmXmXmXmXmX",
"mXmXmXmXmXmXmXmXmXmXmXmXmXmXmXmXmXmXmXmXmXmXmXmXmXmXmXmXmXmXmXmXmXm V w.;X:X0.y mXmXmXmXmXmXmXmXmXmXmXmXmXmXmXmXmXmXmXmX",
"mXmXmXmXmXmXmXmXmXmXmXmXmXmXmXmXmXmXmXmXmXmXmXmXmXmXmXmXmXmXmXmXmXmXmXmXmXp.r.J.} mXmXmXmXmXmXmXmXmXmXmXmXmXmXmXmXmXmXmX",
"mXmXmXmXmXmXmXmXmXmXmXmXmXmXmXmXmXmXmXmXmXmXmXmXmXmXmXmXmXmXmXmXmXmXmXmXmXc k mX^ k t mXmXmXmXmXmXmXmXmXmXmXmXmXmXmXmXmX",
"mXmXmXmXmXmXmXmXmXmXmXmXmXmXmXmXmXmXmXmXmXmXmXmXmXmXmXmXmXmXmXmXmXmXmXmXmXm ; mXmXmXmX2 mXmXmXmXmXmXmXmXmXmXmXmXmXmXmXmX",
"mXmXmXmXmXmXmXmXmXmXmXmXmXmXmXmXmXmXmXmXmXmXmXmXmXmXmXmXmXmXmXmXmXmXmXmX2 x mXmXmXmXmXmX- mXmXmXmXmXmXmXmXmXmXmXmXmXmXmX",
"mXmXmXmXmXmXmXmXmXmXmXmXmX- mXmXmXmXmXmXmXmXmXmXmXmXmXmXmXmXmXmXmXmX> o k g mXmXmXmXmXmXmXmXmXmXmXmXmXmXmXmXmXmXmXmXmXmX",
"mXmXmXmXmXmXmXmXmXmXmXmXk mXmXmXmXmXmXmXmXmXmXmXmXmXmXmXmXmXm V h ; h - c - - mXmXmXmXmXmXmXmXmXmXmXmXmXmXmXmXmXmXmXmXmX",
"mXmXmXmXmXmXmXmXmXmXV m mXmXmXmXmXmXmXmXmXmXmXmXmXC.tXXXA.V.h.l.h t g > x o 2 mXmXmXmXmXmXmXmXmXmXmXmXmXmXmXmXmXmXmXmXmX",
"mXmXmXmXmXmXmXmXmXe.V mXmXmXmXmXmXmXmXmXmXM.` A.'.OX7X7XfXjXa.k.%.v 6 k t > 2 - 1 mXmXmXmXmXmXmXmXmXmXmXmXmXmXmXmXmXmXmX",
"mXmXmXmXmXmXmXk f.$XmXmXmXmXmXmXmXmXmXmXR.aXaX@X:X2X}.}.gXnXa.5.+Xc 0 M 7 j > > h g mXmXmXmXmXmXmXmXmXmXmXmXmXmXmXmXmXmX",
"mXmXmXmXmXmXmXk.vXW mXmXmXmXmXmXj x 7 A.aX^.Y.0XnXkXgXgXoXf.x.f.i.c 8 V 7 g w Z c s mXmXmXmXmXmXmXmXmXmXmXmXmXmXmXmXmXmX",
"mXmXmXmXmXmXu d.x.S mXmXmXmXmX2 S l.=.jXcXoX8XpX*XY.aXsXaX .M u.E & m c y y 8.&.M [ P mXmXmXmXmXmXmXmXmXmXmXmXmXmXmXmXmX",
"mXmXmXmXmXmX5.L.: V 0.g X 2 1 > c c.h.bXnXlXlXjXW.K.P._ ) _ 6X6X@.Y z.8 - w :X<.^.aX[.C.mXmXmXmXmXmXmXmXmXmXmXmXmXmXmXmX",
"mXmXmXmXmXmX=.mXmXmXh S k o t k y p.s.b.s.U.sXW.( o.G.I.@X=XhXqX+.y.l.w Q O.e.h.*XuXR.W.A.mXmXmXmXmXmXmXmXmXmXmXmXmXmXmX",
"mXmXmXmXmXc h mXmXmXmX; S S t u m t.bXa.M | ( ..Y.-X%X@X=.&.7X*XG.r.C ! ;XkX6.| Q.XXo.H.T.P mXmXmXmXmXmXmXmXmXmXmXmXmXmX",
"mXmXmXmXmXk mXmXmXmX$ 2 $ c q.-.b V ;.@X>XeX-Xf.#X6.=.6./.!.1X(.| h.v 3.0XkX1XH.tX].].F.i.` mXmXmXmXmXmXmXmXmXmXmXmXmXmX",
"mXmXmXmXmX2 mXmXmXmXmX> h 7 R x.e.u = 8.kXkX*XC 9.5.:.+.|.| E v ,.a.q ^.kX2X^.H.F.tXL.Y.&X@.m.mXmXmXmXmXmXmXmXmXmXmXmXmX",
"mXmXmXmXmXmXmXmXmXmXmX; 2 h b R x.c.:.9.$X1XqX&X9X{.[ Q L h > 6 p.s.j 7.qX=.&.3XG.` ( U.W.Q.].A.mXmXmXmXmXmXmXmXmXmXmXmX",
"mXmXmXmXmXmXmXmXmXmX2 k g E u m q e.b.p.+.;X2X4.R F 5 D 5 k # + C 8 d d +X5X9.:X3X( M.].XXo.J.E.mXmXmXmXmXmXmXmXmXmXmXmX",
"mXmXmXmXmXmXmXmXmXmXh S q.p.,X-.0 | ,.h.w./ v 1 1 v r mXmX. mX. 1 @ # g T qXd.p.>X3XB.dXXXR.`.R.D mXmXmXmXmXmXmXmXmXmXmX",
"mXmXmXmXmXmXmXmXmXmX2 t M e.n.:X-X%X~.! <.d.*.# + - & mXmXmXmXX X mX$ g 3 X.#Xe.5.5XY.R.iXM..XuXY 1 mXmXmXmXmXmX; mXmXmX",
"mXmXmXmXmXmXmXmXmXmXmXV.hXvXl.=.wXzX-X&XT :.w.t mXmXmXmXmXmXmXmXmXmXX X # U J.4X#X>.2X` I %.i.y.m x 1 mXmXmXmXmX1 mXmXmX",
"mXmXmXmXmXmXmXmXmXmXP tXcXwXi.4.eXzXhX6Xp : : a & mXmXmXmXmXmXmXmXmXmXmXmX) { 6X-Xn 4X6X>.k.Z w.Z B l mXmXmXmXmXg mXmXmX",
"mXmXmXmXmXmXmXmXmXmX'.XX[.pXdXD._.d.6.=Xy # O mX  mXmXmXmXmXmXmXmXmXmXmXmXp k b 2X5XhXxX4Xu./.@.b , , mXmXmXmXmXl mXmXmX",
"mXmXmXmXmXmXmXmXmXmX[.).o.uXsXS.=X,.4.6Xy x , mXmXmXmXmXmXmXmXmXmXmXmXmX. ; @ g  .wX4XrX;X/ :.#.v g g , mXmXmXmX} ;.mXmX",
"mXmXmXmXmXmXmXmXmXmXN.oXoX`.yX` 2X#X$X7XJ 0 -   mXmXmXmXmXmXmXmXmXmXmXmXmXmXO y v !.!.!.O.6 d d z d a a . mXmXmX3.3.mXmX",
"mXmXmXmXmXmXmXmXmXmXC.i.5X^.( H -Xg.=.9.I P mXmXmXmXmXmXmXmXmXmXmXmXmXmX. t C p.t.w.e.e.&.j d z B l B N N N N N <.<.a mX",
"mXmXmXmXmXmXmXmXmXmXV.@.6X|.{...*Xg.1.8.I H mXmXmXmXmXmXmXmXmXmXmXmXmXmX. ; j &.;.x v u 9 8 f f f z d l l l l B <.<.a mX",
"mXmXmXmXmXmXmXmXmXmXC.[.].XXtXM.}.!.^.|.^ T ,   mXmXmXmXmXmXmXmXmXmXmXmXmXmXO < f J ^ ! Q : l z z z l a   mXmXmX} 6.mXmX",
"mXmXmXmXmXmXmXmXmXmX'.B.] .XtXV.L.*.2.}.v t - mXmXmXmXmXmXmXmXmXmXmXmXmXo h u < ~ 8X6X|.).Y i q f a a & mXmXmXmX#.n mXmX",
"mXmXmXmXmXmXmXmXmXmXN.[.'.'.F.' G.+.5.2Xb % O mX. mXmXmXmXmXmXmXmXmXmXmXmX8 8 i -X2XkXgX,Xd.@.4.A a , mXmXmXmXmXl mXmXmX",
"mXmXmXmXmXmXmXmXmXmXmX'.yX_.-.p ).pXhXqXb c v k - mXmXmXmXmXmXmXmXmXmXmXmX[ ^ eX-XA *X|.s.h.M &.A A l mXmXmXmXmXg mXmXmX",
"mXmXmXmXmXmXmXmXmXmXmX] ).t.k.<.1XOX%X@X%.f.r.t mXmXX mXmXmXmXmXmXmX; 6 { 8.;X>Xu.6.(.D.H.O.!.7.z N a mXmXmXmXmX< mXmXmX",
"mXmXmXmXmXmXmXmXmXmXt m l.=.t.+X^.@.J.6.l.6.b @ # t o mXmX. mX$ ; mX8 <./ =Xf.*.5.3X.XW. XU.XXoXF , mXmXmXmXmXmX; mXmXmX",
"mXmXmXmXmXmXmXmXmXmXt k V >._.%.0 [ >.h.z 4 0 a 2 g O mXmXt mX6 0.q J > #.xX#X>.$X XT.XX).H.Q.Y.mXmXmXmXmXmXmXmXmXmXmXmX",
"mXmXmXmXmXmXmXmXmXmX; 2 > p u 2 : m C 6 5 9.6X@.~ L 5 _ [ C 4 L h.&.j d 8.-X5.$X XH._ ..Y.| 3.P.mXmXmXmXmXmXmXmXmXmXmXmX",
"mXmXmXmXmXmXmXmXmXmXmX$ t t - % j g % W J.9XwX+XwXeX@XJ.X.- % y >.y.d } 7X#.&.}.T.W.H.S.B.^.Q._ mXmXmXmXmXmXmXmXmXmXmXmX",
"mXmXmXmXmX> mXmXmXmXmX2 2 o > t : : > O.9XgX/.x 5.g.1.:XhX!.E 7 p r.i ;XzX6X).{.].W.P.Q.K.} H mXmXmXmXmXmXmXmXmXmXmXmXmX",
"mXmXmXmXmX2 mXmXmXmXmX$ o 2 t $ > a 7 9.u.1X).+.$X5.1.t.+X9.0X/. .0.*.8.6XjX}.V..XY.P.P.} H mXmXmXmXmXmXmXmXmXmXmXmXmXmX",
"mXmXmXmXmX2 t mXmXmXmX; t > . > ; 5 X.r.q.o.D.W. X}.@X@X$.*.hX*X@X1.&.O.@X1Xv.p._ H.} O.P.r mXmXmXmXmXmXmXmXmXmXmXmXmXmX",
"mXmXmXmXmXmX-.mXmXmX2 t - o 1 ; : -.-.M :.S.].R.S.` U. X}.7XhX9X7. .c Q Y K.v.<.o.F.Y.Y...mXmXmXmXmXmXmXmXmXmXmXmXmXmXmX",
"mXmXmXmXmXmX~ o.y h 1 . mXo . . ; h c G.T.F.F.D.) ) R.R.E.o.2X7X| L k 7 j ! G.M O.W.G.H mXmXmXmXmXmXmXmXmXmXmXmXmXmXmXmX",
"mXmXmXmXmXmX2 :.m 1 mXmXmXmXmX- 2 g j E.[.m.) m.( B.F.`.E.E c.#XQ y 9 9 9 e O.q.A $.3 mXmXmXmXmXmXmXmXmXmXmXmXmXmXmXmXmX",
"mXmXmXmXmXmXmX2 / F mXmXmXmXmXmX- ; @ J A.] ] X.I.D.V.S.` ^ S 4.{ g 7 y q d w d z z mXmXmXmXmXmXmXmXmXmXmXmXmXmXmXmXmXmX",
"mXmXmXmXmXmXmXmXL U mXmXmXmXmXmXmXmXmXmX) C.N. ./ G.{ [ m.F.%.>.X.8 7 j 7 f a a l d mXmXmXmXmXmXmXmXmXmXmXmXmXmXmXmXmXmX",
"mXmXmXmXmXmXmXmXmX> 2 mXmXmXmXmXmXmXmXmXmXmX5 D J m.V.S.'.D.=.C i 8 8 8 a < a * a mXmXmXmXmXmXmXmXmXmXmXmXmXmXmXmXmXmXmX",
"mXmXmXmXmXmXmXmXmXmX- ; mXmXmXmXmXmXmXmXmXmXmXmXmXD ' ) J 5 g g , : a - d & a mXmXmXmXmXmXmXmXmXmXmXmXmXmXmXmXmXmXmXmXmX",
"mXmXmXmXmXmXmXmXmXmXmXmX- mXmXmXmXmXmXmXmXmXmXmXmXmXmXmXmXmX2 g < . a - s , & mXmXmXmXmXmXmXmXmXmXmXmXmXmXmXmXmXmXmXmXmX",
"mXmXmXmXmXmXmXmXmXmXmXmXmXmXmXmXmXmXmXmXmXmXmXmXmXmXmXmXmXmXmXmXmXmX.   a a mXmXmXmXmXmXmXmXmXmXmXmXmXmXmXmXmXmXmXmXmXmX",
"mXmXmXmXmXmXmXmXmXmXmXmXmXmXmXmXmXmXmXmXmXmXmXmXmXmXmXmXmXmXmXmXmXmXmXmX- g mXmXmXmXmXmX$ mXmXmXmXmXmXmXmXmXmXmXmXmXmXmX",
"mXmXmXmXmXmXmXmXmXmXmXmXmXmXmXmXmXmXmXmXmXmXmXmXmXmXmXmXmXmXmXmXmXmXmXmXmXg , mXmXmX> ; mXmXmXmXmXmXmXmXmXmXmXmXmXmXmXmX",
"mXmXmXmXmXmXmXmXmXmXmXmXmXmXmXmXmXmXmXmXmXmXmXmXmXmXmXmXmXmXmXmXmXmXmXmXmXs z Y Q d ; mXmXmXmXmXmXmXmXmXmXmXmXmXmXmXmXmX",
"mXmXmXmXmXmXmXmXmXmXmXmXmXmXmXmXmXmXmXmXmXmXmXmXmXmXmXmXmXmXmXmXmXmXmXmXmXE n 3.T mXmXmXmXmXmXmXmXmXmXmXmXmXmXmXmXmXmXmX",
"mXmXmXmXmXmXmXmXmXmXmXmXmXmXmXmXmXmXmXmXmXmXmXmXmXmXmXmXmXmXmXmX1 g g y ! E l ; mXmXmXmXmXmXmXmXmXmXmXmXmXmXmXmXmXmXmXmX",
"mXmXmXmXmXmXmXmXmXmXmXmXmXmXmXmXmXmXmXmXmXmXmXmXmXmXmXmXmXmXmXmXmXmXmXmXmXmXmXmXmXmXmXmXmXmXmXmXmXmXmXmXmXmXmXmXmXmXmXmX",
"mXmXmXmXmXmXmXmXmXmXmXmXmXmXmXmXmXmXmXmXmXmXmXmXmXmXmXmXmXmXmXmXmXmXmXmXmXmXmXmXmXmXmXmXmXmXmXmXmXmXmXmXmXmXmXmXmXmXmXmX",
"mXmXmXmXmXmXmXmXmXmXmXmXmXmXmXmXmXmXmXmXmXmXmXmXmXmXmXmXmXmXmXmXmXmXmXmXmXmXmXmXmXmXmXmXmXmXmXmXmXmXmXmXmXmXmXmXmXmXmXmX"
};
