/* XPM */
static char *_893_4a1714aba81dcb2f10ecd6e8bfb9279e1265704d1163a3936a808ac0aa6446b1[] = {
/* columns rows colors chars-per-pixel */
"60 60 215 2 ",
"   c #572176",
".  c #7E3C73",
"X  c #A9465A",
"o  c #8C5277",
"O  c #A85667",
"+  c #B25467",
"@  c #B35279",
"#  c #AD627B",
"$  c #C75D7F",
"%  c #D35A75",
"&  c #FC4F6E",
"*  c #FA5678",
"=  c #3D38BF",
"-  c #5C1988",
";  c #551A9C",
":  c #4E1390",
">  c #701E93",
",  c #601989",
"<  c #5B1EA4",
"1  c #502EA9",
"2  c #5131BE",
"3  c #5C32AC",
"4  c #6836AB",
"5  c #6A29BA",
"6  c #792EBA",
"7  c #6E3AB4",
"8  c #6A33BD",
"9  c #783DB6",
"0  c #7336AB",
"q  c #3F41B3",
"w  c #7D55BD",
"e  c #7445AD",
"r  c #573BC9",
"t  c #663FCC",
"y  c #7434CE",
"u  c #554BCA",
"i  c #4750D6",
"p  c #7A48CB",
"a  c #6B49D9",
"s  c #6647D6",
"d  c #6453D6",
"f  c #7059DE",
"g  c #7D5ACC",
"h  c #7B69D9",
"j  c #6C4FE1",
"k  c #6F56E4",
"l  c #7B5FED",
"z  c #765BED",
"x  c #7E4CE8",
"c  c #7965EA",
"v  c #821DAE",
"b  c #8A3FB8",
"n  c #8C468D",
"m  c #A74D97",
"M  c #A2739F",
"N  c #804CB5",
"B  c #8950AD",
"V  c #A556B7",
"C  c #BA52B9",
"Z  c #8767B9",
"A  c #9266A9",
"S  c #A275BC",
"D  c #DF7F94",
"F  c #C97590",
"G  c #FD688B",
"H  c #EA748F",
"J  c #F0748F",
"K  c #E8689A",
"L  c #F96E91",
"P  c #F56C93",
"I  c #E97B94",
"U  c #FC7393",
"Y  c #FD759C",
"T  c #F7789C",
"R  c #EA6B8D",
"E  c #C27CB7",
"W  c #DE76A4",
"Q  c #E26CA2",
"!  c #ED7BA5",
"~  c #FB7BA7",
"^  c #F476BE",
"/  c #8738D7",
"(  c #972AC4",
")  c #8D49CC",
"_  c #9440D3",
"`  c #9859D5",
"'  c #8A6FC4",
"]  c #906AC1",
"[  c #9370C3",
"{  c #8D63D5",
"}  c #937BD7",
"|  c #A979C7",
" . c #BA75C9",
".. c #835EE7",
"X. c #8057E1",
"o. c #944BEA",
"O. c #A254F4",
"+. c #9668E5",
"@. c #8A73EF",
"#. c #8276E2",
"$. c #8666F1",
"%. c #9F6DF4",
"&. c #9167F0",
"*. c #9F77F7",
"=. c #AE7FEF",
"-. c #A477F7",
";. c #B77AFA",
":. c #A467EC",
">. c #C87FC3",
",. c #DB7ED0",
"<. c #F174C6",
"1. c #C77EF3",
"2. c #7881E7",
"3. c #BA8691",
"4. c #BB85B7",
"5. c #F1849B",
"6. c #DD8EA8",
"7. c #CD96BD",
"8. c #D79FAA",
"9. c #FB83A7",
"0. c #F686A8",
"q. c #FE91AC",
"w. c #FC8DBA",
"e. c #FF88B2",
"r. c #ED94BD",
"t. c #FE92BD",
"y. c #F998B8",
"u. c #E288B6",
"i. c #D1A2AC",
"p. c #D4B2B8",
"a. c #FEA5BB",
"s. c #9491CC",
"d. c #8B89D2",
"f. c #9D83D0",
"g. c #8483C5",
"h. c #A98ACC",
"j. c #AE99CF",
"k. c #B89BCE",
"l. c #A286D1",
"z. c #BD89D9",
"x. c #B39AD5",
"c. c #B8A4D7",
"v. c #8A87E9",
"b. c #9494E3",
"n. c #AE84E7",
"m. c #A28AEA",
"M. c #B28AEC",
"N. c #B98FEC",
"B. c #B087E9",
"V. c #AD9CE1",
"C. c #B594ED",
"Z. c #B69FED",
"A. c #B48CF2",
"S. c #BC8CFA",
"D. c #B887F7",
"F. c #BA94F6",
"G. c #BC9CF4",
"H. c #BC9CFB",
"J. c #B996F7",
"K. c #A283F4",
"L. c #9FA3F4",
"P. c #AFA0EF",
"I. c #B8AFE0",
"U. c #BDA5F3",
"Y. c #BEA1FE",
"T. c #BEAAFB",
"R. c #B9ACF2",
"E. c #AFB2F8",
"W. c #BBBCF9",
"Q. c #CF91C3",
"!. c #CC8FDC",
"~. c #D58CD7",
"^. c #CD94DE",
"/. c #DD9BDF",
"(. c #FB98C3",
"). c #EC91D4",
"_. c #FB96D5",
"`. c #EA92C9",
"'. c #CEA7DD",
"]. c #D8A5DD",
"[. c #F7A4CE",
"{. c #FBA8CD",
"}. c #E2A9DD",
"|. c #F2ABD4",
" X c #FAA7D8",
".X c #F9B2D9",
"XX c #CC94E2",
"oX c #C59BE6",
"OX c #C68BFF",
"+X c #C295FE",
"@X c #C09BFA",
"#X c #CAA3EB",
"$X c #C4A9E8",
"%X c #CBAAEF",
"&X c #D3A2E6",
"*X c #D4ACEC",
"=X c #C5B7EA",
"-X c #C2A3FD",
";X c #C6AAF5",
":X c #C7B8F9",
">X c #D2BDF4",
",X c #D3B8F7",
"<X c #D0B7EA",
"1X c #E9B6E3",
"2X c #F6BBE2",
"3X c #C4C2E9",
"4X c #D1C6EF",
"5X c #C4C5FB",
"6X c #C6CDFB",
"7X c #CAC6F9",
"8X c #D2C9F9",
"9X c #EBC3EB",
"0X c #F4C6EA",
"qX c #E9CBF2",
"wX c None",
/* pixels */
"wXwXwXwXwXwXwXwXwXwXwXwXwXwXwXwXwXwXwXwXwXwXwXwXwXwXwXwXwXwXwXwXwXwXwXwXwXwXwXwXwXwXwXwXwXwXwXwXwXwXwXwXwXwXwXwXwXwXwXwX",
"wXwXwXwXwXwXwXwXwXwXwXwXwXwXwXwXwXwXwXwXwXwXwXwXwXwXwXwXwXwXwXwXwXwXwXwXwXwXwXwXwXwXwXwXwXwXwXwXwXwXwXwXwXwXwXwXwXwXwXwX",
"wXwXwXwXwXwXwXwXwXwXwXwXwXwXwXwXwXwXwXwXwXwXwXwXwXwXwXwXwXwXwXwXwXwXwXwXwXwXwXwXwXwXwXwXwXwXwXwXwXwXwXwXwXwXwXwXwXwXwXwX",
"wXwXwXwXwXwXwXwXwXwXwXwXwXwXwXwXwXwXwXwXwXwXwXwXwXwXwXwXwXwXwXwXwXwXwXwXwXwXwXwXwXwXwXwXwXwXwXwXwXwXwXwXwXwXwXwXwXwXwXwX",
"wXwXwXwXwXwXwXwXwXwXwXwXwXwXwXwXwXwXwXwXwXwXwXwXwXwXwXwXwXwXwXwXwXwXwXwXwXwXwXwXwXwXwXwXwXwXwXwXwXwXwXwXwXwXwXwXwXwXwXwX",
"wXwXwXwXwXwXwXwXwXwXwXwXwXwXwXwXwXwXwXwXwXwXwXwXwXwXwXwXwXwXwXwXwXwXwXwXwXwXwXwXwXwXwXwXwXwXwXwXwXwXwXwXwXwXwXwXwXwXwXwX",
"wXwXwXwXwXwXwXwXwXwXwXwXwXwXwXwXwXwXwXwXwXwXwXwXwXwXwXwXwXwXwXwXwXwXwXwXwXwXwXwXwXwXwXwXwXwXwXwXwXwXwXwXwXwXwXwXwXwXwXwX",
"wXwXwXwXwXwXwXwXwXwXwXwXwXwXwXwXwXwXwXwXwXwXwXwXwXwXwXwXwXwXwXwXwXwXwXwXwXwXwXwXwXwXwXwXwXwXwXwXwXwXwXwXwXwXwXwXwXwXwXwX",
"wXwXwXwXwXwXwXwXwXwXwXwXwXwXwXwXwXwXwXwXwXwXwXwXwXwXwXwXwXwXwXwXwXwXwXwXwXwXwXwXwXwXwXwXwXwXwXwXwXwXwXwXwXwXwXwXwXwXwXwX",
"wXwXwXwXwXwXwXwXwXwXwXwXwXwXwXwXwXwXwXwXwXwXwXwXwXwXwXwXwXwXwXwXwXwXwXwXwXwXwXwXwXwXwXwXwXwXwXwXwXwXwXwXwXwXwXwXwXwXwXwX",
"wXwXwXwXwXwXwXwXwXwXwXwXwXwXwXwXwXwXwXwXwXwXwXwXwXwXwXwXwXwXwXwXwXwXwXwXwXwXwXwXwXwXwXwXwXwXwXwXwXwXwXwXwXwXwXwXwXwXwXwX",
"wXwXwXwXwXwXwXwXwXwXwXwXwXwXwXwXwXwXwXwXwXwXwXwXwXwXwXwXwXwXwXwXwXwXwXwXwXwXwXwXwXwXwXwXwXwXwXwXwXwXwXwXwXwXwXwXwXwXwXwX",
"wXwXwXwXwXwXwXwXwXwXwXwXwXwXwXwXwXwXwXwXwXwXwXwXwXwXwXwXwXwXwXwXwXwXwXwXwXwXwXwXwXwXwXwXwXwXwXwXwXwXwXwXwXwXwXwXwXwXwXwX",
"wXwXwXwXwXwXwXwXwXwXwXwXwXwXwXwXwXwXwXwXwXwXwXwXwXwXwXwXwXwXwXwXwXwXwXwXwXwXwXwXwXwXwXwXwXwXwXwXwXwXwXwXwXwXwXwXwXwXwXwX",
"wXwXwXwXwXwXwXwXwXwXwXwXwXwXwXwXwXwXwXwXwXwXwXwXwXwXwXwXwXwXwXwXwXwXwXwXwXwXwXwXwXwXwXwXwXwXwXwXwXwXwXwXwXwXwXwXwXwXwXwX",
"wXwXwXwXwXwXwXwXwXwXwXwXwXwXwXwXwXwXwXwXwXwXwXwXwXwXwXwXwXwXwXwXwXwXwXwXwXwXwXwXwXwXwXwXwXwXwXwXwXwXwXwXwXwXwXwXwXwXwXwX",
"wXwXwXwXwXwXwXwXwXwXwXwXwXwXwXwXwXwXwXwXwXwXwXwXwXwXwXwXwXwXwXwXwXwXwXwXwXwXwXwXwXwXwXwXwXwXwXwXwXwXwXwXwXwXwXwXwXwXwXwX",
"wXwXwXwXwXwXwXwXwXwXwXwXwXwXwXwXwXwXwXwXwXwXwXwXwXwXwXwXwXwX.XwXwXwXwXwXwXwXwXwXwXwXwXwXwXwXwXwXwXwXwXwXwXwXwXwXwXwXwXwX",
"wXwXwXwXwXwXwXwXwXwXwXwXwXwXwXwXwXwXwXwXwXwXwXwXwXwXwXwX_._.(.0.a.wXwXwXwXwXwXwXwXwXwXwXwXwXwXwXwXwXwXwXwXwXwXwXwXwXwXwX",
"wXwXwXwXwXwXwXwXwXwXwXwXwXwXwXwXwXwXwXwXwXwXwXwXwXwX* ~ _.).K F 5.t.wXwXwXwXwXwXwXwXwXwXwXwXwXwXwXwXwXwXwXwXwXwXwXwXwXwX",
"wXwXwXwXwXwXwXwXwXwXwXwXwXwXwXwXwXwXwXwXwXwXwXwX& & G ~ Q E r.5.U K ! `.wXwXwXwXwXwXwXwXwXwXwXwXwXwXwXwXwXwXwXwXwXwXwXwX",
"wXwXwXwXwXwXwXwXwXwXwXwXwXwXwXwXwXwXwXwXwXwXD & * U 9.Y @ @ ! L I ! m 4.k.wXwXwXwXwXwXwXwXwXwXwXwXwXwXwXwXwXwXwXwXwXwXwX",
"wXwXwXwXwXwXwXwXwXwXwXwXwXwXwXwXwXwXwXwXp.3.R Y q.q.U G J 9.w.w.u.Q.V S j.k.c.wXwXwXwXwXwXwXwXwXwXwXwXwXwXwXwXwXwXwXwXwX",
"wXwXwXwXwXwXwXwXwXwXwXwXwXwXwXwXwXwXwXi.O + H a.9.U ~ e.t.t.<.<.`.].c.c.c.h.P.L.wXwXwXwXwXwXwXwXwXwXwXwXwXwXwXwXwXwXwXwX",
"wXwXwXwXwXwXwXwXwXwXwXwXwXwXwXwXwXwXwXF 5.+ % L Y e.w.w.(.[.`.,.~.&X<Xj.s.b.v.2.;XwXwXwXwXwXwXwXwXwXwXwXwXwXwXwXwXwXwXwX",
"wXwXwXwXwXwXwXwXwXwXwXwXwXwXwXwXwXwXwX8.p.I L ~ w.t.[.[..X1X/.XX!.N.>X6Xd.n  .i { wXwXwXwXwXwXwXwXwXwXwXwXwXwXwXwXwXwXwX",
"wXwXwXwXwXwXwXwXwXwXwXwXwXwXwXwXwXwXwXJ O % ~ w.(.[.|.2X1X^.XXoX<X7X5X5XE.Q. .b.w wXwXwXwXwXwXwXwXwXwXwXwXwXwXwXwXwXwXwX",
"wXwXwXwXwXwXwXwXwXwXwXwXwXwXwXwXwXwXwXT X % 9.{..X2X0X9X#XoXoX,X6X5XT.T.V.U.o A ] wXwXwXwXwXwXwXwXwXwXwXwXwXwXwXwXwXwXwX",
"wXwXwXwXwXwXwXwXwXwXwXwXwXwXwXwXwXwXwXI + F t..X0X0XqX*X#X#X>X8X6X:XG.C.n.C.. - 9 wXwXwXwXwXwXwXwXwXwXwXwXwXwXwXwXwXwXwX",
"wXwXwXwXwXwXwXwXwXwXwXwXwXwXwXwXwXwXwXH O F [.2X2X0X&XoX%X8X8X5XW.T.J.B.M.F.b ; 5 wXwXwXwXwXwXwXwXwXwXwXwXwXwXwXwXwXwXwX",
"wXwXwXwXwXwXwXwXwXwXwXwXwXwXwXwXwXwXwX6.# 4.2X0X1X&X!.#X8X7XR.T.T.Y.A.M.H.F.y < y wXwXwXwXwXwXwXwXwXwXwXwXwXwXwXwXwXwXwX",
"wXwXwXwXwXwXwXwXwXwXwXwXwXwXwXwXwXwXwX7.M f./.}.~.~.<X7XW.R.N.G.Y.H.F.J.-XD.5 5 X.wXwXwXwXwXwXwXwXwXwXwXwXwXwXwXwXwXwXwX",
"wXwXwXwXwXwXwXwXwXwXwXwXwXwXwXwXwXwXwX}.l.u z.^.XX$X5XW.Z.;XH.H.Y.H.S.F.H.@.r t ..wXwXwXwXwXwXwXwXwXwXwXwXwXwXwXwXwXwXwX",
"wXwXwXwXwXwXwXwXwXwXwXwXwXwXwXwXwXwX3X'. .Z $X#X:X:XR.R.:X-XY.Y.-X@XS.D.-.c r ; g wXwXwXwXwXwXwXwXwXwXwXwXwXwXwXwXwXwXwX",
"wXwXwXwXwXwXwXwXwXwXwXwXwXwXwXwXwXwX3Xg.Z h.d.U.;X:XU.%X@XN.J.S.S.S.;.;.%.d r p p wXwXwXwXwXwXwXwXwXwXwXwXwXwXwXwXwXwXwX",
"wXwXwXwXwXwXwXwXwXwXwXwXwXwXwXwXwXwX3XI.x.l.3 d m.;X,XU.n.M.F.S.+XOX;.%.&.z d h f.wXwXwXwXwXwXwXwXwXwXwXwXwXwXwXwXwXwXwX",
"wXwXwXwXwXwXwXwXwXwXwXwXwXwXwXwXwXwXwX4X=XZ 1 ; 7 A J.Y.J.N.M.S.1.C ) ..k k f q v.wXwXwXwXwXwXwXwXwXwXwXwXwXwXwXwXwXwXwX",
"wXwXwXwXwXwXwXwXwXwXwXwXwXwXwXwXwXwXwXwXwXZ 3 3     0 B.F.=.:.O.O.) X...r u @.#.wXwXwXwXwXwXwXwXwXwXwXwXwXwXwXwXwXwXwXwX",
"wXwXwXwXwXwXwXwXwXwXwXwXwXwXwXwXwXwXwXwXwXwXk.B :   > b ` b / o.y s j z $.K.wXwXwXwXwXwXwXwXwXwXwXwXwXwXwXwXwXwXwXwXwXwX",
"wXwXwXwXwXwXwXwXwXwXwXwXwXwXwXwXwXwXwXwXwXwXwXwXb v ( ` ` 6 y 5 3 a $.-.wXwXwXwXwXwXwXwXwXwXwXwXwXwXwXwXwXwXwXwXwXwXwXwX",
"wXwXwXwXwXwXwXwXwXwXwXwXwXwXwXwXwXwXwXwXwXwXwXwXwX( V N 9 4 8 +.s j wXwXwXwXwXwXwXwXwXwXwXwXwXwXwXwXwXwXwXwXwXwXwXwXwXwX",
"wXwXwXwXwXwXwXwXwXwXwXwXwXwXwXwXwXwXwXwXwXwXwXwXwXwXwXe e { +.-.wXwXwXwXwXwXwXwXwXwXwXwXwXwXwXwXwXwXwXwXwXwXwXwXwXwXwXwX",
"wXwXwXwXwXwXwXwXwXwXwXwXwXwXwXwXwXwXwXwXwXwXwXwXwXwXwXwXV.P.wXwXwXwXwXwXwXwXwXwXwXwXwXwXwXwXwXwXwXwXwXwXwXwXwXwXwXwXwXwX",
"wXwXwXwXwXwXwXwXwXwXwXwXwXwXwXwXwXwXwXwXwXwXwXwXwXwXwXwXwXwXwXwXwXwXwXwXwXwXwXwXwXwXwXwXwXwXwXwXwXwXwXwXwXwXwXwXwXwXwXwX",
"wXwXwXwXwXwXwXwXwXwXwXwXwXwXwXwXwXwXwXwXwXwXwXwXwXwXwXwXwXwXwXwXwXwXwXwXwXwXwXwXwXwXwXwXwXwXwXwXwXwXwXwXwXwXwXwXwXwXwXwX",
"wXwXwXwXwXwXwXwXwXwXwXwXwXwXwXwXwXwXwXwXwXwXwXwXwXwXwXwXwXwXwXwXwXwXwXwXwXwXwXwXwXwXwXwXwXwXwXwXwXwXwXwXwXwXwXwXwXwXwXwX",
"wXwXwXwXwXwXwXwXwXwXwXwXwXwXwXwXwXwXwXwXwXwXwXwXwXwXwXwXwXwXwXwXwXwXwXwXwXwXwXwXwXwXwXwXwXwXwXwXwXwXwXwXwXwXwXwXwXwXwXwX",
"wXwXwXwXwXwXwXwXwXwXwXwXwXwXwXwXwXwXwXwXwXwXwXwXwXwXwXwXwXwXwXwXwXwXwXwXwXwXwXwXwXwXwXwXwXwXwXwXwXwXwXwXwXwXwXwXwXwXwXwX",
"wXwXwXwXwXwXwXwXwXwXwXwXwXwXwXwXwXwXwXwXwXwXwXwXwXwXwXwXwXwXwXwXwXwXwXwXwXwXwXwXwXwXwXwXwXwXwXwXwXwXwXwXwXwXwXwXwXwXwXwX",
"wXwXwXwXwXwXwXwXwXwXwXwXwXwXwXwXwXwXwXwXwXwXwXwXwXwXwXwXwXwXwXwXwXwXwXwXwXwXwXwXwXwXwXwXwXwXwXwXwXwXwXwXwXwXwXwXwXwXwXwX",
"wXwXwXwXwXwXwXwXwXwXwXwXwXwXwXwXwXwXwXwXwXwXwXwXwXwXwXwXwXwXwXwXwXwXwXwXwXwXwXwXwXwXwXwXwXwXwXwXwXwXwXwXwXwXwXwXwXwXwXwX",
"wXwXwXwXwXwXwXwXwXwXwXwXwXwXwXwXwXwXwXwXwXwXwXwXwXwXwXwXwXwXwXwXwXwXwXwXwXwXwXwXwXwXwXwXwXwXwXwXwXwXwXwXwXwXwXwXwXwXwXwX",
"wXwXwXwXwXwXwXwXwXwXwXwXwXwXwXwXwXwXwXwXwXwXwXwXwXwXwXwXwXwXwXwXwXwXwXwXwXwXwXwXwXwXwXwXwXwXwXwXwXwXwXwXwXwXwXwXwXwXwXwX",
"wXwXwXwXwXwXwXwXwXwXwXwXwXwXwXwXwXwXwXwXwXwXwXwXwXwXwXwXwXwXwXwXwXwXwXwXwXwXwXwXwXwXwXwXwXwXwXwXwXwXwXwXwXwXwXwXwXwXwXwX",
"wXwXwXwXwXwXwXwXwXwXwXwXwXwXwXwXwXwXwXwXwXwXwXwXwXwXwXwXwXwXwXwXwXwXwXwXwXwXwXwXwXwXwXwXwXwXwXwXwXwXwXwXwXwXwXwXwXwXwXwX",
"wXwXwXwXwXwXwXwXwXwXwXwXwXwXwXwXwXwXwXwXwXwXwXwXwXwXwXwXwXwXwXwXwXwXwXwXwXwXwXwXwXwXwXwXwXwXwXwXwXwXwXwXwXwXwXwXwXwXwXwX",
"wXwXwXwXwXwXwXwXwXwXwXwXwXwXwXwXwXwXwXwXwXwXwXwXwXwXwXwXwXwXwXwXwXwXwXwXwXwXwXwXwXwXwXwXwXwXwXwXwXwXwXwXwXwXwXwXwXwXwXwX",
"wXwXwXwXwXwXwXwXwXwXwXwXwXwXwXwXwXwXwXwXwXwXwXwXwXwXwXwXwXwXwXwXwXwXwXwXwXwXwXwXwXwXwXwXwXwXwXwXwXwXwXwXwXwXwXwXwXwXwXwX",
"wXwXwXwXwXwXwXwXwXwXwXwXwXwXwXwXwXwXwXwXwXwXwXwXwXwXwXwXwXwXwXwXwXwXwXwXwXwXwXwXwXwXwXwXwXwXwXwXwXwXwXwXwXwXwXwXwXwXwXwX",
"wXwXwXwXwXwXwXwXwXwXwXwXwXwXwXwXwXwXwXwXwXwXwXwXwXwXwXwXwXwXwXwXwXwXwXwXwXwXwXwXwXwXwXwXwXwXwXwXwXwXwXwXwXwXwXwXwXwXwXwX"
};
