/* XPM */
static char *c0c12d8da3984694a826c33d4b4ce886YxOBJ2nyXo1KCuVm[] = {
/* columns rows colors chars-per-pixel */
"60 60 141 2 ",
"   c None",
".  c #41403E",
"X  c #363B40",
"o  c #3D3F40",
"O  c #3E4244",
"+  c #3D444B",
"@  c #424444",
"#  c #474847",
"$  c #494947",
"%  c #41464A",
"&  c #454A4D",
"*  c #4B4C4C",
"=  c #4F504F",
"-  c #51504F",
";  c #454C53",
":  c #4A4E52",
">  c #475057",
",  c #4D5154",
"<  c #4C545C",
"1  c #4F585F",
"2  c #535455",
"3  c #53575A",
"4  c #55595C",
"5  c #5A5C5D",
"6  c #4E5761",
"7  c #4F5862",
"8  c #535B63",
"9  c #5A5F62",
"0  c #565F68",
"q  c #5D6164",
"w  c #56626C",
"e  c #5B626A",
"r  c #626465",
"t  c #626669",
"y  c #65696B",
"u  c #6B6D6D",
"i  c #6F706F",
"p  c #70706E",
"a  c #676D72",
"s  c #6C6F70",
"d  c #6D7173",
"f  c #737474",
"g  c #787774",
"h  c #777877",
"j  c #797876",
"k  c #737679",
"l  c #77797A",
"z  c #7C7D7C",
"x  c #7E807F",
"c  c #7E807F",
"v  c #81817F",
"b  c #7E7F80",
"n  c #7B7F80",
"m  c #7D8081",
"M  c #818180",
"N  c #828281",
"B  c #808182",
"V  c #828382",
"C  c #828385",
"Z  c #848585",
"A  c #838483",
"S  c #898783",
"D  c #878887",
"F  c #878887",
"G  c #898887",
"H  c #868989",
"J  c #888889",
"K  c #898989",
"L  c #8A8988",
"P  c #898A88",
"I  c #898A89",
"U  c #8B8A88",
"Y  c #8B8A89",
"T  c #8A8B8A",
"R  c #8A8A8B",
"E  c #8B8B8B",
"W  c #8A8C8A",
"Q  c #8B8C8B",
"!  c #8D8C8A",
"~  c #8B8C8C",
"^  c #8C8D8C",
"/  c #8C8C8D",
"(  c #8D8E8D",
")  c #8E8E8C",
"_  c #8F8E8E",
"`  c #8C8D8B",
"'  c #908E8C",
"]  c #928F8C",
"[  c #8F908F",
"{  c #90908E",
"}  c #90918E",
"|  c #91918F",
" . c #92908E",
".. c #92918E",
"X. c #93918E",
"o. c #91928F",
"O. c #91908E",
"+. c #8F9292",
"@. c #909090",
"#. c #909293",
"$. c #949492",
"%. c #969492",
"&. c #979694",
"*. c #949593",
"=. c #979895",
"-. c #9A9897",
";. c #9A9997",
":. c #999A97",
">. c #9C9B96",
",. c #9A9A98",
"<. c #9B9B98",
"1. c #9B9A99",
"2. c #9C9C9A",
"3. c #9D9C9B",
"4. c #9E9D9B",
"5. c #9E9E9B",
"6. c #9F9F9B",
"7. c #9F9E9C",
"8. c #9F9F9D",
"9. c #9F9F9E",
"0. c #9C9C9A",
"q. c #A1A19E",
"w. c #A3A3A0",
"e. c #A2A3A1",
"r. c #A4A4A1",
"t. c #A6A6A3",
"y. c #A7A7A3",
"u. c #A6A6A4",
"i. c #A7A7A5",
"p. c #A6A6A2",
"a. c #A9A8A5",
"s. c #A9A9A6",
"d. c #ABAAA6",
"f. c #AAAAA7",
"g. c #AAA9A6",
"h. c #ACABA8",
"j. c #ADACA8",
"k. c #ACACA9",
"l. c #ACADAA",
"z. c #AEAEAA",
"x. c #AFAEAA",
/* pixels */
"                                    7.7.#.                                                                              ",
"                                  ! 1.^ l l Z /                                                                         ",
"                              R 1.7.R k 3 8 i J ' z B k                                                                 ",
"                          b u g o.N z s r s u l &.N d a                                                                 ",
"                          S z v z v M f f l g ' z t 9 4 e                                                               ",
"                        ' Y U ] Y M @.&.J z f 9 2 : * < < 8                                                             ",
"                          u z -.-.J 3.@.b e & : 4 9 4 1 8 8                                                             ",
"                          r 9 g g u f f u 9 4 9 k f t 4 8 w 8                                                           ",
"                          z u 5 9 y r q 5 y f u t 9 9 4 4 8 4                                                           ",
"                          p y 5 5 5 5 - 2 4 4 y y 9 3 & O % ,                                                           ",
"                          r y u 5 5 2 - - - 4 9 t 5 * # & +                                                             ",
"                          2 2 4 r y 2 - 4 5 5 5 2 : : : , 4                                                             ",
"                              $ * y y q t 9 4 - * * # & #                                                               ",
"        s.u.h.^ W 2.            . * 5 q 5 2 - * - * $ @                                                                 ",
"      k.s.s.r.=.2.6.o.z             $ $ * $ . @ # #                                                                     ",
"      r.k.x.j.! z V V u s                                                                                               ",
"    q.q.y.j.6.x 5 h x k y y                                                                                             ",
"  l.y.q.>.:.6.[ x k i d 5 y                                                                                             ",
"  z.>.[ x x } P x h i y a y                                                                                             ",
"  e.:.>.$.P [ F h d a q e q                                                                                             ",
"=.o.W F } =.W x f i a q q 1                                                                                             ",
"[ [ ! F x x h q a i q < 3 4                                                                                             ",
"  z g h = 4 9 3 4 5 4 2 2 <                                                                                             ",
"  y r 4 , 5 2 5 5 3 2 2 2 8             9 4 0 8 8 8                                                                     ",
"    5 4 5 5 5 5 - = = , = >           r 1 4 4 O % < 8 w 7                                                               ",
"    r q 2 2 2 * = - = , >             j g f > + ; , q 0 6 +                                                             ",
"      t 2 - - $ * * * =               g v ! 2 X O % 0 8 6 6                                                             ",
"          $ - $ $ # #                 g P c q & o + 3 < 6 < 7           d.d.y.q.1.7.1.+.                                ",
"                                      i g 5 q t < & > > < > >         q.r.1.%.o.^ 0.W m +.                              ",
"                                      p j y i t 4 < > , < 1 %       6.6.o.o.G #.H ( =.W Z H                             ",
"                                      p g u i q 2 3 > & < , %       >.X.z G [ W Z #.F +./ #.#.                          ",
"                                      r y q q q 2 , % O = % O       v G [ ..[ V m m x V +.H ^ m                         ",
"                                        g q 2 2 , @ O @ @ O         f l U S x Z x x H F m m m a                         ",
"                                          2 , * # @ O @ o             u p u f z h u x z x z k a                         ",
"                                            * @ @ @ . @                 r r u u u t t q q i q w                         ",
"                                                                          5 4 3 q q 5 3 q q , ,                         ",
"                                                              8 1 6         5 3 2 5 5 4 3 3 =                           ",
"                                                            e e 6 < ; ; <       2 2 2 2 = =                             ",
"                                                            9 9 7 8 < > <                                               ",
"                                                            9 e 9 e 8 ; 6 0                                             ",
"                                                            e y k s 8 ; : w w                                           ",
"                                                            a l l s t 4 < 1 w                                           ",
"                                                            k N 5 r l e > 6 7 8                                         ",
"                                                            Z U p f G l 8 7 7 7                                         ",
"                                                              h j S ] U d 8 7 6                                         ",
"                                                              u 9 S S N d : 7 1 8                                       ",
"                                                              i i g p u t > 4 1 <                                       ",
"                                                                f j r 2 & , 3 , <                                       ",
"                                                                  y 5 2 2 : * & ,                                       ",
"                                                                      2 - *                                             ",
"                                                                                                                        ",
"                                                                                                                        ",
"                                                                                                                        ",
"                                                                                                                        ",
"                                                                                                                        ",
"                                                                                                                        ",
"                                                                                                                        ",
"                                                                                                                        ",
"                                                                                                                        ",
"                                                                                                                        "
};
