/* XPM */
static char *c7df71ebd52e4729babe1a9494c51227dBwEZ7YPQwFUQSvR[] = {
/* columns rows colors chars-per-pixel */
"60 60 149 2 ",
"   c None",
".  c #151212",
"X  c #1A1615",
"o  c #1D1916",
"O  c #1E1A18",
"+  c #211B17",
"@  c #231D1B",
"#  c #26211D",
"$  c #2A221E",
"%  c #262120",
"&  c #2C2522",
"*  c #2F2825",
"=  c #2C2928",
"-  c #312721",
";  c #332A25",
":  c #3A2D26",
">  c #352D29",
",  c #3A2F29",
"<  c #3E3027",
"1  c #36302F",
"2  c #3C312C",
"3  c #3D3431",
"4  c #3E3834",
"5  c #43352D",
"6  c #48372D",
"7  c #46382F",
"8  c #49392E",
"9  c #433731",
"0  c #453932",
"q  c #4B3C34",
"w  c #453C3A",
"e  c #4B3E39",
"r  c #513E34",
"t  c #503F38",
"y  c #4F4037",
"u  c #47423E",
"i  c #4D413B",
"p  c #524136",
"a  c #594436",
"s  c #54433A",
"d  c #59463B",
"f  c #5D493D",
"g  c #624B3E",
"h  c #4D4342",
"j  c #524643",
"k  c #584740",
"l  c #544A45",
"z  c #5C4B42",
"x  c #544B48",
"c  c #5B4D49",
"v  c #5D514C",
"b  c #634E42",
"n  c #694F41",
"m  c #665144",
"M  c #6B5345",
"N  c #64534B",
"B  c #6B564A",
"V  c #6E584D",
"C  c #725646",
"Z  c #735947",
"A  c #705749",
"S  c #735A4C",
"D  c #7A5E4C",
"F  c #645651",
"G  c #685552",
"H  c #6D5B53",
"J  c #6B5C59",
"K  c #745D51",
"L  c #7A5F50",
"P  c #705E58",
"I  c #7D604F",
"U  c #736057",
"Y  c #7C6253",
"T  c #71625D",
"R  c #7A6358",
"E  c #7D665D",
"W  c #7E685C",
"Q  c #766560",
"!  c #736560",
"~  c #786661",
"^  c #7E6961",
"/  c #7D6A63",
"(  c #82624E",
")  c #816453",
"_  c #816454",
"`  c #826554",
"'  c #836755",
"]  c #826656",
"[  c #826757",
"{  c #826552",
"}  c #886754",
"|  c #866856",
" . c #8E6A54",
".. c #8B6A55",
"X. c #806659",
"o. c #836758",
"O. c #816659",
"+. c #80685B",
"@. c #846958",
"#. c #84695A",
"$. c #85695A",
"%. c #84695A",
"&. c #896B59",
"*. c #8A6C58",
"=. c #8C6C58",
"-. c #896D5D",
";. c #8B6D5A",
":. c #916D56",
">. c #8F705D",
",. c #8E705E",
"<. c #91725F",
"1. c #92725F",
"2. c #93725E",
"3. c #99745E",
"4. c #9C775D",
"5. c #99745D",
"6. c #806B63",
"7. c #826D65",
"8. c #896F63",
"9. c #8E7160",
"0. c #977763",
"q. c #947563",
"w. c #997762",
"e. c #997965",
"r. c #9F7B64",
"t. c #9C7A65",
"y. c #9F7D69",
"u. c #9C7C68",
"i. c #997E73",
"p. c #9C7F74",
"a. c #A67F67",
"s. c #A27F6A",
"d. c #A57F69",
"f. c #A37E69",
"g. c #A4816C",
"h. c #A9856F",
"j. c #AF876F",
"k. c #AA846C",
"l. c #B2886F",
"z. c #A68571",
"x. c #AF8972",
"c. c #AF8971",
"v. c #B38B74",
"b. c #BB9175",
"n. c #BB9178",
"m. c #BB937A",
"M. c #B9997C",
"N. c #C39476",
"B. c #C3997F",
/* pixels */
"                                                                      j G H s s                                         ",
"                                                                      K s $.q =.%                                       ",
"                                                                    N m ` B d V w                                       ",
"                                                                    j.n.R S 8 6 f                                       ",
"                                                                  d ; S q 6 5 : s q                                     ",
"                                                                  e 2 : @ D - s $ ,                                     ",
"                        v                     N B e k c           0 ; d ; g B Z q c                                     ",
"                    x s z z G       T G q k b s s S z z s i 1       I 5 g 8 ; 1 >                                       ",
"                  9 k N ; 2 B H F 2 i s z q e b L S z b s 9 s       ; q * 2 & :                                         ",
"                3 s z r j z Y O.Y V G H N J G s s s 3.` s q p           $ & $ X                                         ",
"                ; z ^ m g S D S Y b <.H N N e N e B N c s q e ;                                         c       s       ",
"              , Y H B s s  .d V V <.Y +./ V 9 k s S V _ H 0 q &                                       q k S G G N 5     ",
"              * P e.R S m D e H ` $.S R z l 0 d m D 4.;.<.l e # 1                                     h.d U b 0 D $.%   ",
"            q i z.x.*.r.s ) s V N K m l z s , q s A m D ` V j ~ =                                   ^ d.s.O.m 5 R s 3   ",
"          c 5 S s g.l.@.m d ^ G ! i.g.S b s 1 h f _ B B ;.b A A w h                                 E ;.q.| S : s 3 4   ",
"          5 P Z z q.A B Y H s.-.1.m B k e f q 9 F s f $.O.D B > ; -                               b ;.s.g m 0 M 9 < ; > ",
"        0 M s ,.N.d.+.u.u.H Y r.R Y z b M B q r d V U 8.9.k d N 4 c                               d d a # d g g g q e 1 ",
"        l H H B ' w.E v.h.b q.Y r.@.D B d d + ; g w M f k z S m 2 q                               m q g ; < :.B A 5 $ w ",
"      i z N ..H $.V q.B.M.K B H l.N.| S g 8 - g ( I I s z s z > > 5 x                             0 y D : ; f f b g d j ",
"      9 i B Y g.x.q.u.,.j.Y -.S r.2.;.D m a - p 5.7 # ; 3 d M i 3 > 0                               b p g m 8 d g % <   ",
"      j N ] *.b.5.g.B.q.,.R R A q.` Y S m e p g 7 5 8 6 2 i w e e o -                               e f 2 5 ; & @ #     ",
"    5 U k E m w.@.n.h.q.q.D V Y Y D y > s < ; 2 @ r p 5 2 2 2 5 0 & $ s                               > q 1 @ > : &     ",
"    T i z V e.D m f.n.1.m y z m *.s 2 5 y y M q ; > g f 2 > q 7 = $ 5 5 9                                 # $ & ;       ",
"  u g 9 z m K | B q.g.I a 5 m y m 5 7 5 y s S > 2 5 e : ; 0 0 > % $ : , s                                               ",
"  s a e e 5 ; D Y 0.D m < 1 q y a 5 y p q Y D < a g 5 $ q m d s 3 $ & 2 b                                               ",
"  f d g 8 r 5 D m 6 < < * 2 0 q y p a g I I @.p p g q a q d p d d @ 5 : g                                               ",
"j Z d ( 5 n & b g p : $ @ @ y f y y f Y I d d p s q r b d 9 q q q 1 5 $ d                                               ",
"2 B :.M 9 s 9 q p 8 @ $ . X @ D 5.I p < I q d y f s g f B q s < & 9 % q 5                               Q               ",
"; , Z s 9 f 9 b g a 6 - $ # + $ 5 g d I D g I ; e S m s Z f 2 $ - - k > F             v d z G   ^ 0 B i S z d s         ",
"@ , r d 0 y B s ( g < - - : - + y 6 I I M I m 8 q b f b f b . O + o > v             w D e d 1.A J x H i s Y z q         ",
"v & 0 , , ; a b D r : : : : + # I f Z g I I M 5 B g b q 2 5 X ; $ : 7 &             > G e 2.d s j.T z s s A T > %       ",
"  1 0 9 9 > ; ; 6 g r 6 - - # +  .} f Z m ;.7 p C } b s a q $ - 8 M 0 1           0 W ,.m I N *.K s y 0 S =.$.J @       ",
"    q s f 2 X 5 D d r : - 5 5 - s } g g M A { { s Y d I M ( $ r q a q h           > b g.L b E ~ z.V N j B M q.t m @     ",
"    9 B D g 6 A r Z r 5 6 6 6 $ , 5 g d s a M b m g 0 I D f $ 5 q m k w         0 e q.&.q.B r.-.I b s s H b +.b q x     ",
"    N X g Z a a 5 q q 8 p a 6 6 q r @ $ g g e d 5 p - M s m , > q w j           B Y { q.m.S $.k.I s q $ B 0 m B b 0     ",
"      ; m g e 1 > n r 5 g f 8 r < 5 5 @ m q ; s 0 7 g 0 ; @ 2 e i 0 >         9 ! R m.k.;.,.R s.I 2.: a z @ s b 0 *     ",
"      > 5 m d 2 2 a f q g Z f a m f < 5 2 s f 5 < p p q > # q < q 1           F N f <.v.;.K V *.' b p p $ a q q s o 9   ",
"      2 8 ' ) z s p p 7 g p q g f g < 7 5 < & * < s p & 2 1 > 0 9 e         k s D w.m n.D s m | 7 & s s 8 D 2 0 q % ; 9 ",
"      q 6 ) D S $ b f 0 9 d a ; 7 p 5 ; $ * # % 7 < < = $ w $ $ =           9 e 2 b V ;.f 2 s s 5 5 { 5 q : : b i - , b ",
"        9 b b A q m m f < 7 p < 2 e < & 0 < # * * & O 1 4 % # >             y { , 3 A 2 ; @ r f { b *.y d a q 5 z % ; t ",
"        & * ; y 9 s m d p y 5 ; 0 2 5 , y < $ @ $ @ @ $ @ # % j           x m M g > p - @ o $ :.m 6 p a C s S q ; 5 0 9 ",
"          4 @ ; y > 1 0 0 : ; % * 3 q # = # * & $ ; q 2 @ * O             e : 7 g 2 ( 6 ; - o < g m Z q a s f s @ + 1   ",
"          h 2 + 2 ; 0 9 5 q & > ; , ; , 1 2 1 , & & , 2 % $ u               , 1 > f m 6 : - @ g  .D 5.> m m e % > 8 2   ",
"            4 X , > > = > 3 < 3 . o @ @ > w > * - % 2 % * X                 i s d O C 8 : 5 ; g f V B D I b Z 2 q d 9   ",
"                h 9 $ 1 1 1 & O o o o - @ @ + 3 & - w 3 >                     g C : 6 6 r g - a @ s d ( p - s q 6 b 3   ",
"                        @ * & O 2 @ % @ & @ % @ w % 4 X                       ; b s < g 8 g 5 a 6 $ q 7 2 a > 5 e 5     ",
"                          & # % & & % > $ % & 5 3 % &                         , q D s B 5 p f a : 5 : & a q < = w <     ",
"                                1 - % - - , > w ; x       s N   N s s j         q Y , I r q 2 ; 5 ; & ; > @ * # >       ",
"                                    1                   i z g D c q J 0         2 ; ; f s 5 ; , 2 5 % @ % & @ &         ",
"                                                        E <.c / 0 s D M           - 1 5 e q > = * = 5 1 & 5 & +         ",
"                                                      9 ] m.,.Y m d I S             @ @ e ; 3 X X % + ; % @ #           ",
"                                                      z k.g.S <.d 2 s 3 $                 ; O O + % @ % * @             ",
"                                                      f Y =.a 5 B d $ q ;                     ; % ; 2 w >               ",
"                                                    s q s & @ M 7 d f d %                                               ",
"                                                    : 2 D : + g I g q $ 5                                               ",
"                                                      B p 7 5 d s f a > e                                               ",
"                                                      7 s 5 q g < 5 * >                                                 ",
"                                                      1 i s 5 > > % & O                                                 ",
"                                                        ; 1 < O = % %                                                   ",
"                                                            h & & #                                                     "
};
