/* XPM */
static char *_ce18cdf970b43b2d8db8d3d05fbabceWNbU3RedIeGKHrR0[] = {
/* columns rows colors chars-per-pixel */
"60 60 126 2 ",
"   c None",
".  c #130E0D",
"X  c #16110E",
"o  c #1C1613",
"O  c #1F1816",
"+  c #221B17",
"@  c #251D1A",
"#  c #281F1A",
"$  c #27201D",
"%  c #2C221D",
"&  c #31251F",
"*  c #35281F",
"=  c #2D2522",
"-  c #2F2824",
";  c #322721",
":  c #342A24",
">  c #3A2D25",
",  c #342D2A",
"<  c #3A2F29",
"1  c #3F3027",
"2  c #3D312B",
"3  c #3F3531",
"4  c #413127",
"5  c #44342C",
"6  c #49372C",
"7  c #4B392E",
"8  c #443732",
"9  c #463933",
"0  c #4C3C33",
"q  c #463B38",
"w  c #4B3E39",
"e  c #513E33",
"r  c #45403C",
"t  c #4D413C",
"y  c #544136",
"u  c #594336",
"i  c #54433B",
"p  c #5B463B",
"a  c #5D493D",
"s  c #624B3D",
"d  c #694F3F",
"f  c #4D4341",
"g  c #564741",
"h  c #594740",
"j  c #5C4C43",
"k  c #5C4B48",
"l  c #634E43",
"z  c #684F41",
"x  c #665044",
"c  c #6B5344",
"v  c #65534B",
"b  c #6D564A",
"n  c #6D594E",
"m  c #715646",
"M  c #735847",
"N  c #705749",
"B  c #745A4B",
"V  c #7A5E4D",
"C  c #675752",
"Z  c #695551",
"A  c #6B5951",
"S  c #735D52",
"D  c #785F50",
"F  c #7E604E",
"G  c #7F6556",
"H  c #7D6252",
"J  c #7E6558",
"K  c #78645C",
"L  c #7F675D",
"P  c #7C665D",
"I  c #82624E",
"U  c #80614D",
"Y  c #806352",
"T  c #816452",
"R  c #836653",
"E  c #816555",
"W  c #836755",
"Q  c #806556",
"!  c #816656",
"~  c #836756",
"^  c #856755",
"/  c #816554",
"(  c #8A6A53",
")  c #896955",
"_  c #826758",
"`  c #846958",
"'  c #866A5C",
"]  c #856959",
"[  c #886B58",
"{  c #896B58",
"}  c #8A6C59",
"|  c #8B6C59",
" . c #8A6C5A",
".. c #8A6D5B",
"X. c #8C6D59",
"o. c #8B6E5E",
"O. c #8D6D5A",
"+. c #8F705E",
"@. c #93735D",
"#. c #90715E",
"$. c #90715F",
"%. c #93735E",
"&. c #92725E",
"*. c #8F7160",
"=. c #887167",
"-. c #8D7161",
";. c #947360",
":. c #957562",
">. c #967764",
",. c #947462",
"<. c #977864",
"1. c #997864",
"2. c #9B7A66",
"3. c #9C7B66",
"4. c #9D7C68",
"5. c #A57F67",
"6. c #A47F6A",
"7. c #A2806C",
"8. c #A7846E",
"9. c #A5826D",
"0. c #A8836D",
"q. c #AB866F",
"w. c #A78870",
"e. c #AF8A73",
"r. c #B68B70",
"t. c #B48C74",
/* pixels */
"                                                                                                                        ",
"                                                                                                                        ",
"                                                                                                                        ",
"                                                                                                                        ",
"                                                                                                                        ",
"                                                                                                                        ",
"                                                                                                                        ",
"                                                                                                                        ",
"                                                                                                                        ",
"                                                                                                                        ",
"                                                              j v p a                                                   ",
"                                                              v B a x                                                   ",
"                                                              9.n 0 6                                                   ",
"                                                            9 4 > 4 5 >                                                 ",
"                                k             k l i j       5 e 4 a p h                                                 ",
"                            9 j 2 l A 8 g p w p B l a 9 0     6 > - :                                                   ",
"                          2 a p h V H n S v C h i H b 0 0       # @ .                                                   ",
"                          a C a s c B / H K v i p b V w 5                           w b Z l 4                           ",
"                          A <.H c i A / N x t e x ( [ v 8 ,                         1.V p b l                           ",
"                      k 0 c 8.+.l S A =...x 0 q s b V b b w f                     _ ;.[ l i 8                           ",
"                      7 n V #.F H -.+.B l i p 5 l j ` V p : :                     D T s e e > :                         ",
"                      v v O.:.7.<.` ..[ N s e * p x c j b 8 w                     w e > I c < 3                         ",
"                    t x ^ O.H e.w.V J r./ z 4 e I c w y p : 5                     e s 4 p s e i                         ",
"                    f B @.9.w.3.-.J V ..H c w u y > 1 0 w q @                     i y 7 ; ; +                           ",
"                  w v S V / t.3.W v F M 5 0 4 2 % e 5 > 2 2 $ 6                     < , @ ; $                           ",
"                  l 0 x / N 3.+.u p p y 5 6 p 6 > w > 2 5 $ $ > e                                                       ",
"                  y y 5 6 F H a : 5 e 6 y y F e u 6 > a u 8 # : s                                                       ",
"                a a c u 2 s 6 % + 5 y w s F s y e e p 6 0 0 : & p                                                       ",
"                5 F a e 5 y 4 # X o c V e m e e i s s i 6 % < < q                                                       ",
"                @ e y w s m u & % % % 7 B M M e e s s s o o @ t         g i z D A v i b i                               ",
"                i 2 > ; e d e * * + * m d M V 0 c z 6 5 O % 5 ;         t h / a >.j i b A =                             ",
"                  5 y < + s u 4 & > * U s c B M l z m m % 6 u q       : D T b P -.l i m _ y +                           ",
"                  0 a c e e s 5 6 4 & 4 y y u s s 6 B s & 6 j q       i #.2.V :.B i y j V i t                           ",
"                    > s 0 > u 5 s 7 7 4 * y 7 w 5 e 0 ; < q 5       i K q.3.` 2.I 0 e : a y :                           ",
"                    > x p 4 u 7 s a u a > 1 0 4 4 0 2 $ 8 5 2       v c %.#.b I b y 6 y 5 w +                           ",
"                    5 N V 5 a 7 7 y 5 y 4 % % @ 4 4 = 2 @ -       8 q z V m 6 s > d 5 6 4 i $ y                         ",
"                      w p y l a 5 7 > 6 > 2 ; @ $ O : @ =         i b 2 p % # s B M y u e y $ 9                         ",
"                      , $ 5 2 6 5 > $ , 2 : $ @ # > - @ O         5 y 5 d & + 4 s d e y a % $                           ",
"                      f ; - : 2 2 ; ; $ % > 2 , % ; - + r         2 2 6 s * & e U ( e c 9 : 6                           ",
"                          8 , - , ; O X O + @ : # 2 :               s > e 6 e 7 > p B 5 u 5 p                           ",
"                                @ % + @ + @ O @ 2 : .               < a 7 7 u e > 4 4 e : 8 <                           ",
"                                      % @ % ; 3 ,     i v v i g       N 0 u 7 < > % ; % = :                             ",
"                                        ,             x z j i i       ; > e < : > - + % +                               ",
"                                                    i 9._ x s B         @ 8 > + o @ = @ +                               ",
"                                                    b 3.m z 5 2 #           $ o O @ = @                                 ",
"                                                  i y 9 > e y y @                                                       ",
"                                                  ; y 6 * m p - 5                                                       ",
"                                                    e 5 w 6 4 :                                                         ",
"                                                    2 0 > - @ o                                                         ",
"                                                        3 $ +                                                           ",
"                                                                                                                        ",
"                                                                                                                        ",
"                                                                                                                        ",
"                                                                                                                        ",
"                                                                                                                        ",
"                                                                                                                        ",
"                                                                                                                        ",
"                                                                                                                        ",
"                                                                                                                        ",
"                                                                                                                        "
};
